<svg width="1440" height="1436" viewBox="0 0 1440 1436" fill="none" xmlns="http://www.w3.org/2000/svg">
<g style="mix-blend-mode:overlay" opacity="0.4">
<path d="M39.94 0V1435.55" stroke="#143773" stroke-width="1.1" stroke-miterlimit="10"/>
<path d="M144.59 0V1435.55" stroke="#143773" stroke-width="1.1" stroke-miterlimit="10"/>
<path d="M249.24 0V1435.55" stroke="#143773" stroke-width="1.1" stroke-miterlimit="10"/>
<path d="M353.89 0V1435.55" stroke="#143773" stroke-width="1.1" stroke-miterlimit="10"/>
<path d="M458.54 0V1435.55" stroke="#143773" stroke-width="1.1" stroke-miterlimit="10"/>
<path d="M563.19 0V1435.55" stroke="#143773" stroke-width="1.1" stroke-miterlimit="10"/>
<path d="M667.84 0V1435.55" stroke="#143773" stroke-width="1.1" stroke-miterlimit="10"/>
<path d="M772.48 0V1435.55" stroke="#143773" stroke-width="1.1" stroke-miterlimit="10"/>
<path d="M877.13 0V1435.55" stroke="#143773" stroke-width="1.1" stroke-miterlimit="10"/>
<path d="M981.78 0V1435.55" stroke="#143773" stroke-width="1.1" stroke-miterlimit="10"/>
<path d="M1086.43 0V1435.55" stroke="#143773" stroke-width="1.1" stroke-miterlimit="10"/>
<path d="M1191.08 0V1435.55" stroke="#143773" stroke-width="1.1" stroke-miterlimit="10"/>
<path d="M1295.73 0V1435.55" stroke="#143773" stroke-width="1.1" stroke-miterlimit="10"/>
<path d="M1400.38 0V1435.55" stroke="#143773" stroke-width="1.1" stroke-miterlimit="10"/>
<path d="M1714.32 104.65H-274" stroke="#143773" stroke-width="1.1" stroke-miterlimit="10"/>
<path d="M1714.32 209.3H-274" stroke="#143773" stroke-width="1.1" stroke-miterlimit="10"/>
<path d="M1714.32 313.95H-274" stroke="#143773" stroke-width="1.1" stroke-miterlimit="10"/>
<path d="M1714.32 418.59H-274" stroke="#143773" stroke-width="1.1" stroke-miterlimit="10"/>
<path d="M1714.32 523.24H-274" stroke="#143773" stroke-width="1.1" stroke-miterlimit="10"/>
<path d="M1714.32 627.89H-274" stroke="#143773" stroke-width="1.1" stroke-miterlimit="10"/>
<path d="M1714.32 732.54H-274" stroke="#143773" stroke-width="1.1" stroke-miterlimit="10"/>
<path d="M1714.32 837.19H-274" stroke="#143773" stroke-width="1.1" stroke-miterlimit="10"/>
<path d="M1714.32 941.84H-274" stroke="#143773" stroke-width="1.1" stroke-miterlimit="10"/>
<path d="M1714.32 1046.49H-274" stroke="#143773" stroke-width="1.1" stroke-miterlimit="10"/>
</g>
<g style="mix-blend-mode:overlay">
<path d="M39.94 98.81V110.49" stroke="#143773" stroke-width="1.1" stroke-miterlimit="10"/>
<path d="M45.78 104.65H34.11" stroke="#143773" stroke-width="1.1" stroke-miterlimit="10"/>
<path d="M144.59 98.81V110.49" stroke="#143773" stroke-width="1.1" stroke-miterlimit="10"/>
<path d="M150.43 104.65H138.75" stroke="#143773" stroke-width="1.1" stroke-miterlimit="10"/>
<path d="M249.24 98.81V110.49" stroke="#143773" stroke-width="1.1" stroke-miterlimit="10"/>
<path d="M255.08 104.65H243.4" stroke="#143773" stroke-width="1.1" stroke-miterlimit="10"/>
<path d="M353.89 98.81V110.49" stroke="#143773" stroke-width="1.1" stroke-miterlimit="10"/>
<path d="M359.73 104.65H348.05" stroke="#143773" stroke-width="1.1" stroke-miterlimit="10"/>
<path d="M458.54 98.81V110.49" stroke="#143773" stroke-width="1.1" stroke-miterlimit="10"/>
<path d="M464.38 104.65H452.7" stroke="#143773" stroke-width="1.1" stroke-miterlimit="10"/>
<path d="M563.19 98.81V110.49" stroke="#143773" stroke-width="1.1" stroke-miterlimit="10"/>
<path d="M569.02 104.65H557.35" stroke="#143773" stroke-width="1.1" stroke-miterlimit="10"/>
<path d="M667.84 98.81V110.49" stroke="#143773" stroke-width="1.1" stroke-miterlimit="10"/>
<path d="M673.67 104.65H662" stroke="#143773" stroke-width="1.1" stroke-miterlimit="10"/>
<path d="M772.48 98.81V110.49" stroke="#143773" stroke-width="1.1" stroke-miterlimit="10"/>
<path d="M778.32 104.65H766.65" stroke="#143773" stroke-width="1.1" stroke-miterlimit="10"/>
<path d="M877.13 98.81V110.49" stroke="#143773" stroke-width="1.1" stroke-miterlimit="10"/>
<path d="M882.97 104.65H871.29" stroke="#143773" stroke-width="1.1" stroke-miterlimit="10"/>
<path d="M981.78 98.81V110.49" stroke="#143773" stroke-width="1.1" stroke-miterlimit="10"/>
<path d="M987.62 104.65H975.94" stroke="#143773" stroke-width="1.1" stroke-miterlimit="10"/>
<path d="M1086.43 98.81V110.49" stroke="#143773" stroke-width="1.1" stroke-miterlimit="10"/>
<path d="M1092.27 104.65H1080.59" stroke="#143773" stroke-width="1.1" stroke-miterlimit="10"/>
<path d="M1191.08 98.81V110.49" stroke="#143773" stroke-width="1.1" stroke-miterlimit="10"/>
<path d="M1196.92 104.65H1185.24" stroke="#143773" stroke-width="1.1" stroke-miterlimit="10"/>
<path d="M1295.73 98.81V110.49" stroke="#143773" stroke-width="1.1" stroke-miterlimit="10"/>
<path d="M1301.57 104.65H1289.89" stroke="#143773" stroke-width="1.1" stroke-miterlimit="10"/>
<path d="M1400.38 98.81V110.49" stroke="#143773" stroke-width="1.1" stroke-miterlimit="10"/>
<path d="M1406.21 104.65H1394.54" stroke="#143773" stroke-width="1.1" stroke-miterlimit="10"/>
<path d="M39.94 203.46V215.13" stroke="#143773" stroke-width="1.1" stroke-miterlimit="10"/>
<path d="M45.78 209.3H34.11" stroke="#143773" stroke-width="1.1" stroke-miterlimit="10"/>
<path d="M144.59 203.46V215.13" stroke="#143773" stroke-width="1.1" stroke-miterlimit="10"/>
<path d="M150.43 209.3H138.75" stroke="#143773" stroke-width="1.1" stroke-miterlimit="10"/>
<path d="M249.24 203.46V215.13" stroke="#143773" stroke-width="1.1" stroke-miterlimit="10"/>
<path d="M255.08 209.3H243.4" stroke="#143773" stroke-width="1.1" stroke-miterlimit="10"/>
<path d="M353.89 203.46V215.13" stroke="#143773" stroke-width="1.1" stroke-miterlimit="10"/>
<path d="M359.73 209.3H348.05" stroke="#143773" stroke-width="1.1" stroke-miterlimit="10"/>
<path d="M458.54 203.46V215.13" stroke="#143773" stroke-width="1.1" stroke-miterlimit="10"/>
<path d="M464.38 209.3H452.7" stroke="#143773" stroke-width="1.1" stroke-miterlimit="10"/>
<path d="M563.19 203.46V215.13" stroke="#143773" stroke-width="1.1" stroke-miterlimit="10"/>
<path d="M569.02 209.3H557.35" stroke="#143773" stroke-width="1.1" stroke-miterlimit="10"/>
<path d="M667.84 203.46V215.13" stroke="#143773" stroke-width="1.1" stroke-miterlimit="10"/>
<path d="M673.67 209.3H662" stroke="#143773" stroke-width="1.1" stroke-miterlimit="10"/>
<path d="M772.48 203.46V215.13" stroke="#143773" stroke-width="1.1" stroke-miterlimit="10"/>
<path d="M778.32 209.3H766.65" stroke="#143773" stroke-width="1.1" stroke-miterlimit="10"/>
<path d="M877.13 203.46V215.13" stroke="#143773" stroke-width="1.1" stroke-miterlimit="10"/>
<path d="M882.97 209.3H871.29" stroke="#143773" stroke-width="1.1" stroke-miterlimit="10"/>
<path d="M981.78 203.46V215.13" stroke="#143773" stroke-width="1.1" stroke-miterlimit="10"/>
<path d="M987.62 209.3H975.94" stroke="#143773" stroke-width="1.1" stroke-miterlimit="10"/>
<path d="M1086.43 203.46V215.13" stroke="#143773" stroke-width="1.1" stroke-miterlimit="10"/>
<path d="M1092.27 209.3H1080.59" stroke="#143773" stroke-width="1.1" stroke-miterlimit="10"/>
<path d="M1191.08 203.46V215.13" stroke="#143773" stroke-width="1.1" stroke-miterlimit="10"/>
<path d="M1196.92 209.3H1185.24" stroke="#143773" stroke-width="1.1" stroke-miterlimit="10"/>
<path d="M1295.73 203.46V215.13" stroke="#143773" stroke-width="1.1" stroke-miterlimit="10"/>
<path d="M1301.57 209.3H1289.89" stroke="#143773" stroke-width="1.1" stroke-miterlimit="10"/>
<path d="M1400.38 203.46V215.13" stroke="#143773" stroke-width="1.1" stroke-miterlimit="10"/>
<path d="M1406.21 209.3H1394.54" stroke="#143773" stroke-width="1.1" stroke-miterlimit="10"/>
<path d="M39.94 308.11V319.78" stroke="#143773" stroke-width="1.1" stroke-miterlimit="10"/>
<path d="M45.78 313.95H34.11" stroke="#143773" stroke-width="1.1" stroke-miterlimit="10"/>
<path d="M144.59 308.11V319.78" stroke="#143773" stroke-width="1.1" stroke-miterlimit="10"/>
<path d="M150.43 313.95H138.75" stroke="#143773" stroke-width="1.1" stroke-miterlimit="10"/>
<path d="M249.24 308.11V319.78" stroke="#143773" stroke-width="1.1" stroke-miterlimit="10"/>
<path d="M255.08 313.95H243.4" stroke="#143773" stroke-width="1.1" stroke-miterlimit="10"/>
<path d="M353.89 308.11V319.78" stroke="#143773" stroke-width="1.1" stroke-miterlimit="10"/>
<path d="M359.73 313.95H348.05" stroke="#143773" stroke-width="1.1" stroke-miterlimit="10"/>
<path d="M458.54 308.11V319.78" stroke="#143773" stroke-width="1.1" stroke-miterlimit="10"/>
<path d="M464.38 313.95H452.7" stroke="#143773" stroke-width="1.1" stroke-miterlimit="10"/>
<path d="M563.19 308.11V319.78" stroke="#143773" stroke-width="1.1" stroke-miterlimit="10"/>
<path d="M569.02 313.95H557.35" stroke="#143773" stroke-width="1.1" stroke-miterlimit="10"/>
<path d="M667.84 308.11V319.78" stroke="#143773" stroke-width="1.1" stroke-miterlimit="10"/>
<path d="M673.67 313.95H662" stroke="#143773" stroke-width="1.1" stroke-miterlimit="10"/>
<path d="M772.48 308.11V319.78" stroke="#143773" stroke-width="1.1" stroke-miterlimit="10"/>
<path d="M778.32 313.95H766.65" stroke="#143773" stroke-width="1.1" stroke-miterlimit="10"/>
<path d="M877.13 308.11V319.78" stroke="#143773" stroke-width="1.1" stroke-miterlimit="10"/>
<path d="M882.97 313.95H871.29" stroke="#143773" stroke-width="1.1" stroke-miterlimit="10"/>
<path d="M981.78 308.11V319.78" stroke="#143773" stroke-width="1.1" stroke-miterlimit="10"/>
<path d="M987.62 313.95H975.94" stroke="#143773" stroke-width="1.1" stroke-miterlimit="10"/>
<path d="M1086.43 308.11V319.78" stroke="#143773" stroke-width="1.1" stroke-miterlimit="10"/>
<path d="M1092.27 313.95H1080.59" stroke="#143773" stroke-width="1.1" stroke-miterlimit="10"/>
<path d="M1191.08 308.11V319.78" stroke="#143773" stroke-width="1.1" stroke-miterlimit="10"/>
<path d="M1196.92 313.95H1185.24" stroke="#143773" stroke-width="1.1" stroke-miterlimit="10"/>
<path d="M1295.73 308.11V319.78" stroke="#143773" stroke-width="1.1" stroke-miterlimit="10"/>
<path d="M1301.57 313.95H1289.89" stroke="#143773" stroke-width="1.1" stroke-miterlimit="10"/>
<path d="M1400.38 308.11V319.78" stroke="#143773" stroke-width="1.1" stroke-miterlimit="10"/>
<path d="M1406.21 313.95H1394.54" stroke="#143773" stroke-width="1.1" stroke-miterlimit="10"/>
<path d="M39.94 412.76V424.43" stroke="#143773" stroke-width="1.1" stroke-miterlimit="10"/>
<path d="M45.78 418.59H34.11" stroke="#143773" stroke-width="1.1" stroke-miterlimit="10"/>
<path d="M144.59 412.76V424.43" stroke="#143773" stroke-width="1.1" stroke-miterlimit="10"/>
<path d="M150.43 418.59H138.75" stroke="#143773" stroke-width="1.1" stroke-miterlimit="10"/>
<path d="M249.24 412.76V424.43" stroke="#143773" stroke-width="1.1" stroke-miterlimit="10"/>
<path d="M255.08 418.59H243.4" stroke="#143773" stroke-width="1.1" stroke-miterlimit="10"/>
<path d="M353.89 412.76V424.43" stroke="#143773" stroke-width="1.1" stroke-miterlimit="10"/>
<path d="M359.73 418.59H348.05" stroke="#143773" stroke-width="1.1" stroke-miterlimit="10"/>
<path d="M458.54 412.76V424.43" stroke="#143773" stroke-width="1.1" stroke-miterlimit="10"/>
<path d="M464.38 418.59H452.7" stroke="#143773" stroke-width="1.1" stroke-miterlimit="10"/>
<path d="M563.19 412.76V424.43" stroke="#143773" stroke-width="1.1" stroke-miterlimit="10"/>
<path d="M569.02 418.59H557.35" stroke="#143773" stroke-width="1.1" stroke-miterlimit="10"/>
<path d="M667.84 412.76V424.43" stroke="#143773" stroke-width="1.1" stroke-miterlimit="10"/>
<path d="M673.67 418.59H662" stroke="#143773" stroke-width="1.1" stroke-miterlimit="10"/>
<path d="M772.48 412.76V424.43" stroke="#143773" stroke-width="1.1" stroke-miterlimit="10"/>
<path d="M778.32 418.59H766.65" stroke="#143773" stroke-width="1.1" stroke-miterlimit="10"/>
<path d="M877.13 412.76V424.43" stroke="#143773" stroke-width="1.1" stroke-miterlimit="10"/>
<path d="M882.97 418.59H871.29" stroke="#143773" stroke-width="1.1" stroke-miterlimit="10"/>
<path d="M981.78 412.76V424.43" stroke="#143773" stroke-width="1.1" stroke-miterlimit="10"/>
<path d="M987.62 418.59H975.94" stroke="#143773" stroke-width="1.1" stroke-miterlimit="10"/>
<path d="M1086.43 412.76V424.43" stroke="#143773" stroke-width="1.1" stroke-miterlimit="10"/>
<path d="M1092.27 418.59H1080.59" stroke="#143773" stroke-width="1.1" stroke-miterlimit="10"/>
<path d="M1191.08 412.76V424.43" stroke="#143773" stroke-width="1.1" stroke-miterlimit="10"/>
<path d="M1196.92 418.59H1185.24" stroke="#143773" stroke-width="1.1" stroke-miterlimit="10"/>
<path d="M1295.73 412.76V424.43" stroke="#143773" stroke-width="1.1" stroke-miterlimit="10"/>
<path d="M1301.57 418.59H1289.89" stroke="#143773" stroke-width="1.1" stroke-miterlimit="10"/>
<path d="M1400.38 412.76V424.43" stroke="#143773" stroke-width="1.1" stroke-miterlimit="10"/>
<path d="M1406.21 418.59H1394.54" stroke="#143773" stroke-width="1.1" stroke-miterlimit="10"/>
<path d="M39.94 517.4V529.08" stroke="#143773" stroke-width="1.1" stroke-miterlimit="10"/>
<path d="M45.78 523.24H34.11" stroke="#143773" stroke-width="1.1" stroke-miterlimit="10"/>
<path d="M144.59 517.4V529.08" stroke="#143773" stroke-width="1.1" stroke-miterlimit="10"/>
<path d="M150.43 523.24H138.75" stroke="#143773" stroke-width="1.1" stroke-miterlimit="10"/>
<path d="M249.24 517.4V529.08" stroke="#143773" stroke-width="1.1" stroke-miterlimit="10"/>
<path d="M255.08 523.24H243.4" stroke="#143773" stroke-width="1.1" stroke-miterlimit="10"/>
<path d="M353.89 517.4V529.08" stroke="#143773" stroke-width="1.1" stroke-miterlimit="10"/>
<path d="M359.73 523.24H348.05" stroke="#143773" stroke-width="1.1" stroke-miterlimit="10"/>
<path d="M458.54 517.4V529.08" stroke="#143773" stroke-width="1.1" stroke-miterlimit="10"/>
<path d="M464.38 523.24H452.7" stroke="#143773" stroke-width="1.1" stroke-miterlimit="10"/>
<path d="M563.19 517.4V529.08" stroke="#143773" stroke-width="1.1" stroke-miterlimit="10"/>
<path d="M569.02 523.24H557.35" stroke="#143773" stroke-width="1.1" stroke-miterlimit="10"/>
<path d="M667.84 517.4V529.08" stroke="#143773" stroke-width="1.1" stroke-miterlimit="10"/>
<path d="M673.67 523.24H662" stroke="#143773" stroke-width="1.1" stroke-miterlimit="10"/>
<path d="M772.48 517.4V529.08" stroke="#143773" stroke-width="1.1" stroke-miterlimit="10"/>
<path d="M778.32 523.24H766.65" stroke="#143773" stroke-width="1.1" stroke-miterlimit="10"/>
<path d="M877.13 517.4V529.08" stroke="#143773" stroke-width="1.1" stroke-miterlimit="10"/>
<path d="M882.97 523.24H871.29" stroke="#143773" stroke-width="1.1" stroke-miterlimit="10"/>
<path d="M981.78 517.4V529.08" stroke="#143773" stroke-width="1.1" stroke-miterlimit="10"/>
<path d="M987.62 523.24H975.94" stroke="#143773" stroke-width="1.1" stroke-miterlimit="10"/>
<path d="M1086.43 517.4V529.08" stroke="#143773" stroke-width="1.1" stroke-miterlimit="10"/>
<path d="M1092.27 523.24H1080.59" stroke="#143773" stroke-width="1.1" stroke-miterlimit="10"/>
<path d="M1191.08 517.4V529.08" stroke="#143773" stroke-width="1.1" stroke-miterlimit="10"/>
<path d="M1196.92 523.24H1185.24" stroke="#143773" stroke-width="1.1" stroke-miterlimit="10"/>
<path d="M1295.73 517.4V529.08" stroke="#143773" stroke-width="1.1" stroke-miterlimit="10"/>
<path d="M1301.57 523.24H1289.89" stroke="#143773" stroke-width="1.1" stroke-miterlimit="10"/>
<path d="M1400.38 517.4V529.08" stroke="#143773" stroke-width="1.1" stroke-miterlimit="10"/>
<path d="M1406.21 523.24H1394.54" stroke="#143773" stroke-width="1.1" stroke-miterlimit="10"/>
<path d="M39.94 622.05V633.73" stroke="#143773" stroke-width="1.1" stroke-miterlimit="10"/>
<path d="M45.78 627.89H34.11" stroke="#143773" stroke-width="1.1" stroke-miterlimit="10"/>
<path d="M144.59 622.05V633.73" stroke="#143773" stroke-width="1.1" stroke-miterlimit="10"/>
<path d="M150.43 627.89H138.75" stroke="#143773" stroke-width="1.1" stroke-miterlimit="10"/>
<path d="M249.24 622.05V633.73" stroke="#143773" stroke-width="1.1" stroke-miterlimit="10"/>
<path d="M255.08 627.89H243.4" stroke="#143773" stroke-width="1.1" stroke-miterlimit="10"/>
<path d="M353.89 622.05V633.73" stroke="#143773" stroke-width="1.1" stroke-miterlimit="10"/>
<path d="M359.73 627.89H348.05" stroke="#143773" stroke-width="1.1" stroke-miterlimit="10"/>
<path d="M458.54 622.05V633.73" stroke="#143773" stroke-width="1.1" stroke-miterlimit="10"/>
<path d="M464.38 627.89H452.7" stroke="#143773" stroke-width="1.1" stroke-miterlimit="10"/>
<path d="M563.19 622.05V633.73" stroke="#143773" stroke-width="1.1" stroke-miterlimit="10"/>
<path d="M569.02 627.89H557.35" stroke="#143773" stroke-width="1.1" stroke-miterlimit="10"/>
<path d="M667.84 622.05V633.73" stroke="#143773" stroke-width="1.1" stroke-miterlimit="10"/>
<path d="M673.67 627.89H662" stroke="#143773" stroke-width="1.1" stroke-miterlimit="10"/>
<path d="M772.48 622.05V633.73" stroke="#143773" stroke-width="1.1" stroke-miterlimit="10"/>
<path d="M778.32 627.89H766.65" stroke="#143773" stroke-width="1.1" stroke-miterlimit="10"/>
<path d="M877.13 622.05V633.73" stroke="#143773" stroke-width="1.1" stroke-miterlimit="10"/>
<path d="M882.97 627.89H871.29" stroke="#143773" stroke-width="1.1" stroke-miterlimit="10"/>
<path d="M981.78 622.05V633.73" stroke="#143773" stroke-width="1.1" stroke-miterlimit="10"/>
<path d="M987.62 627.89H975.94" stroke="#143773" stroke-width="1.1" stroke-miterlimit="10"/>
<path d="M1086.43 622.05V633.73" stroke="#143773" stroke-width="1.1" stroke-miterlimit="10"/>
<path d="M1092.27 627.89H1080.59" stroke="#143773" stroke-width="1.1" stroke-miterlimit="10"/>
<path d="M1191.08 622.05V633.73" stroke="#143773" stroke-width="1.1" stroke-miterlimit="10"/>
<path d="M1196.92 627.89H1185.24" stroke="#143773" stroke-width="1.1" stroke-miterlimit="10"/>
<path d="M1295.73 622.05V633.73" stroke="#143773" stroke-width="1.1" stroke-miterlimit="10"/>
<path d="M1301.57 627.89H1289.89" stroke="#143773" stroke-width="1.1" stroke-miterlimit="10"/>
<path d="M1400.38 622.05V633.73" stroke="#143773" stroke-width="1.1" stroke-miterlimit="10"/>
<path d="M1406.21 627.89H1394.54" stroke="#143773" stroke-width="1.1" stroke-miterlimit="10"/>
<path d="M39.94 726.7V738.38" stroke="#143773" stroke-width="1.1" stroke-miterlimit="10"/>
<path d="M45.78 732.54H34.11" stroke="#143773" stroke-width="1.1" stroke-miterlimit="10"/>
<path d="M144.59 726.7V738.38" stroke="#143773" stroke-width="1.1" stroke-miterlimit="10"/>
<path d="M150.43 732.54H138.75" stroke="#143773" stroke-width="1.1" stroke-miterlimit="10"/>
<path d="M249.24 726.7V738.38" stroke="#143773" stroke-width="1.1" stroke-miterlimit="10"/>
<path d="M255.08 732.54H243.4" stroke="#143773" stroke-width="1.1" stroke-miterlimit="10"/>
<path d="M353.89 726.7V738.38" stroke="#143773" stroke-width="1.1" stroke-miterlimit="10"/>
<path d="M359.73 732.54H348.05" stroke="#143773" stroke-width="1.1" stroke-miterlimit="10"/>
<path d="M458.54 726.7V738.38" stroke="#143773" stroke-width="1.1" stroke-miterlimit="10"/>
<path d="M464.38 732.54H452.7" stroke="#143773" stroke-width="1.1" stroke-miterlimit="10"/>
<path d="M563.19 726.7V738.38" stroke="#143773" stroke-width="1.1" stroke-miterlimit="10"/>
<path d="M569.02 732.54H557.35" stroke="#143773" stroke-width="1.1" stroke-miterlimit="10"/>
<path d="M667.84 726.7V738.38" stroke="#143773" stroke-width="1.1" stroke-miterlimit="10"/>
<path d="M673.67 732.54H662" stroke="#143773" stroke-width="1.1" stroke-miterlimit="10"/>
<path d="M772.48 726.7V738.38" stroke="#143773" stroke-width="1.1" stroke-miterlimit="10"/>
<path d="M778.32 732.54H766.65" stroke="#143773" stroke-width="1.1" stroke-miterlimit="10"/>
<path d="M877.13 726.7V738.38" stroke="#143773" stroke-width="1.1" stroke-miterlimit="10"/>
<path d="M882.97 732.54H871.29" stroke="#143773" stroke-width="1.1" stroke-miterlimit="10"/>
<path d="M981.78 726.7V738.38" stroke="#143773" stroke-width="1.1" stroke-miterlimit="10"/>
<path d="M987.62 732.54H975.94" stroke="#143773" stroke-width="1.1" stroke-miterlimit="10"/>
<path d="M1086.43 726.7V738.38" stroke="#143773" stroke-width="1.1" stroke-miterlimit="10"/>
<path d="M1092.27 732.54H1080.59" stroke="#143773" stroke-width="1.1" stroke-miterlimit="10"/>
<path d="M1191.08 726.7V738.38" stroke="#143773" stroke-width="1.1" stroke-miterlimit="10"/>
<path d="M1196.92 732.54H1185.24" stroke="#143773" stroke-width="1.1" stroke-miterlimit="10"/>
<path d="M1295.73 726.7V738.38" stroke="#143773" stroke-width="1.1" stroke-miterlimit="10"/>
<path d="M1301.57 732.54H1289.89" stroke="#143773" stroke-width="1.1" stroke-miterlimit="10"/>
<path d="M1400.38 726.7V738.38" stroke="#143773" stroke-width="1.1" stroke-miterlimit="10"/>
<path d="M1406.21 732.54H1394.54" stroke="#143773" stroke-width="1.1" stroke-miterlimit="10"/>
<path d="M39.94 831.35V843.03" stroke="#143773" stroke-width="1.1" stroke-miterlimit="10"/>
<path d="M45.78 837.19H34.11" stroke="#143773" stroke-width="1.1" stroke-miterlimit="10"/>
<path d="M144.59 831.35V843.03" stroke="#143773" stroke-width="1.1" stroke-miterlimit="10"/>
<path d="M150.43 837.19H138.75" stroke="#143773" stroke-width="1.1" stroke-miterlimit="10"/>
<path d="M249.24 831.35V843.03" stroke="#143773" stroke-width="1.1" stroke-miterlimit="10"/>
<path d="M255.08 837.19H243.4" stroke="#143773" stroke-width="1.1" stroke-miterlimit="10"/>
<path d="M353.89 831.35V843.03" stroke="#143773" stroke-width="1.1" stroke-miterlimit="10"/>
<path d="M359.73 837.19H348.05" stroke="#143773" stroke-width="1.1" stroke-miterlimit="10"/>
<path d="M458.54 831.35V843.03" stroke="#143773" stroke-width="1.1" stroke-miterlimit="10"/>
<path d="M464.38 837.19H452.7" stroke="#143773" stroke-width="1.1" stroke-miterlimit="10"/>
<path d="M563.19 831.35V843.03" stroke="#143773" stroke-width="1.1" stroke-miterlimit="10"/>
<path d="M569.02 837.19H557.35" stroke="#143773" stroke-width="1.1" stroke-miterlimit="10"/>
<path d="M667.84 831.35V843.03" stroke="#143773" stroke-width="1.1" stroke-miterlimit="10"/>
<path d="M673.67 837.19H662" stroke="#143773" stroke-width="1.1" stroke-miterlimit="10"/>
<path d="M772.48 831.35V843.03" stroke="#143773" stroke-width="1.1" stroke-miterlimit="10"/>
<path d="M778.32 837.19H766.65" stroke="#143773" stroke-width="1.1" stroke-miterlimit="10"/>
<path d="M877.13 831.35V843.03" stroke="#143773" stroke-width="1.1" stroke-miterlimit="10"/>
<path d="M882.97 837.19H871.29" stroke="#143773" stroke-width="1.1" stroke-miterlimit="10"/>
<path d="M981.78 831.35V843.03" stroke="#143773" stroke-width="1.1" stroke-miterlimit="10"/>
<path d="M987.62 837.19H975.94" stroke="#143773" stroke-width="1.1" stroke-miterlimit="10"/>
<path d="M1086.43 831.35V843.03" stroke="#143773" stroke-width="1.1" stroke-miterlimit="10"/>
<path d="M1092.27 837.19H1080.59" stroke="#143773" stroke-width="1.1" stroke-miterlimit="10"/>
<path d="M1191.08 831.35V843.03" stroke="#143773" stroke-width="1.1" stroke-miterlimit="10"/>
<path d="M1196.92 837.19H1185.24" stroke="#143773" stroke-width="1.1" stroke-miterlimit="10"/>
<path d="M1295.73 831.35V843.03" stroke="#143773" stroke-width="1.1" stroke-miterlimit="10"/>
<path d="M1301.57 837.19H1289.89" stroke="#143773" stroke-width="1.1" stroke-miterlimit="10"/>
<path d="M1400.38 831.35V843.03" stroke="#143773" stroke-width="1.1" stroke-miterlimit="10"/>
<path d="M1406.21 837.19H1394.54" stroke="#143773" stroke-width="1.1" stroke-miterlimit="10"/>
<path d="M39.94 936V947.68" stroke="#143773" stroke-width="1.1" stroke-miterlimit="10"/>
<path d="M45.78 941.84H34.11" stroke="#143773" stroke-width="1.1" stroke-miterlimit="10"/>
<path d="M144.59 936V947.68" stroke="#143773" stroke-width="1.1" stroke-miterlimit="10"/>
<path d="M150.43 941.84H138.75" stroke="#143773" stroke-width="1.1" stroke-miterlimit="10"/>
<path d="M249.24 936V947.68" stroke="#143773" stroke-width="1.1" stroke-miterlimit="10"/>
<path d="M255.08 941.84H243.4" stroke="#143773" stroke-width="1.1" stroke-miterlimit="10"/>
<path d="M353.89 936V947.68" stroke="#143773" stroke-width="1.1" stroke-miterlimit="10"/>
<path d="M359.73 941.84H348.05" stroke="#143773" stroke-width="1.1" stroke-miterlimit="10"/>
<path d="M458.54 936V947.68" stroke="#143773" stroke-width="1.1" stroke-miterlimit="10"/>
<path d="M464.38 941.84H452.7" stroke="#143773" stroke-width="1.1" stroke-miterlimit="10"/>
<path d="M563.19 936V947.68" stroke="#143773" stroke-width="1.1" stroke-miterlimit="10"/>
<path d="M569.02 941.84H557.35" stroke="#143773" stroke-width="1.1" stroke-miterlimit="10"/>
<path d="M667.84 936V947.68" stroke="#143773" stroke-width="1.1" stroke-miterlimit="10"/>
<path d="M673.67 941.84H662" stroke="#143773" stroke-width="1.1" stroke-miterlimit="10"/>
<path d="M772.48 936V947.68" stroke="#143773" stroke-width="1.1" stroke-miterlimit="10"/>
<path d="M778.32 941.84H766.65" stroke="#143773" stroke-width="1.1" stroke-miterlimit="10"/>
<path d="M877.13 936V947.68" stroke="#143773" stroke-width="1.1" stroke-miterlimit="10"/>
<path d="M882.97 941.84H871.29" stroke="#143773" stroke-width="1.1" stroke-miterlimit="10"/>
<path d="M981.78 936V947.68" stroke="#143773" stroke-width="1.1" stroke-miterlimit="10"/>
<path d="M987.62 941.84H975.94" stroke="#143773" stroke-width="1.1" stroke-miterlimit="10"/>
<path d="M1086.43 936V947.68" stroke="#143773" stroke-width="1.1" stroke-miterlimit="10"/>
<path d="M1092.27 941.84H1080.59" stroke="#143773" stroke-width="1.1" stroke-miterlimit="10"/>
<path d="M1191.08 936V947.68" stroke="#143773" stroke-width="1.1" stroke-miterlimit="10"/>
<path d="M1196.92 941.84H1185.24" stroke="#143773" stroke-width="1.1" stroke-miterlimit="10"/>
<path d="M1295.73 936V947.68" stroke="#143773" stroke-width="1.1" stroke-miterlimit="10"/>
<path d="M1301.57 941.84H1289.89" stroke="#143773" stroke-width="1.1" stroke-miterlimit="10"/>
<path d="M1406.21 941.84H1394.54" stroke="#143773" stroke-width="1.1" stroke-miterlimit="10"/>
<path d="M39.94 1040.65V1052.32" stroke="#143773" stroke-width="1.1" stroke-miterlimit="10"/>
<path d="M45.78 1046.49H34.11" stroke="#143773" stroke-width="1.1" stroke-miterlimit="10"/>
<path d="M144.59 1040.65V1052.32" stroke="#143773" stroke-width="1.1" stroke-miterlimit="10"/>
<path d="M150.43 1046.49H138.75" stroke="#143773" stroke-width="1.1" stroke-miterlimit="10"/>
<path d="M249.24 1040.65V1052.32" stroke="#143773" stroke-width="1.1" stroke-miterlimit="10"/>
<path d="M255.08 1046.49H243.4" stroke="#143773" stroke-width="1.1" stroke-miterlimit="10"/>
<path d="M353.89 1040.65V1052.32" stroke="#143773" stroke-width="1.1" stroke-miterlimit="10"/>
<path d="M359.73 1046.49H348.05" stroke="#143773" stroke-width="1.1" stroke-miterlimit="10"/>
<path d="M458.54 1040.65V1052.32" stroke="#143773" stroke-width="1.1" stroke-miterlimit="10"/>
<path d="M464.38 1046.49H452.7" stroke="#143773" stroke-width="1.1" stroke-miterlimit="10"/>
<path d="M563.19 1040.65V1052.32" stroke="#143773" stroke-width="1.1" stroke-miterlimit="10"/>
<path d="M569.02 1046.49H557.35" stroke="#143773" stroke-width="1.1" stroke-miterlimit="10"/>
<path d="M667.84 1040.65V1052.32" stroke="#143773" stroke-width="1.1" stroke-miterlimit="10"/>
<path d="M673.67 1046.49H662" stroke="#143773" stroke-width="1.1" stroke-miterlimit="10"/>
<path d="M772.48 1040.65V1052.32" stroke="#143773" stroke-width="1.1" stroke-miterlimit="10"/>
<path d="M778.32 1046.49H766.65" stroke="#143773" stroke-width="1.1" stroke-miterlimit="10"/>
<path d="M877.13 1040.65V1052.32" stroke="#143773" stroke-width="1.1" stroke-miterlimit="10"/>
<path d="M882.97 1046.49H871.29" stroke="#143773" stroke-width="1.1" stroke-miterlimit="10"/>
<path d="M981.78 1040.65V1052.32" stroke="#143773" stroke-width="1.1" stroke-miterlimit="10"/>
<path d="M987.62 1046.49H975.94" stroke="#143773" stroke-width="1.1" stroke-miterlimit="10"/>
<path d="M1086.43 1040.65V1052.32" stroke="#143773" stroke-width="1.1" stroke-miterlimit="10"/>
<path d="M1092.27 1046.49H1080.59" stroke="#143773" stroke-width="1.1" stroke-miterlimit="10"/>
<path d="M1191.08 1040.65V1052.32" stroke="#143773" stroke-width="1.1" stroke-miterlimit="10"/>
<path d="M1196.92 1046.49H1185.24" stroke="#143773" stroke-width="1.1" stroke-miterlimit="10"/>
<path d="M1295.73 1040.65V1052.32" stroke="#143773" stroke-width="1.1" stroke-miterlimit="10"/>
<path d="M1301.57 1046.49H1289.89" stroke="#143773" stroke-width="1.1" stroke-miterlimit="10"/>
<path d="M1400.38 1040.65V1052.32" stroke="#143773" stroke-width="1.1" stroke-miterlimit="10"/>
<path d="M1406.21 1046.49H1394.54" stroke="#143773" stroke-width="1.1" stroke-miterlimit="10"/>
</g>
</svg>
