<svg width="1438" height="191" viewBox="0 0 1438 191" fill="none" xmlns="http://www.w3.org/2000/svg">
<g clip-path="url(#clip0_657_2628)">
<path d="M697.315 66.4888H584.417V342.82H514.856V66.4888H401.541V5.06641H697.315V66.4888Z" stroke="#808080" stroke-opacity="0.15" stroke-width="2"/>
<path d="M1011.8 66.4888H865.026V139.632H992.392V199.698H865.026V280.945H1012.25V342.82H795.047V5.06641H1011.8V66.4888Z" stroke="#808080" stroke-opacity="0.15" stroke-width="2"/>
<path d="M1383.81 34.8754C1413.62 57.9001 1431.67 89.5156 1437.55 128.783L1364.86 135.113C1355.36 88.1591 1321.97 61.9694 1274.98 61.9694C1245.18 61.9694 1221.25 72.3688 1203.2 92.6806C1185.6 112.992 1176.55 140.086 1176.55 173.963C1176.55 209.647 1185.6 237.194 1204.1 256.601C1222.6 276.009 1246.53 285.956 1275.44 285.956C1322.39 285.956 1355.81 260.67 1364.86 214.169L1438 220.499C1431.67 259.801 1413.62 290.477 1384.26 313.537C1354.91 336.561 1319.22 347.865 1277.7 347.865C1227.13 347.865 1185.56 332.075 1153.53 300.911C1121.46 269.748 1105.67 227.316 1105.67 174.032C1105.67 120.748 1121.46 78.3162 1153.53 47.1529C1185.6 15.9896 1226.67 0.199219 1277.24 0.199219C1318.81 0.199219 1354.46 11.955 1383.81 34.9797" stroke="#808080" stroke-opacity="0.15" stroke-width="2"/>
<path d="M337.753 173.926C337.753 267.207 262.141 342.82 168.859 342.82H0V275.276H84.4471V233.053H151.991V275.276H168.894C224.856 275.276 270.21 229.922 270.21 173.961C270.21 117.999 224.856 72.6449 168.894 72.6449H151.991V114.868H84.4471V72.6449H0V5.06641H168.894C262.175 5.06641 337.788 80.6792 337.788 173.961" stroke="#808080" stroke-opacity="0.15" stroke-width="2"/>
<path d="M219.535 140.158H0V207.702H219.535V140.158Z" stroke="#808080" stroke-opacity="0.15" stroke-width="2"/>
</g>
<defs>
<clipPath id="clip0_657_2628">
<rect width="1438" height="190" fill="white" transform="translate(0 0.199219)"/>
</clipPath>
</defs>
</svg>
