<svg width="1184" height="385" viewBox="0 0 1184 385" fill="none" xmlns="http://www.w3.org/2000/svg">
<mask id="mask0_620_388" style="mask-type:alpha" maskUnits="userSpaceOnUse" x="0" y="0" width="1184" height="385">
<rect x="0.5" y="0.699219" width="1183" height="383" rx="31.5" fill="url(#paint0_linear_620_388)" stroke="#212121"/>
</mask>
<g mask="url(#mask0_620_388)">
<path opacity="0.04" d="M744.044 135.993C1040.37 245.253 592.564 573.499 547.793 357.111C525.516 249.446 316.797 316.05 323.074 204.962C329.281 93.9057 423.35 103.473 516.642 49.0491C632.84 -19.3521 665.578 107.059 744.044 135.993Z" stroke="#143773" strokeMiterlimit="10"/>
<path opacity="0.07" d="M746.338 130.431C1024.34 245.065 607.28 567.758 547.886 361.963C518.609 260.528 313.258 303.946 325.812 196.561C338.234 89.2531 429.674 90.2176 520.966 45.2832C634.815 -10.7585 670.618 99.2014 746.346 130.431H746.338Z" stroke="#143773" strokeMiterlimit="10"/>
<path opacity="0.11" d="M748.633 124.862C1008.24 244.319 622.238 562.236 547.98 366.802C511.842 271.699 309.719 291.821 328.542 188.146C347.171 84.5794 435.85 76.7779 525.275 41.5039C636.604 -2.39601 675.565 91.2375 748.633 124.855V124.862Z" stroke="#143773" strokeMiterlimit="10"/>
<path opacity="0.15" d="M750.928 119.3C992.129 242.965 637.522 556.907 548.073 371.647C505.247 282.945 306.18 279.709 331.28 179.737C356.116 79.9194 441.979 63.3364 529.592 37.7307C638.339 5.95689 680.45 83.1551 750.928 119.292V119.3Z" stroke="#143773" strokeMiterlimit="10"/>
<path opacity="0.19" d="M753.222 113.74C976.058 240.936 653.179 551.681 548.166 376.501C498.845 294.232 302.641 267.599 334.018 171.345C365.06 75.2688 448.069 49.8886 533.909 33.9823C640.011 14.3191 685.287 74.9732 753.222 113.747V113.74Z" stroke="#143773" strokeMiterlimit="10"/>
<path opacity="0.23" d="M755.516 108.17C960.105 238.198 669.241 546.415 548.252 381.339C492.646 305.471 299.094 255.481 336.74 162.928C373.997 70.5939 454.089 36.3856 538.218 30.202C641.621 22.5949 690.094 66.596 755.508 108.178L755.516 108.17Z" stroke="#143773" strokeMiterlimit="10"/>
<path opacity="0.26" d="M757.818 102.609C944.362 234.729 685.722 541.017 548.352 386.185C486.656 316.649 295.554 243.363 339.485 154.521C382.95 65.9351 460.101 22.8363 542.542 26.4298C643.199 30.8089 694.916 58.0636 757.81 102.609H757.818Z" stroke="#143773" strokeMiterlimit="10"/>
<path opacity="0.3" d="M760.113 97.0393C928.899 230.52 702.547 535.354 548.446 391.023C480.823 327.693 292.016 231.244 342.224 146.104C391.895 61.2598 466.083 9.20833 546.859 22.649C644.755 38.9287 699.778 49.3203 760.105 97.0316L760.113 97.0393Z" stroke="#143773" strokeMiterlimit="10"/>
<path opacity="0.34" d="M762.408 91.4785C913.826 225.621 719.651 529.342 548.54 395.877C475.106 338.598 288.477 219.134 344.954 137.704C400.832 56.609 472.073 -4.47289 551.177 18.8849C646.319 46.9796 704.741 40.3915 762.408 91.4785Z" stroke="#143773" strokeMiterlimit="10"/>
<path opacity="0.38" d="M764.702 85.9089C899.233 220.074 736.926 522.917 548.633 400.714C469.459 349.332 284.937 207.015 347.692 129.295C409.785 51.9417 478.1 -18.2329 555.493 15.1121C647.929 54.9363 709.866 31.2206 764.702 85.9089Z" stroke="#143773" strokeMiterlimit="10"/>
<path opacity="0.41" d="M766.996 80.3483C885.217 213.993 754.263 516.089 548.725 405.561C463.819 359.903 281.398 194.897 350.429 120.888C418.729 47.2834 484.182 -32.0383 559.809 11.3405C649.6 62.8475 715.233 21.8332 766.996 80.3483Z" stroke="#143773" strokeMiterlimit="10"/>
<path opacity="0.45" d="M769.292 74.7783C871.863 207.505 771.579 508.87 548.82 410.406C458.158 370.333 277.86 182.786 353.168 112.479C427.675 42.6156 490.328 -45.8766 564.135 7.56718C651.352 70.7259 720.951 12.2107 769.3 74.7783H769.292Z" stroke="#143773" strokeMiterlimit="10"/>
<path opacity="0.49" d="M771.586 69.2176C859.238 200.816 788.799 501.326 548.913 415.252C452.448 380.64 274.32 170.668 355.898 104.072C436.612 37.9572 496.527 -59.7132 568.444 3.79552C653.156 78.5981 727.087 2.40321 771.586 69.2098V69.2176Z" stroke="#143773" strokeMiterlimit="10"/>
<path opacity="0.53" d="M773.881 63.6474C847.392 194.118 805.872 493.5 549.006 420.089C446.661 390.843 270.774 158.549 358.636 95.6545C445.564 33.2814 502.781 -73.5438 572.761 0.0142342C655.022 86.4841 733.761 -7.56168 773.881 63.6396V63.6474Z" stroke="#143773" strokeMiterlimit="10"/>
<path opacity="0.56" d="M776.175 58.0867C836.331 187.686 822.781 485.481 549.099 424.944C440.796 400.987 267.234 146.439 361.373 87.2626C454.509 28.6308 509.065 -87.3416 577.085 -3.73412C656.943 94.4185 741.064 -17.5637 776.183 58.0945L776.175 58.0867Z" stroke="#143773" strokeMiterlimit="10"/>
<path opacity="0.6" d="M778.469 52.5252C826.017 181.767 839.512 477.322 549.192 429.789C434.853 411.067 263.695 134.32 364.103 78.8542C463.446 23.9715 515.373 -101.125 581.394 -7.50668C658.88 102.36 749.013 -27.5432 778.469 52.5329V52.5252Z" stroke="#143773" strokeMiterlimit="10"/>
<path d="M398.172 336.246C-80.9674 370.951 448.847 -247.545 582.833 -0.940249C649.932 122.543 908.702 -84.2761 955.095 47.7907C1001.49 179.857 859.296 205.851 753.031 326.264C620.321 476.642 521.984 327.279 398.172 336.246Z" stroke="#4389D8" strokeWidth="1.03892" strokeMiterlimit="10"/>
<g style="mix-blend-mode:hard-light" opacity="0.94">
<path d="M397.232 343.771C-59.6295 362.845 430.938 -233.704 580.75 -6.47158C655.18 106.423 918.528 -72.0739 954.694 58.7944C990.942 189.588 856.277 224.532 748.554 332.705C614.631 468.148 517.834 338.729 397.228 343.764L397.232 343.771Z" stroke="#43A0D8" strokeWidth="1.03892" strokeMiterlimit="10"/>
</g>
<g style="mix-blend-mode:hard-light" opacity="0.88">
<path d="M396.287 351.29C-37.9764 355.185 412.577 -220.158 578.661 -11.9989C660.195 90.1962 928.34 -59.8638 954.286 69.8021C980.386 199.315 852.908 242.815 744.074 339.156C608.493 459.168 513.799 350.237 396.287 351.29Z" stroke="#43A0D8" strokeWidth="1.03892" strokeMiterlimit="10"/>
</g>
<g style="mix-blend-mode:hard-light" opacity="0.81">
<path d="M395.353 358.811C-16.0269 348.064 393.688 -206.789 576.571 -17.5263C664.934 73.9144 938.163 -47.651 953.878 80.8098C969.833 209.049 849.763 261.282 739.597 345.597C602.652 450.402 509.885 361.799 395.343 358.809L395.353 358.811Z" stroke="#43A0D8" strokeWidth="1.03892" strokeMiterlimit="10"/>
</g>
<g style="mix-blend-mode:hard-light" opacity="0.75">
<path d="M394.412 366.337C6.22101 341.562 374.194 -193.436 574.488 -23.0567C669.374 57.6635 947.988 -35.4479 953.476 91.8144C959.287 218.78 846.683 279.738 735.119 352.038C596.866 441.64 506.089 373.456 394.404 366.324L394.412 366.337Z" stroke="#43A0D8" strokeWidth="1.03892" strokeMiterlimit="10"/>
</g>
<g style="mix-blend-mode:hard-light" opacity="0.69">
<path d="M393.468 373.856C28.7367 335.778 354.123 -179.917 572.402 -28.5773C673.524 41.5288 957.805 -23.231 953.077 102.836C948.738 228.521 843.652 298.229 730.648 358.503C591.16 432.903 502.414 385.241 393.465 373.867L393.468 373.856Z" stroke="#43A0D8" strokeWidth="1.03892" strokeMiterlimit="10"/>
</g>
<g style="mix-blend-mode:hard-light" opacity="0.62">
<path d="M392.527 381.382C51.4798 330.815 333.534 -166.05 570.312 -34.1045C677.419 25.5779 967.623 -11.0248 952.668 113.843C938.179 238.259 840.672 316.717 726.163 364.947C585.509 424.187 498.841 397.154 392.52 381.386L392.527 381.382Z" stroke="#43A0D8" strokeWidth="1.03892" strokeMiterlimit="10"/>
</g>
<g style="mix-blend-mode:hard-light" opacity="0.56">
<path d="M391.582 388.901C74.3804 326.751 312.56 -151.686 568.229 -39.6356C681.149 9.85082 977.442 1.18163 952.267 124.847C927.633 247.99 837.752 335.259 721.697 371.391C579.947 415.528 495.38 409.245 391.586 388.907L391.582 388.901Z" stroke="#43A0D8" strokeWidth="1.03892" strokeMiterlimit="10"/>
</g>
<g style="mix-blend-mode:hard-light" opacity="0.5">
<path d="M390.642 396.426C97.3642 323.676 291.37 -136.754 566.14 -45.1626C684.767 -5.62121 987.265 13.3949 951.86 135.856C917.077 257.717 834.864 353.856 717.214 377.836C574.411 406.944 491.96 421.557 390.642 396.426Z" stroke="#43A0D8" strokeWidth="1.03892" strokeMiterlimit="10"/>
</g>
<g style="mix-blend-mode:hard-light" opacity="0.44">
<path d="M389.702 403.951C120.302 321.645 270.116 -121.237 564.051 -50.6906C688.369 -20.8596 997.084 25.6003 951.452 146.863C906.525 267.451 832.005 372.534 712.734 384.286C568.906 398.458 488.565 434.158 389.696 403.955L389.702 403.951Z" stroke="#43A0D8" strokeWidth="1.03892" strokeMiterlimit="10"/>
</g>
<g style="mix-blend-mode:hard-light" opacity="0.38">
<path d="M388.757 411.47C143.063 320.673 248.932 -105.182 561.967 -56.2212C692.015 -35.8801 1006.9 37.8073 951.05 157.867C895.978 277.182 829.143 391.286 708.256 390.728C563.401 390.054 485.124 447.085 388.757 411.47Z" stroke="#43A0D8" strokeWidth="1.03892" strokeMiterlimit="10"/>
</g>
<g style="mix-blend-mode:hard-light" opacity="0.31">
<path d="M387.816 418.996C165.47 320.755 227.922 -88.6617 559.878 -61.7482C695.732 -50.7348 1016.72 50.0137 950.646 168.882C885.43 286.923 826.253 410.126 703.783 397.175C557.87 381.755 481.551 460.414 387.816 418.996Z" stroke="#43A0D8" strokeWidth="1.03892" strokeMiterlimit="10"/>
</g>
<g style="mix-blend-mode:hard-light" opacity="0.25">
<path d="M386.872 426.515C187.326 321.791 207.135 -71.776 557.788 -67.2751C699.556 -65.4533 1026.53 62.2243 950.238 179.89C874.873 296.651 823.321 429.019 699.303 403.627C552.277 373.521 477.725 474.206 386.876 426.522L386.872 426.515Z" stroke="#43A0D8" strokeWidth="1.03892" strokeMiterlimit="10"/>
</g>
<g style="mix-blend-mode:hard-light" opacity="0.19">
<path d="M385.931 434.041C208.409 323.648 186.616 -54.6156 555.698 -72.8024C703.494 -80.0858 1036.36 74.4371 949.83 190.898C864.314 306.389 820.325 447.957 694.819 410.071C546.619 365.331 473.485 488.492 385.924 434.045L385.931 434.041Z" stroke="#43A0D8" strokeWidth="1.03892" strokeMiterlimit="10"/>
</g>
<g style="mix-blend-mode:hard-light" opacity="0.12">
<path d="M384.99 441.566C228.492 326.073 166.355 -37.2632 553.619 -78.3272C707.557 -94.657 1046.18 86.6392 949.429 201.901C853.768 316.119 817.28 466.916 690.345 416.519C540.895 357.181 468.661 503.318 384.99 441.566Z" stroke="#43A0D8" strokeWidth="1.03892" strokeMiterlimit="10"/>
</g>
<g style="mix-blend-mode:hard-light" opacity="0.06">
<path d="M384.046 449.085C247.333 328.719 146.341 -19.7942 551.525 -83.861C711.724 -109.189 1055.99 98.8496 949.027 212.905C843.218 325.843 814.174 485.882 685.875 422.956C535.107 349.015 463.045 518.626 384.052 449.081L384.046 449.085Z" stroke="#43A0D8" strokeWidth="1.03892" strokeMiterlimit="10"/>
</g>
<path opacity="0.03" d="M385.687 335.604C-81.1656 280.169 473.907 -317.762 605.327 -33.1744C670.687 108.373 955.64 -50.932 980.305 104.585C1005.05 260.023 864.581 277.143 744.727 382.405C595.636 514.377 509.189 350.273 385.695 335.604H385.687Z" stroke="#3D7EE2" strokeWidth="1.03892" strokeMiterlimit="10"/>
<path opacity="0.05" d="M384.031 344.035C-57.9011 275.206 454.089 -305.161 603.717 -39.8404C677.384 90.7938 964.507 -35.3291 978.866 117.076C993.395 269.341 859.393 297.475 739.563 389.001C590.168 503.114 504.157 362.734 384.031 344.027V344.035Z" stroke="#3D7EE2" strokeWidth="1.03892" strokeMiterlimit="10"/>
<path opacity="0.07" d="M382.367 352.459C-34.3717 270.952 433.811 -292.833 602.108 -46.506C683.841 73.1221 973.375 -19.7336 977.427 129.576C981.736 278.668 854.462 318.025 734.399 395.605C585.011 492.132 499.249 375.319 382.367 352.459Z" stroke="#3D7EE2" strokeWidth="1.03892" strokeMiterlimit="10"/>
<path opacity="0.1" d="M380.71 360.89C-10.6173 267.528 412.981 -280.638 600.497 -53.1653C690.016 55.4257 982.249 -4.13176 975.988 142.074C970.077 287.993 849.593 338.574 729.234 402.207C579.924 481.148 494.481 388.028 380.71 360.89Z" stroke="#3D7EE2" strokeWidth="1.03892" strokeMiterlimit="10"/>
<path opacity="0.12" d="M379.044 369.314C13.2998 265.016 391.552 -268.433 598.879 -59.8307C695.872 37.7619 991.108 11.4639 974.548 154.574C958.416 297.327 844.785 359.14 724.068 408.811C574.93 470.181 489.821 400.909 379.044 369.322V369.314Z" stroke="#3D7EE2" strokeWidth="1.03892" strokeMiterlimit="10"/>
<path opacity="0.15" d="M377.388 377.745C37.3114 263.515 369.54 -256.027 597.269 -66.4968C701.45 20.2063 999.983 27.0589 973.11 167.066C946.757 306.645 840.057 379.728 718.904 415.407C570.022 459.252 485.248 413.968 377.388 377.737V377.745Z" stroke="#3D7EE2" strokeWidth="1.03892" strokeMiterlimit="10"/>
<path opacity="0.18" d="M375.723 386.177C61.2989 263.088 347.006 -243.239 595.659 -73.1621C706.777 2.84607 1008.85 42.6547 971.671 179.566C935.098 315.972 835.389 400.388 713.739 422.011C565.192 448.418 480.744 427.285 375.723 386.169V386.177Z" stroke="#3D7EE2" strokeWidth="1.03892" strokeMiterlimit="10"/>
<path opacity="0.2" d="M374.066 394.601C85.1464 263.78 324.076 -229.939 594.048 -79.8205C711.926 -14.2739 1017.72 58.2575 970.239 192.065C923.446 325.297 830.777 421.14 708.582 428.615C560.423 437.684 476.248 440.865 374.066 394.601Z" stroke="#3D7EE2" strokeWidth="1.03892" strokeMiterlimit="10"/>
<path opacity="0.23" d="M372.402 403.032C108.714 265.599 300.905 -216.032 592.438 -86.4867C716.982 -31.1451 1026.59 73.8523 968.8 204.564C911.786 334.631 826.164 441.985 703.425 435.218C555.671 427.074 471.698 454.78 372.417 403.032H372.402Z" stroke="#3D7EE2" strokeWidth="1.03892" strokeMiterlimit="10"/>
<path opacity="0.25" d="M370.745 411.455C131.847 268.501 277.656 -201.503 590.821 -93.1528C721.999 -47.7672 1035.45 89.4473 967.354 217.056C900.119 343.949 821.513 462.924 698.253 441.814C550.864 416.574 466.992 469.045 370.745 411.455Z" stroke="#3D7EE2" strokeWidth="1.03892" strokeMiterlimit="10"/>
<path opacity="0.28" d="M369.081 419.888C154.357 272.398 254.477 -186.389 589.211 -99.81C727.071 -64.1549 1044.32 105.051 965.915 229.564C888.46 353.284 816.823 483.964 693.088 448.426C546.011 406.191 462.045 483.739 369.081 419.888Z" stroke="#3D7EE2" strokeWidth="1.03892" strokeMiterlimit="10"/>
<path opacity="0.3" d="M367.425 428.319C176.074 277.135 231.47 -170.771 587.601 -106.476C732.228 -80.3652 1053.19 120.646 964.484 242.063C876.809 362.609 812.071 505.05 687.932 455.029C541.08 395.861 456.71 498.859 367.432 428.319H367.425Z" stroke="#3D7EE2" strokeWidth="1.03892" strokeMiterlimit="10"/>
<path opacity="0.33" d="M365.759 436.742C196.825 282.478 208.702 -154.741 585.99 -113.143C737.493 -96.4354 1062.06 136.241 963.044 254.554C865.148 371.927 807.232 526.16 682.766 461.624C536.046 385.554 450.829 514.415 365.767 436.742H365.759Z" stroke="#3D7EE2" strokeWidth="1.03892" strokeMiterlimit="10"/>
<path opacity="0.35" d="M364.103 445.175C216.442 288.118 186.224 -138.413 584.38 -119.808C742.892 -112.403 1070.94 151.837 961.606 267.055C853.482 381.262 802.325 547.286 677.602 468.229C530.929 375.265 444.226 530.384 364.103 445.175Z" stroke="#3D7EE2" strokeWidth="1.03892" strokeMiterlimit="10"/>
<path opacity="0.38" d="M362.438 453.598C234.814 293.702 164.025 -121.869 582.762 -126.466C748.414 -128.286 1079.79 167.439 960.159 279.554C841.814 390.587 797.346 568.396 672.429 474.832C525.733 364.958 436.727 546.687 362.438 453.606V453.598Z" stroke="#3D7EE2" strokeWidth="1.03892" strokeMiterlimit="10"/>
<path opacity="0.4" d="M360.782 462.029C251.872 298.804 142.114 -105.193 581.152 -133.132C754.069 -144.139 1088.66 183.034 958.728 292.053C830.163 399.913 792.337 589.49 667.272 481.436C520.491 354.621 428.249 563.161 360.782 462.029Z" stroke="#3D7EE2" strokeWidth="1.03892" strokeMiterlimit="10"/>
<path opacity="0.04" d="M91.3018 62.9027C-415.712 -703.124 1199.23 -702.595 931.969 -118.073C798.995 172.76 1403.09 375.618 1197.26 625.356C991.65 875.141 787.486 690.873 475.061 658.023C84.8662 618.547 225.553 265.752 91.3018 62.9027Z" stroke="#143773" strokeMiterlimit="10"/>
<path opacity="0.07" d="M76.3514 72.0011C-378.437 -675.105 1154.84 -714.447 940.099 -129.614C834.261 158.65 1390.57 410.094 1176.39 640.35C962.65 870.651 749.852 711.082 458.44 659.415C95.0172 594.993 200.215 275.508 76.3331 71.9877L76.3514 72.0011Z" stroke="#143773" strokeMiterlimit="10"/>
<path opacity="0.11" d="M61.3913 81.1134C-341.976 -645.67 1110.26 -727.228 948.205 -141.123C869.349 144.094 1378.01 444.62 1155.51 655.39C933.649 866.238 712.248 731.978 441.833 660.866C105.208 572.303 174.913 285.676 61.3779 81.1317L61.3913 81.1134Z" stroke="#143773" strokeMiterlimit="10"/>
<path opacity="0.15" d="M46.4401 90.2114C-306.509 -614.769 1065.24 -741.024 956.32 -152.647C904.165 129.065 1365.47 479.114 1134.62 670.402C904.653 861.78 674.748 752.959 425.216 662.289C115.509 549.729 149.552 296.229 46.4267 90.2297L46.4401 90.2114Z" stroke="#143773" strokeMiterlimit="10"/>
<path opacity="0.19" d="M31.4924 99.3065C-272.312 -582.363 1019.53 -755.702 964.452 -164.191C938.595 113.607 1352.94 513.605 1113.76 685.374C875.674 857.299 637.33 774.022 408.643 663.654C125.973 527.24 124.13 307.096 31.5058 99.2883L31.4924 99.3065Z" stroke="#143773" strokeMiterlimit="10"/>
<path opacity="0.23" d="M16.5293 108.421C-239.608 -548.497 972.8 -770.983 972.574 -175.685C972.469 97.9113 1340.41 548.128 1092.9 700.429C846.671 852.888 599.98 795.334 392.033 665.107C136.433 505.061 98.4437 318.474 16.5609 108.416L16.5293 108.421Z" stroke="#143773" strokeMiterlimit="10"/>
<path opacity="0.26" d="M1.56288 117.503C-208.652 -513.278 924.859 -786.678 980.674 -187.224C1005.75 82.0001 1327.86 582.638 1071.99 715.425C817.659 848.414 562.57 816.768 375.402 666.515C146.861 483.08 72.4553 330.189 1.58114 117.516L1.56288 117.503Z" stroke="#143773" strokeMiterlimit="10"/>
<path opacity="0.3" d="M-13.4005 126.618C-179.627 -476.807 875.658 -802.34 988.777 -198.731C1038.43 66.1327 1315.32 617.148 1051.09 730.454C788.638 843.99 525.097 838.439 358.773 667.955C157.182 461.36 46.0125 342.331 -13.3956 126.649L-13.4005 126.618Z" stroke="#143773" strokeMiterlimit="10"/>
<path opacity="0.34" d="M-28.3486 135.712C-152.703 -439.383 825.201 -817.665 996.908 -210.276C1070.6 50.3909 1302.78 651.639 1030.24 745.458C759.676 839.523 487.514 860.223 342.173 669.356C167.365 439.788 19.0133 354.735 -28.3486 135.712Z" stroke="#143773" strokeMiterlimit="10"/>
<path opacity="0.38" d="M-43.3099 144.828C-128.02 -401.272 773.633 -832.315 1005.01 -221.782C1102.31 34.9323 1290.24 686.15 1009.35 760.469C730.652 835.068 449.706 882.125 325.559 670.779C177.279 418.358 -8.78363 367.426 -43.3099 144.828Z" stroke="#143773" strokeMiterlimit="10"/>
<path opacity="0.41" d="M-58.2583 153.922C-105.61 -362.895 721.223 -846.126 1013.13 -233.309C1133.72 19.8407 1277.69 720.658 988.469 775.477C701.658 830.605 411.69 904.039 308.946 672.198C186.966 396.927 -37.5211 380.21 -58.2583 153.922Z" stroke="#143773" strokeMiterlimit="10"/>
<path opacity="0.45" d="M-73.2228 163.037C-85.4504 -324.705 668.196 -858.982 1021.25 -244.833C1164.94 5.12022 1265.15 755.151 967.58 790.488C672.649 826.164 373.471 925.922 292.311 673.607C196.414 375.438 -67.4839 392.941 -73.2411 163.024L-73.2228 163.037Z" stroke="#143773" strokeMiterlimit="10"/>
<path opacity="0.49" d="M-88.1698 172.132C-67.3488 -287.301 614.829 -870.914 1029.37 -256.36C1196.06 -9.23043 1252.61 789.659 946.714 805.51C643.675 821.715 335.129 947.709 275.717 675.04C205.725 353.871 -98.7486 405.386 -88.1832 172.15L-88.1698 172.132Z" stroke="#143773" strokeMiterlimit="10"/>
<path opacity="0.53" d="M-103.133 181.248C-51.088 -251.212 561.325 -881.931 1037.47 -267.865C1227.19 -23.2061 1240.08 824.185 925.814 820.541C614.635 817.279 296.67 969.388 259.088 676.482C214.914 332.164 -131.543 417.276 -103.147 181.267L-103.133 181.248Z" stroke="#143773" strokeMiterlimit="10"/>
<path opacity="0.56" d="M-118.082 190.342C-36.2136 -217.1 507.87 -892.215 1045.6 -279.411C1258.39 -36.9071 1227.54 858.675 904.954 835.512C585.655 812.798 258.192 990.936 242.496 677.833C224.057 310.25 -165.88 428.169 -118.087 190.31L-118.082 190.342Z" stroke="#143773" strokeMiterlimit="10"/>
<path opacity="0.6" d="M-133.031 199.44C-22.2067 -185.473 454.595 -901.86 1053.72 -290.935C1289.67 -50.3243 1215 893.186 884.087 850.537C556.679 808.352 219.687 1012.41 225.9 679.269C233.177 288.294 -201.691 437.9 -133.017 199.421L-133.031 199.44Z" stroke="#143773" strokeMiterlimit="10"/>
<path d="M898.84 -443.511C2137.7 -1089.77 1438.11 1173.34 795.528 669.897C473.744 417.814 21.9809 1268.87 -254.449 969.947C-530.879 671.028 -181.364 437.351 -36.8439 -6.84884C143.642 -561.588 578.712 -276.519 898.84 -443.511Z" stroke="#5FC0FA" strokeWidth="1.03892" strokeMiterlimit="10"/>
<g style="mix-blend-mode:hard-light" opacity="0.94">
<path d="M892.654 -464.685C2090.11 -1043.47 1469.92 1115.7 807.477 682.255C478.359 466.907 -18.3467 1247.65 -266.094 940.112C-513.974 632.871 -194.893 383.996 -32.3365 -29.2136C168.645 -545.491 576.56 -311.877 892.672 -464.672L892.654 -464.685Z" stroke="#5FC0FA" strokeWidth="1.03892" strokeMiterlimit="10"/>
</g>
<g style="mix-blend-mode:hard-light" opacity="0.88">
<path d="M886.486 -485.844C2041.16 -998.009 1503.28 1058.33 819.439 694.596C483.722 516.016 -58.6477 1226.39 -277.725 910.259C-497.037 594.71 -207.025 331.302 -27.834 -51.6083C195.403 -528.61 574.033 -347.256 886.486 -485.844Z" stroke="#5FC0FA" strokeWidth="1.03892" strokeMiterlimit="10"/>
</g>
<g style="mix-blend-mode:hard-light" opacity="0.81">
<path d="M880.288 -507.002C1990.79 -953.641 1538.25 1000.82 831.403 706.934C489.885 564.951 -98.979 1205.14 -289.356 880.404C-480.117 556.533 -219.968 278.375 -23.3253 -73.9744C221.123 -511.961 571.118 -382.643 880.32 -507.007L880.288 -507.002Z" stroke="#5FC0FA" strokeWidth="1.03892" strokeMiterlimit="10"/>
</g>
<g style="mix-blend-mode:hard-light" opacity="0.75">
<path d="M874.105 -528.178C1938.92 -910.579 1574.86 942.652 843.355 719.289C496.809 613.46 -139.304 1183.92 -300.998 850.566C-463.209 518.372 -233.072 225.551 -18.8152 -96.342C246.692 -495.257 567.783 -418.145 874.141 -528.152L874.105 -528.178Z" stroke="#5FC0FA" strokeWidth="1.03892" strokeMiterlimit="10"/>
</g>
<g style="mix-blend-mode:hard-light" opacity="0.69">
<path d="M867.94 -549.339C1885.51 -869.123 1612.81 883.374 855.303 731.615C504.379 661.323 -179.62 1162.65 -312.663 820.684C-446.305 480.183 -246.343 172.691 -14.3462 -118.765C272.021 -478.53 563.979 -453.847 867.935 -549.371L867.94 -549.339Z" stroke="#5FC0FA" strokeWidth="1.03892" strokeMiterlimit="10"/>
</g>
<g style="mix-blend-mode:hard-light" opacity="0.62">
<path d="M861.756 -570.514C1830.53 -829.596 1651.75 822.57 867.267 743.955C512.409 708.402 -219.932 1141.42 -324.292 790.83C-429.371 441.988 -259.751 119.9 -9.82325 -141.149C297.173 -461.792 559.751 -489.775 861.769 -570.532L861.756 -570.514Z" stroke="#5FC0FA" strokeWidth="1.03892" strokeMiterlimit="10"/>
</g>
<g style="mix-blend-mode:hard-light" opacity="0.56">
<path d="M855.588 -591.676C1774.1 -792.29 1691.14 759.995 879.217 756.311C520.625 754.69 -260.247 1120.18 -335.937 760.993C-412.465 403.829 -273.383 67.0295 -5.3475 -163.51C322.024 -445.107 555.016 -526.048 855.57 -591.689L855.588 -591.676Z" stroke="#5FC0FA" strokeWidth="1.03892" strokeMiterlimit="10"/>
</g>
<g style="mix-blend-mode:hard-light" opacity="0.5">
<path d="M849.402 -612.85C1716.3 -757.524 1730.45 695.653 891.18 768.651C528.845 800.17 -300.579 1098.93 -347.568 731.139C-395.528 365.667 -287.16 14.0531 -0.82631 -185.893C346.72 -428.59 549.921 -562.863 849.402 -612.85Z" stroke="#5FC0FA" strokeWidth="1.03892" strokeMiterlimit="10"/>
</g>
<g style="mix-blend-mode:hard-light" opacity="0.44">
<path d="M843.217 -634.021C1657.42 -725.6 1769.25 629.675 903.144 780.993C536.838 845.008 -340.892 1077.7 -359.198 701.288C-378.608 327.494 -301.11 -39.1047 3.6777 -208.287C371.219 -412.3 544.422 -600.423 843.231 -634.04L843.217 -634.021Z" stroke="#5FC0FA" strokeWidth="1.03892" strokeMiterlimit="10"/>
</g>
<g style="mix-blend-mode:hard-light" opacity="0.38">
<path d="M837.052 -655.184C1597.79 -696.705 1807.25 562.345 915.095 793.349C544.459 889.315 -381.204 1056.46 -370.841 671.45C-361.7 289.334 -315.139 -92.4652 8.18712 -230.654C395.622 -396.226 538.67 -638.902 837.052 -655.184Z" stroke="#5FC0FA" strokeWidth="1.03892" strokeMiterlimit="10"/>
</g>
<g style="mix-blend-mode:hard-light" opacity="0.31">
<path d="M830.868 -676.361C1537.88 -671.037 1844.24 493.971 927.06 805.687C551.701 933.26 -421.516 1035.22 -382.488 641.58C-344.798 251.142 -329.193 -146.097 12.6785 -253.034C419.976 -380.468 532.809 -678.612 830.868 -676.361Z" stroke="#5FC0FA" strokeWidth="1.03892" strokeMiterlimit="10"/>
</g>
<g style="mix-blend-mode:hard-light" opacity="0.25">
<path d="M824.702 -697.523C1478.35 -648.55 1880.22 424.879 939.024 818.024C558.501 976.966 -461.815 1013.96 -394.118 611.724C-327.859 212.978 -343.195 -199.915 17.1829 -275.432C444.423 -364.951 527.086 -719.848 824.684 -697.537L824.702 -697.523Z" stroke="#5FC0FA" strokeWidth="1.03892" strokeMiterlimit="10"/>
</g>
<g style="mix-blend-mode:hard-light" opacity="0.19">
<path d="M818.515 -718.696C1419.92 -629.143 1915.16 355.367 950.987 830.365C564.895 1020.58 -502.148 992.713 -405.75 581.872C-310.927 174.785 -357.084 -253.925 21.7035 -297.814C468.983 -349.626 521.893 -762.878 818.529 -718.714L818.515 -718.696Z" stroke="#5FC0FA" strokeWidth="1.03892" strokeMiterlimit="10"/>
</g>
<g style="mix-blend-mode:hard-light" opacity="0.12">
<path d="M812.332 -739.871C1363.52 -612.412 1949.19 285.637 962.92 842.709C570.885 1064.16 -542.473 971.494 -417.392 552.035C-294.019 136.627 -370.858 -308.052 26.195 -320.193C493.68 -334.485 517.64 -808.029 812.332 -739.871Z" stroke="#5FC0FA" strokeWidth="1.03892" strokeMiterlimit="10"/>
</g>
<g style="mix-blend-mode:hard-light" opacity="0.06">
<path d="M806.167 -761.032C1310.17 -597.704 1982.43 215.883 974.904 855.061C576.553 1107.77 -582.772 950.238 -429.034 522.199C-277.092 98.4817 -384.483 -362.266 30.6919 -342.54C518.566 -319.375 514.943 -855.377 806.154 -761.014L806.167 -761.032Z" stroke="#5FC0FA" strokeWidth="1.03892" strokeMiterlimit="10"/>
</g>
<path opacity="0.03" d="M1275.16 211.243C2274.72 1144.4 -55.7498 1591.83 125.613 698.294C215.831 253.879 -726.533 137.286 -516.839 -269.882C-307.48 -677.014 51.428 -475.504 513.609 -516.189C1090.31 -569.219 1010.75 -35.626 1275.14 211.229L1275.16 211.243Z" stroke="#3D7EE2" strokeWidth="1.03892" strokeMiterlimit="10"/>
<path opacity="0.05" d="M1293.55 194.319C2211.61 1116.01 12.408 1596.37 117.921 716.698C169.882 283.587 -720.488 85.4384 -491.975 -296.703C-264.105 -678.81 98.5729 -514.264 537.068 -522.773C1083.76 -533.397 1043.98 -56.1923 1293.54 194.337L1293.55 194.319Z" stroke="#3D7EE2" strokeWidth="1.03892" strokeMiterlimit="10"/>
<path opacity="0.07" d="M1311.95 177.425C2149.11 1085.51 81.1748 1602.34 110.23 735.101C124.34 313.926 -714.455 33.6074 -467.097 -323.543C-220.716 -680.625 145.491 -553.977 560.542 -529.377C1076.96 -498.768 1077.15 -77.2657 1311.95 177.425Z" stroke="#3D7EE2" strokeWidth="1.03892" strokeMiterlimit="10"/>
<path opacity="0.1" d="M1330.34 160.504C2087.51 1052.68 151.008 1609.58 102.55 753.49C79.4119 344.807 -708.428 -18.2504 -442.22 -350.379C-177.328 -682.435 192.262 -593.793 584.014 -535.976C1070 -464.255 1110.19 -98.8673 1330.34 160.504Z" stroke="#3D7EE2" strokeWidth="1.03892" strokeMiterlimit="10"/>
<path opacity="0.12" d="M1348.73 143.61C2027.1 1017.42 222.261 1617.82 94.8781 771.905C35.2883 376.158 -702.376 -70.0686 -417.341 -377.221C-133.924 -684.269 238.916 -633.758 607.488 -542.58C1062.84 -429.944 1143.28 -121.063 1348.75 143.592L1348.73 143.61Z" stroke="#3D7EE2" strokeWidth="1.03892" strokeMiterlimit="10"/>
<path opacity="0.15" d="M1367.12 126.687C1968.2 979.638 295.229 1626.59 87.1861 790.31C-7.99314 407.737 -696.362 -121.911 -392.477 -404.041C-90.5494 -686.065 285.427 -673.909 630.948 -549.163C1055.55 -395.869 1176.47 -143.823 1367.11 126.705L1367.12 126.687Z" stroke="#3D7EE2" strokeWidth="1.03892" strokeMiterlimit="10"/>
<path opacity="0.18" d="M1385.53 109.774C1911.2 939.373 370.077 1635.36 79.4969 808.712C-50.3534 439.287 -690.328 -173.743 -367.597 -430.883C-47.1583 -687.88 331.914 -714.333 654.423 -555.767C1048.24 -362.149 1209.94 -167.307 1385.52 109.792L1385.53 109.774Z" stroke="#3D7EE2" strokeWidth="1.03892" strokeMiterlimit="10"/>
<path opacity="0.2" d="M1403.91 92.8683C1856.46 896.724 446.736 1643.62 71.8172 827.098C-91.8831 470.58 -684.283 -225.591 -342.738 -457.736C-3.78913 -689.708 378.431 -755.068 677.877 -562.383C1040.96 -328.772 1243.85 -191.423 1403.91 92.8683Z" stroke="#3D7EE2" strokeWidth="1.03892" strokeMiterlimit="10"/>
<path opacity="0.23" d="M1422.32 75.958C1804.32 851.911 525.004 1650.86 64.1253 845.502C-132.765 501.451 -678.269 -277.434 -317.861 -484.575C39.6129 -691.54 425.109 -796.022 701.331 -568.998C1033.85 -295.713 1278.46 -216.23 1422.28 75.9312L1422.32 75.958Z" stroke="#3D7EE2" strokeWidth="1.03892" strokeMiterlimit="10"/>
<path opacity="0.25" d="M1440.69 59.0517C1755.06 805.312 604.526 1656.78 56.4524 863.919C-173.126 531.804 -672.218 -329.25 -292.977 -511.383C83.0072 -693.322 472.04 -837.128 724.81 -575.569C1027.06 -262.816 1314.04 -241.591 1440.69 59.0517Z" stroke="#3D7EE2" strokeWidth="1.03892" strokeMiterlimit="10"/>
<path opacity="0.28" d="M1459.1 42.1391C1708.97 757.446 684.888 1661.21 48.7749 882.303C-213.213 561.515 -666.171 -381.1 -268.085 -538.243C126.41 -695.156 519.236 -878.406 748.297 -582.192C1020.58 -230.114 1350.92 -267.542 1459.1 42.1391Z" stroke="#3D7EE2" strokeWidth="1.03892" strokeMiterlimit="10"/>
<path opacity="0.3" d="M1477.49 25.2163C1666.19 708.979 765.717 1664.16 41.0826 900.708C-253.195 590.662 -660.158 -432.942 -243.226 -565.094C169.78 -696.983 566.657 -919.684 771.751 -588.806C1014.38 -197.403 1389.44 -293.824 1477.47 25.203L1477.49 25.2163Z" stroke="#3D7EE2" strokeWidth="1.03892" strokeMiterlimit="10"/>
<path opacity="0.33" d="M1495.89 8.32464C1626.71 660.747 846.692 1665.73 33.3924 919.113C-293.189 619.293 -654.124 -484.771 -218.361 -591.915C213.157 -698.777 614.321 -960.869 795.212 -595.389C1008.45 -164.573 1430 -320.191 1495.87 8.31125L1495.89 8.32464Z" stroke="#3D7EE2" strokeWidth="1.03892" strokeMiterlimit="10"/>
<path opacity="0.35" d="M1514.28 -8.60237C1590.4 613.772 927.5 1666.11 25.7017 937.513C-333.32 647.455 -648.109 -536.617 -193.482 -618.757C256.578 -700.599 662.175 -1001.97 818.686 -601.995C1002.75 -131.637 1472.96 -346.285 1514.28 -8.60237Z" stroke="#3D7EE2" strokeWidth="1.03892" strokeMiterlimit="10"/>
<path opacity="0.38" d="M1532.68 -25.4938C1556.92 569.069 1008.02 1665.5 18.0417 955.914C-373.596 675.207 -642.045 -588.451 -168.586 -645.582C299.985 -702.399 710.167 -1042.92 842.178 -608.583C997.207 -98.5257 1518.59 -371.62 1532.69 -25.5121L1532.68 -25.4938Z" stroke="#3D7EE2" strokeWidth="1.03892" strokeMiterlimit="10"/>
<path opacity="0.4" d="M1551.07 -42.4187C1525.69 527.757 1088.1 1664.08 10.3495 974.317C-414.129 702.656 -636.013 -640.282 -143.727 -672.436C343.355 -704.227 758.203 -1083.77 865.632 -615.199C991.719 -65.2632 1566.81 -395.672 1551.07 -42.4187Z" stroke="#3D7EE2" strokeWidth="1.03892" strokeMiterlimit="10"/>
</g>
<defs>
<linearGradient id="paint0_linear_620_388" x1="-37.5" y1="-53.8008" x2="1432.5" y2="473.699" gradientUnits="userSpaceOnUse">
<stop stop-color="#212121"/>
<stop offset="0.596154" stop-color="#121212"/>
<stop offset="1" stop-color="#212121"/>
</linearGradient>
</defs>
</svg>
