<svg width="199" height="49" viewBox="0 0 199 49" fill="none" xmlns="http://www.w3.org/2000/svg">
<path d="M96.2738 9.35129H80.6867V47.5025H71.0829V9.35129H55.4382V0.871094H96.2738V9.35129Z" fill="#212121"/>
<path d="M139.693 9.35129H119.429V19.4497H137.013V27.7426H119.429V38.9599H139.755V47.5025H109.767V0.871094H139.693V9.35129Z" fill="#212121"/>
<path d="M191.054 4.98673C195.169 8.16561 197.661 12.5306 198.473 17.9519L188.437 18.8259C187.126 12.3433 182.516 8.72743 176.029 8.72743C171.914 8.72743 168.61 10.1632 166.118 12.9675C163.688 15.7718 162.439 19.5125 162.439 24.1896C162.439 29.1164 163.688 32.9195 166.243 35.599C168.797 38.2785 172.101 39.6518 176.091 39.6518C182.574 39.6518 187.188 36.1608 188.437 29.7406L198.535 30.6146C197.661 36.0408 195.169 40.2761 191.116 43.4597C187.064 46.6386 182.137 48.1992 176.403 48.1992C169.421 48.1992 163.683 46.0191 159.261 41.7166C154.833 37.4141 152.653 31.5558 152.653 24.1992C152.653 16.8427 154.833 10.9843 159.261 6.68181C163.688 2.37929 169.359 0.199219 176.341 0.199219C182.079 0.199219 187.001 1.82227 191.054 5.00114" fill="#212121"/>
<path d="M46.6315 24.1844C46.6315 37.0632 36.1921 47.5025 23.3133 47.5025H0V38.1772H11.6591V32.3477H20.9844V38.1772H23.3181C31.0444 38.1772 37.3061 31.9155 37.3061 24.1892C37.3061 16.4629 31.0444 10.2012 23.3181 10.2012H20.9844V16.0308H11.6591V10.2012H0V0.871094H23.3181C36.1969 0.871094 46.6363 11.3105 46.6363 24.1892" fill="#212121"/>
<path d="M30.3097 19.5225H0V28.8478H30.3097V19.5225Z" fill="#212121"/>
</svg>
