<svg width="242" height="130" viewBox="0 0 242 130" fill="none" xmlns="http://www.w3.org/2000/svg">
<path d="M128.227 28.0783C127.121 29.8379 125.456 30.7196 123.234 30.7196C120.279 30.7196 118.257 29.3725 117.179 26.688C116.602 25.2583 116.309 23.4006 116.309 21.1069C116.309 17.9373 117.01 15.6613 118.426 14.2808C119.831 12.8963 121.473 12.207 123.346 12.207C125.495 12.207 127.121 13.0534 128.227 14.7344C129.329 16.4193 129.881 18.5402 129.881 21.1069C129.881 23.9917 129.329 26.3168 128.227 28.0783ZM123.826 8.54258C122.366 8.54258 121.009 8.84894 119.76 9.4636C118.511 10.0783 117.433 10.9698 116.537 12.1383V0.000118256H112.55V33.5651H116.331V30.4427C117.197 31.6151 118.018 32.4615 118.778 32.9956C120.061 33.8872 121.63 34.3389 123.486 34.3389C126.809 34.3389 129.412 33.0624 131.281 30.5134C133.159 27.9644 134.1 24.7595 134.1 20.9066C134.1 16.8356 133.147 13.7564 131.252 11.6709C129.353 9.58339 126.88 8.54258 123.826 8.54258Z" fill="#FAFAFA"/>
<path d="M143.794 2.37057H139.654V9.17901H136.348V12.5273H139.654V28.6656C139.654 30.2328 139.992 31.5014 140.679 32.4813C141.366 33.4632 142.657 33.9502 144.572 33.9502C145.165 33.9502 145.713 33.9168 146.228 33.8599C146.732 33.797 147.219 33.6988 147.689 33.5653V30.3074C147.386 30.3466 147.117 30.3741 146.897 30.382C146.666 30.3938 146.455 30.3957 146.257 30.3957C145.515 30.3957 144.98 30.3133 144.662 30.1483C144.083 29.8596 143.794 29.2882 143.794 28.4379V12.5273H147.689V9.17901H143.794V2.37057Z" fill="#FAFAFA"/>
<path d="M183.655 12.1837C182.468 9.81738 180.233 8.62928 176.957 8.62928C175.423 8.62928 174.038 8.94742 172.811 9.57583C171.585 10.2062 170.511 11.1724 169.601 12.4783C169.055 11.4159 168.445 10.6147 167.779 10.0668C166.596 9.11041 165.027 8.62928 163.087 8.62928C161.37 8.62928 159.838 9.0947 158.489 10.0196C157.699 10.5695 156.817 11.4395 155.843 12.6374V9.17915H151.793V33.5654H155.894V20.63C155.894 17.486 156.521 15.3179 157.789 14.1181C159.062 12.9202 160.466 12.3192 162.016 12.3192C163.717 12.3192 164.876 12.8868 165.498 14.0258C165.895 14.7858 166.092 15.9935 166.092 17.645V33.5654H170.263V19.3751C170.263 16.8595 170.839 15.0568 172.002 13.9806C173.162 12.9025 174.547 12.3664 176.16 12.3664C177.33 12.3664 178.318 12.6688 179.131 13.2776C179.94 13.8824 180.351 14.9998 180.351 16.6219V33.5654H184.607V17.3289C184.607 15.1726 184.289 13.4563 183.655 12.1837Z" fill="#FAFAFA"/>
<path d="M112.533 129.232H114.095V117.823H112.533V129.232Z" fill="#FAFAFA"/>
<path d="M117.865 127.408C118.242 128.011 118.847 128.31 119.674 128.31C120.318 128.31 120.848 128.029 121.263 127.473C121.677 126.917 121.885 126.12 121.885 125.077C121.885 124.025 121.671 123.247 121.243 122.746C120.815 122.24 120.289 121.986 119.66 121.986C118.959 121.986 118.391 122.255 117.953 122.795C117.519 123.334 117.303 124.127 117.303 125.17C117.303 126.059 117.492 126.807 117.865 127.408ZM120.986 121.173C121.235 121.325 121.516 121.598 121.83 121.986V117.786H123.176V129.233H121.917V128.078C121.591 128.587 121.208 128.96 120.762 129.186C120.32 129.415 119.811 129.529 119.238 129.529C118.317 129.529 117.515 129.139 116.842 128.361C116.164 127.579 115.826 126.544 115.826 125.246C115.826 124.037 116.135 122.992 116.753 122.1C117.368 121.213 118.246 120.769 119.395 120.769C120.029 120.769 120.56 120.904 120.986 121.173Z" fill="#FAFAFA"/>
<path d="M130.901 124.411C130.846 123.804 130.714 123.321 130.512 122.96C130.129 122.288 129.497 121.949 128.609 121.949C127.971 121.949 127.436 122.182 127.004 122.646C126.572 123.109 126.342 123.696 126.319 124.411H130.901ZM130.402 121.147C130.952 121.424 131.372 121.782 131.659 122.222C131.934 122.642 132.123 123.129 132.217 123.689C132.298 124.071 132.341 124.684 132.341 125.521H126.289C126.317 126.369 126.511 127.047 126.884 127.557C127.25 128.07 127.827 128.325 128.601 128.325C129.324 128.325 129.905 128.083 130.337 127.598C130.579 127.318 130.748 126.994 130.846 126.622H132.225C132.186 126.929 132.064 127.27 131.862 127.644C131.659 128.023 131.429 128.329 131.178 128.563C130.756 128.981 130.235 129.26 129.613 129.403C129.279 129.486 128.9 129.529 128.481 129.529C127.448 129.529 126.576 129.15 125.861 128.4C125.148 127.644 124.791 126.591 124.791 125.232C124.791 123.897 125.152 122.817 125.871 121.98C126.594 121.147 127.535 120.731 128.697 120.731C129.283 120.731 129.85 120.87 130.402 121.147Z" fill="#FAFAFA"/>
<path d="M135.625 127.976C135.922 128.208 136.267 128.326 136.672 128.326C137.161 128.326 137.64 128.212 138.1 127.984C138.88 127.607 139.267 126.986 139.267 126.132V125.007C139.098 125.115 138.88 125.205 138.611 125.28C138.338 125.352 138.078 125.403 137.821 125.435L136.973 125.545C136.466 125.61 136.085 125.72 135.831 125.859C135.395 126.105 135.181 126.493 135.181 127.024C135.181 127.428 135.331 127.742 135.625 127.976ZM138.567 124.2C138.891 124.16 139.106 124.021 139.214 123.797C139.274 123.673 139.308 123.493 139.308 123.259C139.308 122.78 139.135 122.434 138.797 122.216C138.457 122.002 137.976 121.894 137.346 121.894C136.617 121.894 136.1 122.093 135.796 122.489C135.625 122.707 135.513 123.029 135.462 123.461H134.158C134.182 122.434 134.511 121.717 135.156 121.317C135.792 120.916 136.533 120.716 137.377 120.716C138.355 120.716 139.147 120.901 139.758 121.272C140.361 121.645 140.665 122.224 140.665 123.016V127.803C140.665 127.949 140.696 128.064 140.753 128.155C140.814 128.245 140.938 128.286 141.132 128.286C141.195 128.286 141.264 128.282 141.343 128.275C141.421 128.267 141.502 128.257 141.592 128.241V129.272C141.372 129.333 141.207 129.372 141.093 129.39C140.977 129.404 140.822 129.412 140.626 129.412C140.145 129.412 139.799 129.241 139.581 128.899C139.463 128.718 139.384 128.463 139.337 128.131C139.049 128.5 138.646 128.828 138.108 129.099C137.575 129.376 136.992 129.512 136.346 129.512C135.574 129.512 134.944 129.28 134.455 128.813C133.967 128.345 133.722 127.758 133.722 127.053C133.722 126.283 133.964 125.688 134.443 125.264C134.926 124.838 135.554 124.581 136.338 124.479L138.567 124.2Z" fill="#FAFAFA"/>
<path d="M147.654 118.594H149.067V120.918H150.398V122.058H149.067V127.484C149.067 127.777 149.169 127.971 149.363 128.07C149.473 128.127 149.656 128.154 149.907 128.154C149.974 128.154 150.049 128.15 150.127 128.15C150.204 128.146 150.294 128.134 150.398 128.125V129.232C150.233 129.279 150.068 129.315 149.897 129.334C149.721 129.354 149.534 129.364 149.332 129.364C148.682 129.364 148.238 129.197 148.006 128.863C147.772 128.529 147.654 128.097 147.654 127.563V122.058H146.531V120.918H147.654V118.594Z" fill="#FAFAFA"/>
<path d="M156.953 127.274C157.295 126.575 157.467 125.794 157.467 124.934C157.467 124.16 157.34 123.529 157.096 123.042C156.707 122.275 156.034 121.896 155.083 121.896C154.24 121.896 153.626 122.222 153.243 122.876C152.86 123.526 152.663 124.309 152.663 125.228C152.663 126.116 152.86 126.85 153.243 127.443C153.626 128.03 154.233 128.325 155.069 128.325C155.985 128.325 156.613 127.975 156.953 127.274ZM157.821 121.746C158.559 122.463 158.925 123.51 158.925 124.894C158.925 126.238 158.601 127.345 157.953 128.215C157.306 129.093 156.299 129.529 154.938 129.529C153.801 129.529 152.901 129.142 152.231 128.37C151.561 127.594 151.228 126.56 151.228 125.254C151.228 123.859 151.577 122.746 152.286 121.915C152.989 121.088 153.936 120.676 155.122 120.676C156.185 120.676 157.084 121.033 157.821 121.746Z" fill="#FAFAFA"/>
<path d="M170.088 127.913C171.044 127.913 171.726 127.636 172.134 127.088C172.386 126.74 172.515 126.324 172.515 125.829C172.515 125.002 172.144 124.439 171.396 124.138C170.997 123.979 170.473 123.897 169.819 123.897H166.725V127.913H170.088ZM169.561 122.648C170.223 122.648 170.738 122.558 171.103 122.377C171.679 122.092 171.967 121.578 171.967 120.839C171.967 120.093 171.659 119.59 171.048 119.333C170.703 119.19 170.188 119.117 169.508 119.117H166.725V122.648H169.561ZM165.207 117.823H170.141C171.484 117.823 172.443 118.223 173.01 119.023C173.346 119.494 173.511 120.038 173.511 120.653C173.511 121.371 173.305 121.964 172.896 122.422C172.686 122.667 172.38 122.889 171.983 123.088C172.566 123.314 173.006 123.563 173.293 123.844C173.808 124.343 174.061 125.026 174.061 125.904C174.061 126.638 173.831 127.302 173.368 127.897C172.675 128.789 171.571 129.232 170.06 129.232H165.207V117.823Z" fill="#FAFAFA"/>
<path d="M177.069 120.917V126.439C177.069 126.861 177.135 127.209 177.263 127.478C177.508 127.977 177.956 128.226 178.618 128.226C179.567 128.226 180.215 127.788 180.555 126.918C180.743 126.453 180.836 125.813 180.836 124.998V120.917H182.234V129.232H180.914L180.93 128.006C180.751 128.322 180.529 128.586 180.264 128.806C179.744 129.24 179.109 129.459 178.363 129.459C177.198 129.459 176.405 129.061 175.982 128.271C175.755 127.847 175.641 127.28 175.641 126.571V120.917H177.069Z" fill="#FAFAFA"/>
<path d="M185.348 126.622C185.389 127.088 185.511 127.447 185.706 127.696C186.063 128.146 186.686 128.374 187.573 128.374C188.102 128.374 188.569 128.26 188.97 128.034C189.371 127.808 189.575 127.463 189.575 126.988C189.575 126.63 189.41 126.361 189.092 126.173C188.885 126.061 188.481 125.927 187.876 125.776L186.748 125.497C186.024 125.322 185.495 125.122 185.152 124.906C184.541 124.533 184.238 124.007 184.238 123.337C184.238 122.551 184.527 121.917 185.099 121.426C185.674 120.945 186.448 120.698 187.418 120.698C188.685 120.698 189.6 121.069 190.162 121.801C190.516 122.267 190.687 122.769 190.675 123.307H189.357C189.327 122.995 189.215 122.708 189.013 122.449C188.685 122.084 188.114 121.901 187.304 121.901C186.764 121.901 186.354 122.002 186.075 122.206C185.798 122.404 185.658 122.671 185.658 123.003C185.658 123.36 185.841 123.653 186.206 123.871C186.419 123.995 186.729 124.113 187.141 124.209L188.084 124.435C189.107 124.68 189.793 124.914 190.139 125.14C190.683 125.497 190.956 126.061 190.956 126.827C190.956 127.567 190.669 128.205 190.103 128.741C189.536 129.283 188.667 129.55 187.503 129.55C186.248 129.55 185.364 129.273 184.841 128.708C184.321 128.146 184.038 127.455 184.005 126.622H185.348Z" fill="#FAFAFA"/>
<path d="M192.47 120.955H193.89V129.232H192.47V120.955ZM192.47 117.823H193.89V119.412H192.47V117.823Z" fill="#FAFAFA"/>
<path d="M196.002 120.917H197.33V122.097C197.726 121.61 198.143 121.26 198.583 121.048C199.023 120.836 199.514 120.73 200.052 120.73C201.23 120.73 202.028 121.143 202.444 121.963C202.67 122.415 202.782 123.057 202.782 123.898V129.231H201.362V123.99C201.362 123.485 201.287 123.073 201.136 122.765C200.891 122.248 200.439 121.987 199.785 121.987C199.455 121.987 199.182 122.02 198.974 122.089C198.587 122.201 198.249 122.431 197.96 122.773C197.726 123.046 197.575 123.33 197.504 123.621C197.434 123.917 197.4 124.334 197.4 124.876V129.231H196.002V120.917Z" fill="#FAFAFA"/>
<path d="M210.487 124.411C210.434 123.804 210.302 123.321 210.094 122.96C209.717 122.288 209.079 121.949 208.193 121.949C207.557 121.949 207.026 122.182 206.592 122.646C206.16 123.109 205.93 123.696 205.907 124.411H210.487ZM209.986 121.147C210.54 121.424 210.958 121.782 211.247 122.222C211.522 122.642 211.711 123.129 211.799 123.689C211.885 124.071 211.925 124.684 211.925 125.519H205.875C205.901 126.369 206.099 127.047 206.468 127.557C206.838 128.07 207.409 128.325 208.187 128.325C208.912 128.325 209.489 128.083 209.919 127.598C210.161 127.318 210.332 126.994 210.434 126.622H211.809C211.773 126.929 211.652 127.27 211.449 127.644C211.243 128.023 211.015 128.329 210.764 128.563C210.34 128.981 209.823 129.26 209.201 129.403C208.865 129.486 208.488 129.527 208.067 129.527C207.036 129.527 206.164 129.15 205.449 128.4C204.732 127.644 204.379 126.591 204.379 125.232C204.379 123.897 204.736 122.817 205.455 121.98C206.18 121.147 207.123 120.731 208.281 120.731C208.869 120.731 209.436 120.87 209.986 121.147Z" fill="#FAFAFA"/>
<path d="M214.529 126.622C214.572 127.088 214.688 127.447 214.886 127.696C215.243 128.146 215.866 128.374 216.754 128.374C217.284 128.374 217.752 128.26 218.15 128.034C218.551 127.808 218.753 127.463 218.753 126.988C218.753 126.63 218.59 126.361 218.272 126.173C218.066 126.061 217.661 125.927 217.058 125.776L215.929 125.497C215.206 125.322 214.676 125.122 214.332 124.906C213.721 124.533 213.419 124.007 213.419 123.337C213.419 122.551 213.704 121.917 214.279 121.426C214.856 120.945 215.624 120.698 216.599 120.698C217.867 120.698 218.781 121.069 219.341 121.801C219.694 122.267 219.865 122.769 219.855 123.307H218.537C218.508 122.995 218.396 122.708 218.193 122.449C217.867 122.084 217.296 121.901 216.487 121.901C215.945 121.901 215.532 122.002 215.255 122.206C214.978 122.404 214.839 122.671 214.839 123.003C214.839 123.36 215.021 123.653 215.383 123.871C215.597 123.995 215.911 124.113 216.318 124.209L217.261 124.435C218.284 124.68 218.971 124.914 219.319 125.14C219.865 125.497 220.136 126.061 220.136 126.827C220.136 127.567 219.851 128.205 219.284 128.741C218.716 129.283 217.848 129.55 216.683 129.55C215.43 129.55 214.542 129.273 214.024 128.708C213.501 128.146 213.22 127.455 213.185 126.622H214.529Z" fill="#FAFAFA"/>
<path d="M222.479 126.622C222.52 127.088 222.642 127.447 222.836 127.696C223.2 128.146 223.822 128.374 224.708 128.374C225.235 128.374 225.702 128.26 226.103 128.034C226.507 127.808 226.706 127.463 226.706 126.988C226.706 126.63 226.545 126.361 226.222 126.173C226.022 126.061 225.616 125.927 225.009 125.776L223.879 125.497C223.16 125.322 222.626 125.122 222.288 124.906C221.672 124.533 221.371 124.007 221.371 123.337C221.371 122.551 221.658 121.917 222.233 121.426C222.807 120.945 223.581 120.698 224.549 120.698C225.822 120.698 226.737 121.069 227.297 121.801C227.646 122.267 227.817 122.769 227.811 123.307H226.488C226.46 122.995 226.348 122.708 226.146 122.449C225.818 122.084 225.246 121.901 224.437 121.901C223.895 121.901 223.487 122.002 223.21 122.206C222.929 122.404 222.791 122.671 222.791 123.003C222.791 123.36 222.972 123.653 223.339 123.871C223.549 123.995 223.86 124.113 224.274 124.209L225.215 124.435C226.238 124.68 226.928 124.914 227.273 125.14C227.817 125.497 228.086 126.061 228.086 126.827C228.086 127.567 227.808 128.205 227.234 128.741C226.666 129.283 225.802 129.55 224.635 129.55C223.382 129.55 222.495 129.273 221.972 128.708C221.456 128.146 221.175 127.455 221.137 126.622H222.479Z" fill="#FAFAFA"/>
<path d="M114.645 54.4611V49.0744H118.149C119.664 49.0744 120.705 49.2885 121.278 49.7205C121.854 50.1525 122.14 50.8359 122.14 51.7668C122.14 53.5636 120.899 54.4611 118.418 54.4611H114.645ZM114.645 42.5095H117.935C119.243 42.5095 120.157 42.7059 120.685 43.0947C121.211 43.4816 121.476 44.0628 121.476 44.8326C121.476 45.6849 121.207 46.2976 120.661 46.6609C120.123 47.0321 119.277 47.2147 118.13 47.2147H114.645V42.5095ZM122.789 55.1484C123.79 54.3629 124.293 53.2376 124.293 51.7668C124.293 50.8929 124.04 50.1093 123.537 49.422C123.03 48.7367 122.272 48.2614 121.262 48.0042C122.765 47.2776 123.521 46.1602 123.521 44.6461C123.521 43.4128 123.042 42.4309 122.089 41.72C121.129 41.0033 119.819 40.6498 118.149 40.6498H112.573V56.3228H118.442C120.343 56.3228 121.797 55.93 122.789 55.1484Z" fill="#FAFAFA"/>
<path d="M126.912 42.8296H128.931V40.6498H126.912V42.8296Z" fill="#FAFAFA"/>
<path d="M126.912 56.3228H128.931V44.9819H126.912V56.3228Z" fill="#FAFAFA"/>
<path d="M131.903 56.3228H133.924V40.6498H131.903V56.3228Z" fill="#FAFAFA"/>
<path d="M139.027 47.413C139.549 46.6648 140.233 46.2976 141.097 46.2976C142.219 46.2976 143.214 46.7551 144.079 47.6742V53.0589C143.163 54.3589 142.136 55.0089 141.011 55.0089C140.148 55.0089 139.475 54.6476 138.988 53.921C138.497 53.1983 138.251 52.1359 138.251 50.7397C138.251 49.2629 138.51 48.1553 139.027 47.413ZM140.836 56.5917C142.101 56.5917 143.183 56.0458 144.079 54.9657V55.5293C144.079 57.0395 143.821 58.0548 143.313 58.5732C142.798 59.0897 142.065 59.3469 141.128 59.3469C139.463 59.3469 138.626 58.7283 138.626 57.4872H136.544C136.544 58.5339 136.951 59.3705 137.778 59.9891C138.599 60.6077 139.726 60.9199 141.152 60.9199C144.446 60.9199 146.09 59.0936 146.09 55.4449V44.9818H144.079V45.8557C143.23 45.1016 142.195 44.7246 140.969 44.7246C139.594 44.7246 138.451 45.2646 137.544 46.3427C136.629 47.4209 136.183 48.8917 136.183 50.7397C136.183 52.5287 136.582 53.9544 137.395 55.0089C138.21 56.0615 139.357 56.5917 140.836 56.5917Z" fill="#FAFAFA"/>
<path d="M149.071 56.3228H151.092V44.9819H149.071V56.3228Z" fill="#FAFAFA"/>
<path d="M149.071 42.8296H151.092V40.6498H149.071V42.8296Z" fill="#FAFAFA"/>
<path d="M154.712 59.0597C154.38 59.0597 154.06 59.0087 153.749 58.9085V60.7682C154.111 60.8684 154.543 60.9194 155.053 60.9194C155.727 60.9194 156.295 60.7172 156.766 60.3126C157.234 59.912 157.615 59.4191 157.897 58.83C158.186 58.2389 158.536 57.4043 158.952 56.3222L163.238 44.9814H161.058L158.051 53.8537L155.053 44.9814H152.869L157.159 56.3222C156.521 58.1485 155.706 59.0597 154.712 59.0597Z" fill="#FAFAFA"/>
<path d="M165.014 42.8296H167.033V40.6498H165.014V42.8296Z" fill="#FAFAFA"/>
<path d="M165.014 56.3228H167.033V44.9819H165.014V56.3228Z" fill="#FAFAFA"/>
<path d="M117.694 82.9565H119.78V69.1433H124.967V67.2836H112.548V69.1433H117.694V82.9565Z" fill="#FAFAFA"/>
<path d="M126.936 82.9556H128.961V71.6127H126.936V82.9556Z" fill="#FAFAFA"/>
<path d="M126.936 69.4644H128.961V67.2826H126.936V69.4644Z" fill="#FAFAFA"/>
<path d="M136.521 83.2251C137.766 83.2251 138.797 82.907 139.632 82.2845C140.459 81.656 140.95 80.7507 141.101 79.5666H139.023C138.996 80.2382 138.742 80.7507 138.255 81.1042C137.786 81.4636 137.2 81.6403 136.521 81.6403C135.56 81.6403 134.777 81.2711 134.182 80.5445C133.583 79.814 133.282 78.73 133.282 77.2905C133.282 75.8432 133.583 74.7553 134.182 74.0208C134.777 73.2942 135.56 72.925 136.521 72.925C137.2 72.925 137.786 73.1038 138.255 73.4612C138.742 73.8205 138.996 74.339 139.023 75.0145H141.101C140.95 73.8284 140.459 72.9211 139.632 72.2947C138.797 71.6721 137.766 71.356 136.521 71.356C134.912 71.356 133.626 71.8705 132.656 72.9054C131.691 73.9403 131.208 75.4053 131.208 77.2905C131.208 79.1718 131.691 80.6309 132.656 81.6678C133.626 82.7027 134.912 83.2251 136.521 83.2251Z" fill="#FAFAFA"/>
<path d="M150.061 79.9706C149.703 80.4851 149.212 80.8897 148.595 81.1941C147.975 81.4925 147.332 81.6418 146.675 81.6418C145.942 81.6418 145.359 81.4847 144.942 81.1744C144.51 80.8681 144.296 80.4203 144.296 79.8489C144.296 78.2562 145.755 77.4589 148.682 77.4589H150.061V79.9706ZM150.85 72.2255C150.041 71.6442 148.906 71.3555 147.448 71.3555C144.335 71.3555 142.705 72.52 142.558 74.851H144.565C144.618 73.5706 145.545 72.9246 147.344 72.9246C148.201 72.9246 148.819 73.0463 149.212 73.2918C149.605 73.5373 149.843 73.8397 149.933 74.203C150.017 74.5722 150.061 75.1633 150.061 75.9763H149.071C144.506 75.9763 142.222 77.2999 142.222 79.9471C142.222 80.9113 142.589 81.7007 143.312 82.3056C144.041 82.9183 144.966 83.2246 146.091 83.2246C147.71 83.2246 149.033 82.7415 150.061 81.7891V82.9575H152.072V75.6208C152.072 73.9339 151.663 72.7969 150.85 72.2255Z" fill="#FAFAFA"/>
<path d="M155.053 71.6132V82.9561H157.074V74.936C157.807 73.8598 158.689 73.3217 159.718 73.3217C160.244 73.3217 160.661 73.3649 160.942 73.4513V71.4424C160.616 71.3854 160.311 71.356 160.022 71.356C158.903 71.356 157.921 71.9687 157.074 73.1941V71.6132H155.053Z" fill="#FAFAFA"/>
<path d="M162.343 69.4644H164.364V67.2826H162.343V69.4644Z" fill="#FAFAFA"/>
<path d="M162.341 82.9556H164.362V71.6127H162.341V82.9556Z" fill="#FAFAFA"/>
<path d="M167.335 82.9575H169.356V67.2845H167.335V82.9575Z" fill="#FAFAFA"/>
<path d="M174.854 73.7341C175.43 73.1941 176.119 72.925 176.928 72.925C177.751 72.925 178.451 73.2019 179.028 73.7381C179.592 74.282 179.961 75.095 180.124 76.1889H173.752C173.91 75.0911 174.271 74.2702 174.854 73.7341ZM177.154 83.2251C178.447 83.2251 179.545 82.903 180.452 82.2727C181.353 81.6364 181.88 80.7331 182.039 79.5666H179.953C179.922 80.2303 179.627 80.7429 179.061 81.1003C178.494 81.4597 177.859 81.6403 177.154 81.6403C176.215 81.6403 175.434 81.3222 174.795 80.6879C174.155 80.0536 173.8 79.0815 173.715 77.7717H182.249V77.2905C182.249 75.4053 181.768 73.9403 180.8 72.9054C179.835 71.8705 178.547 71.356 176.928 71.356C175.345 71.356 174.061 71.8823 173.089 72.9329C172.106 73.9835 171.617 75.4328 171.617 77.2905C171.617 79.1542 172.118 80.6133 173.132 81.656C174.143 82.6988 175.485 83.2251 177.154 83.2251Z" fill="#FAFAFA"/>
<path d="M192.112 77.3416C191.45 76.8978 190.425 76.5129 189.056 76.181C187.683 75.8511 186.825 75.586 186.487 75.3935C186.145 75.1971 185.974 74.879 185.974 74.4352C185.974 73.9423 186.196 73.5711 186.64 73.3139C187.082 73.0527 187.648 72.925 188.323 72.925C189.857 72.925 190.655 73.4611 190.729 74.5275H192.737C192.676 72.4144 191.157 71.356 188.188 71.356C186.899 71.356 185.88 71.6643 185.11 72.2789C184.346 72.8936 183.963 73.6752 183.963 74.6139C183.963 75.6567 184.269 76.3852 184.884 76.7976C185.503 77.21 186.479 77.5831 187.818 77.9209C189.148 78.2567 190.036 78.5277 190.46 78.7378C190.888 78.948 191.102 79.3113 191.102 79.8258C191.102 80.3462 190.884 80.7782 190.444 81.1238C190.01 81.4675 189.37 81.6403 188.537 81.6403C186.669 81.6403 185.733 80.9491 185.713 79.5665H183.694C183.81 81.7385 185.149 82.9423 187.726 83.1701V84.2796C188.72 84.2796 189.223 84.5447 189.223 85.0769C189.223 85.6602 188.759 85.9567 187.846 85.9567C187.461 85.9567 187.072 85.9331 186.673 85.8919V87.1428C187.082 87.1664 187.449 87.186 187.767 87.186C189.94 87.186 191.02 86.4928 191.02 85.1084C191.02 84.1206 190.421 83.5471 189.223 83.3999V83.2015C190.452 83.0739 191.415 82.6733 192.09 82.0115C192.776 81.3418 193.114 80.5484 193.114 79.6333C193.114 78.5473 192.78 77.7854 192.112 77.3416Z" fill="#FAFAFA"/>
<path d="M198.046 81.2173C197.855 81.0072 197.755 80.5182 197.755 79.7386V73.1933H199.595V71.6124H197.755V68.7924H195.744V71.6124H194.341V73.1933H195.744V79.6325C195.744 80.4279 195.789 81.0582 195.881 81.5236C195.971 81.9851 196.213 82.3641 196.598 82.6587C196.987 82.9572 197.592 83.1045 198.417 83.1045C198.941 83.1045 199.42 83.0613 199.858 82.9768V81.451C199.536 81.504 199.2 81.5354 198.861 81.5354C198.517 81.5354 198.244 81.4255 198.046 81.2173Z" fill="#FAFAFA"/>
<path d="M201.538 82.9575H203.565V71.6147H201.538V82.9575Z" fill="#FAFAFA"/>
<path d="M201.538 69.4644H203.565V67.2826H201.538V69.4644Z" fill="#FAFAFA"/>
<path d="M208.55 73.1936V71.6127H206.531V82.9575H208.55V74.9374C209.288 73.8593 210.168 73.3212 211.197 73.3212C211.726 73.3212 212.142 73.3644 212.427 73.4508V71.4419C212.095 71.3849 211.787 71.3555 211.504 71.3555C210.384 71.3555 209.402 71.9682 208.55 73.1936Z" fill="#FAFAFA"/>
<path d="M225.674 71.3565C225.164 71.3565 224.647 71.4743 224.119 71.7158C223.596 71.9535 222.95 72.521 222.198 73.4086C221.744 72.0418 220.682 71.3565 219.018 71.3565C217.859 71.3565 216.804 71.9201 215.844 73.0532V71.6137H213.823V82.9565H215.844V74.8284C216.781 73.6207 217.732 73.0119 218.712 73.0119C219.35 73.0119 219.804 73.2083 220.083 73.6129C220.354 74.0115 220.485 74.6792 220.485 75.6218V82.9565H222.494V74.8284C223.435 73.6207 224.394 73.0119 225.37 73.0119C226.008 73.0119 226.452 73.2083 226.729 73.6129C227 74.0115 227.134 74.6792 227.134 75.6218V82.9565H229.161V75.5315C229.161 72.7488 227.994 71.3565 225.674 71.3565Z" fill="#FAFAFA"/>
<path d="M233.486 76.1889C233.645 75.0911 234.014 74.2702 234.59 73.7302C235.163 73.198 235.858 72.925 236.664 72.925C237.491 72.925 238.19 73.2019 238.759 73.7381C239.331 74.282 239.696 75.095 239.855 76.1889H233.486ZM241.99 77.2905C241.99 75.4053 241.503 73.9403 240.537 72.9054C239.569 71.8705 238.284 71.356 236.664 71.356C235.077 71.356 233.796 71.8823 232.816 72.9329C231.84 73.9835 231.353 75.4328 231.353 77.2905C231.353 79.1542 231.854 80.6133 232.867 81.656C233.879 82.6988 235.216 83.2251 236.886 83.2251C238.184 83.2251 239.284 82.903 240.185 82.2727C241.091 81.6364 241.615 80.7331 241.776 79.5666H239.688C239.659 80.2303 239.36 80.7429 238.793 81.1003C238.229 81.4597 237.595 81.6403 236.886 81.6403C235.953 81.6403 235.165 81.3261 234.533 80.6879C233.89 80.0536 233.531 79.0815 233.437 77.7717H241.99V77.2905Z" fill="#FAFAFA"/>
<path d="M119.909 103.423L115.664 90.3583H112.549V106.029H114.517V92.7011L118.983 106.029H120.849L125.32 92.7011V106.029H127.286V90.3583H124.171L119.909 103.423Z" fill="#FAFAFA"/>
<path d="M131.947 99.2636C132.108 98.1678 132.474 97.3449 133.049 96.8088C133.625 96.2727 134.322 96.0037 135.125 96.0037C135.95 96.0037 136.649 96.2767 137.223 96.8167C137.788 97.3567 138.156 98.1737 138.315 99.2636H131.947ZM135.125 94.4327C133.54 94.4327 132.26 94.959 131.281 96.0135C130.301 97.0582 129.81 98.5095 129.81 100.367C129.81 102.233 130.317 103.688 131.325 104.729C132.34 105.772 133.678 106.298 135.347 106.298C136.641 106.298 137.741 105.98 138.645 105.349C139.552 104.709 140.073 103.806 140.234 102.639H138.142C138.116 103.303 137.824 103.816 137.256 104.173C136.687 104.536 136.054 104.713 135.347 104.713C134.41 104.713 133.628 104.399 132.99 103.761C132.354 103.126 131.994 102.154 131.908 100.846H140.442V100.367C140.442 98.48 139.961 97.015 138.996 95.9801C138.03 94.9491 136.742 94.4327 135.125 94.4327Z" fill="#FAFAFA"/>
<path d="M144.724 96.2678V94.6889H142.705V106.03H144.724V98.0117C145.455 96.9394 146.339 96.3955 147.364 96.3955C147.898 96.3955 148.309 96.4387 148.592 96.5251V94.5161C148.266 94.4592 147.963 94.4317 147.674 94.4317C146.555 94.4317 145.573 95.0463 144.724 96.2678Z" fill="#FAFAFA"/>
<path d="M158.933 94.6894H156.388L152.018 99.2395V90.3573H149.997V106.028H152.018V101.516L153.279 100.269L156.967 106.028H159.373L154.634 98.9096L158.933 94.6894Z" fill="#FAFAFA"/>
<path d="M162.367 99.2636C162.526 98.1678 162.887 97.3449 163.469 96.8088C164.044 96.2727 164.74 96.0037 165.543 96.0037C166.368 96.0037 167.069 96.2767 167.637 96.8167C168.208 97.3567 168.568 98.1737 168.74 99.2636H162.367ZM165.543 94.4327C163.958 94.4327 162.677 94.959 161.701 96.0135C160.715 97.0582 160.23 98.5095 160.23 100.367C160.23 102.233 160.735 103.688 161.744 104.729C162.76 105.772 164.097 106.298 165.767 106.298C167.061 106.298 168.161 105.98 169.064 105.349C169.968 104.709 170.492 103.806 170.651 102.639H168.562C168.538 103.303 168.243 103.816 167.674 104.173C167.106 104.536 166.476 104.713 165.767 104.713C164.834 104.713 164.044 104.399 163.41 103.761C162.772 103.126 162.408 102.154 162.328 100.846H170.862V100.367C170.862 98.48 170.38 97.015 169.414 95.9801C168.45 94.9491 167.157 94.4327 165.543 94.4327Z" fill="#FAFAFA"/>
<path d="M181.767 96.3964V94.6899H172.485V96.3964H179.145L172.076 104.32V106.029H182.124V104.32H174.706L181.767 96.3964Z" fill="#FAFAFA"/>
<path d="M184.067 92.5391H186.09V90.3573H184.067V92.5391Z" fill="#FAFAFA"/>
<path d="M184.067 106.03H186.09V94.6914H184.067V106.03Z" fill="#FAFAFA"/>
<path d="M88.5616 73.9992C88.5616 75.2913 88.32 76.5285 87.8879 77.6695C87.7406 78.0504 87.5796 78.4196 87.391 78.779C87.3144 78.9224 87.2358 79.0618 87.1573 79.2012C86.9982 79.482 86.8195 79.7511 86.6348 80.0123C86.354 80.405 86.0535 80.7781 85.7215 81.1277C83.8144 83.1582 81.1157 84.4347 78.1185 84.4347H67.2414C64.2442 84.4347 61.5455 83.1582 59.6364 81.1277C59.3084 80.7781 59.002 80.405 58.7211 80.0123C58.5385 79.7511 58.3597 79.482 58.2006 79.2012C58.1221 79.0618 58.0396 78.9224 57.9669 78.779C57.7823 78.4196 57.6134 78.0504 57.472 77.6695C57.0359 76.5285 56.7983 75.2913 56.7983 73.9992V63.436H56.7826H49.4683C49.1344 63.436 48.8064 63.4163 48.4784 63.3829V68.2924C48.4784 68.7578 48.443 69.2114 48.3723 69.6572C48.2603 70.3956 48.0541 71.1065 47.7693 71.782C47.6043 72.1827 47.402 72.5695 47.1762 72.9367C47.0289 73.1861 46.8658 73.4277 46.6969 73.6555C46.3493 74.117 45.9604 74.5392 45.5381 74.93C45.1099 75.3149 44.6484 75.6605 44.1534 75.9649C43.9118 76.1122 43.6585 76.2516 43.3972 76.3773C43.1341 76.501 42.865 76.6188 42.59 76.719C42.3484 76.8093 42.1088 76.884 41.8554 76.9527C41.1071 77.155 40.3215 77.263 39.5103 77.263H32.2019C31.3907 77.263 30.6051 77.155 29.8548 76.9527C29.6073 76.884 29.3599 76.8093 29.1183 76.719C28.8453 76.6188 28.5801 76.501 28.3189 76.3773C28.0577 76.2516 27.8023 76.1122 27.5568 75.9649C27.0619 75.6605 26.6023 75.3149 26.1741 74.93C25.7518 74.5392 25.3629 74.117 25.0172 73.6555C24.8464 73.4277 24.6873 73.1861 24.536 72.9367C24.3121 72.5695 24.1138 72.1827 23.9429 71.782C23.6581 71.1065 23.4519 70.3956 23.3399 69.6572C23.2751 69.2114 23.2358 68.7578 23.2358 68.2924V60.9812C23.2358 60.8496 23.2515 60.7161 23.2594 60.5806H14.1715C11.2038 60.5806 8.52867 59.2943 6.6726 57.2559C5.91053 56.4135 5.28791 55.4453 4.83617 54.3868C4.63976 53.9312 4.48264 53.456 4.3589 52.9729C4.27248 52.6508 4.2057 52.3209 4.15463 51.9851C4.1291 51.8182 4.10946 51.6493 4.08982 51.4785C4.05446 51.1407 4.03875 50.7951 4.03875 50.4435V40.3202C4.03875 40.1455 4.04268 39.9687 4.05053 39.7979C4.07803 39.2794 4.14481 38.7747 4.24498 38.2779C4.34711 37.787 4.48264 37.3019 4.65155 36.8365C4.76546 36.5301 4.89313 36.2257 5.03847 35.9312C5.18185 35.6347 5.33702 35.346 5.50593 35.071C5.67877 34.7902 5.86143 34.5192 6.05588 34.262C6.53904 33.612 7.1047 33.0209 7.72928 32.5063C7.98265 32.2962 8.23995 32.1018 8.50903 31.9172C8.91363 31.6462 9.33984 31.4007 9.78373 31.1867C9.93104 31.116 10.0783 31.0472 10.2335 30.9844C10.532 30.8568 10.8424 30.7448 11.1606 30.6466C11.3982 30.572 11.6437 30.5052 11.8873 30.4463C12.6218 30.2755 13.3839 30.1832 14.1715 30.1832H24.2218C24.2218 30.1518 24.2139 30.1243 24.2139 30.0889V16.9767C24.2139 13.0609 26.2055 9.60468 29.2302 7.55841C29.3834 7.45629 29.5386 7.3581 29.6938 7.26188C30.008 7.07532 30.3262 6.89465 30.6601 6.73755C32.1508 6.01684 33.8223 5.61623 35.588 5.61623H48.6983C50.4601 5.61623 52.1355 6.01684 53.6223 6.73755C53.9543 6.89465 54.2783 7.07532 54.5906 7.26188C54.7458 7.3581 54.899 7.45629 55.0502 7.55841C58.0749 9.60468 60.0685 13.0609 60.0685 16.9767V30.0889C60.0685 30.2873 60.0606 30.4836 60.0488 30.6761C60.0213 31.2299 59.9565 31.7699 59.8505 32.2962C59.7778 32.6458 59.6914 32.9914 59.5912 33.3311C59.4439 33.8378 59.2554 34.3307 59.0373 34.8079C58.452 36.0745 57.6409 37.2214 56.6588 38.1876H56.7826C59.874 38.1876 62.6061 39.7566 64.2206 42.1426C64.7038 42.8614 65.0867 43.6508 65.346 44.4913C65.4305 44.7741 65.509 45.0588 65.566 45.3495C65.6878 45.9386 65.7545 46.5376 65.7545 47.1601V52.8021C66.2397 52.7274 66.7366 52.6823 67.2414 52.6823H78.1185C79.5562 52.6823 80.9252 52.9729 82.1783 53.5051C82.958 53.837 83.6867 54.2611 84.3604 54.7599C84.7591 55.0624 85.1421 55.3903 85.4957 55.7438C85.8512 56.0993 86.1831 56.4783 86.4836 56.8789C86.7821 57.2834 87.0552 57.7076 87.2948 58.1534C87.4578 58.4479 87.6071 58.7504 87.7367 59.0646C88.265 60.3116 88.5616 61.6843 88.5616 63.1217V73.9992ZM78.1185 48.7193H69.7161V47.1601C69.7161 42.2487 66.9782 37.9676 62.9321 35.778C63.6392 34.0204 64.034 32.0979 64.034 30.0889V16.9767C64.034 8.52263 57.1479 1.64938 48.6983 1.64938H35.588C27.1306 1.64938 20.2484 8.52263 20.2484 16.9767V26.2222H14.1715C6.39566 26.2222 0.0732422 32.5456 0.0732422 40.3202V50.4435C0.0732422 58.2221 6.39566 64.5455 14.1715 64.5455H19.2703V68.2924C19.2703 75.4249 25.0683 81.2298 32.2019 81.2298H39.5103C46.6459 81.2298 52.4419 75.4249 52.4419 68.2924V67.4008H52.8347V73.9992C52.8347 75.0969 52.9663 76.1632 53.204 77.1942C53.5261 78.5905 54.0446 79.918 54.7379 81.1277C55.0365 81.6501 55.3743 82.1371 55.7278 82.6143C57.2225 84.6056 59.2082 86.21 61.52 87.2135C62.5 87.6376 63.5292 87.946 64.6055 88.1443C64.9925 88.1875 65.3873 88.2445 65.7978 88.3151C65.9215 88.3387 66.0492 88.3584 66.1749 88.3839C70.1561 89.1812 74.919 91.6771 80.3203 99.9231C81.2414 101.331 82.1803 102.89 83.1368 104.648L82.744 87.62C83.0189 87.5218 83.29 87.4354 83.5591 87.3274C83.6494 87.2881 83.7417 87.2527 83.834 87.2115C86.6977 85.9684 89.0723 83.8161 90.6121 81.1277C91.8181 79.0245 92.5153 76.5933 92.5153 73.9992V63.1217C92.5153 55.1802 86.0535 48.7193 78.1185 48.7193Z" fill="#FAFAFA"/>
<path d="M34.4388 41.3971V50.4423C34.4388 50.9824 34.3838 51.5047 34.2974 52.0192H39.512C39.844 52.0192 40.1739 52.0389 40.496 52.0742V47.1569C40.496 46.0749 40.6905 45.036 41.0401 44.0738C41.1305 43.8322 41.2287 43.5985 41.3367 43.3688C41.6568 42.6755 42.0673 42.0334 42.5466 41.4501H35.5878C35.195 41.4501 34.8198 41.4384 34.4388 41.3971Z" fill="#FAFAFA"/>
<path d="M54.0106 15.8906C53.9379 15.5352 53.8338 15.1974 53.6924 14.8694C52.8695 12.9312 50.9348 11.5604 48.6977 11.5604H35.5874C33.3464 11.5604 31.4176 12.9312 30.5947 14.8694C30.4592 15.1974 30.3492 15.5352 30.2804 15.8906C30.2058 16.2401 30.1665 16.6015 30.1665 16.9766V30.0868C30.1665 30.3067 30.1783 30.5169 30.2058 30.727C30.2254 30.888 30.249 31.0392 30.2843 31.1904C30.3806 31.648 30.5377 32.0859 30.7361 32.4944C31.1878 33.3879 31.8713 34.144 32.71 34.6762C33.3424 35.0709 34.0515 35.3419 34.8116 35.4499C35.065 35.4892 35.3242 35.5049 35.5874 35.5049H48.6977C49.0709 35.5049 49.4382 35.4715 49.7898 35.4008C50.3142 35.2928 50.819 35.1043 51.2805 34.8509C51.583 34.6801 51.8756 34.4857 52.1447 34.2677C52.4118 34.0419 52.6593 33.7964 52.8773 33.5274C53.1012 33.2603 53.2957 32.9716 53.4685 32.6652C53.6315 32.3609 53.771 32.0349 53.879 31.6971C53.9831 31.3574 54.0519 31.0019 54.0911 30.6386C54.1108 30.458 54.1186 30.2753 54.1186 30.0868V16.9766C54.1186 16.6015 54.0813 16.2401 54.0106 15.8906Z" fill="#FAFAFA"/>
<path d="M59.1184 45.2328C58.5626 44.5611 57.72 44.1311 56.7831 44.1311H49.4688C48.5319 44.1311 47.6933 44.5611 47.1374 45.2328C46.7034 45.759 46.4421 46.4287 46.4421 47.1553V54.4704C46.4421 54.5745 46.4461 54.6707 46.4579 54.7709C46.4775 54.9653 46.5148 55.1577 46.5796 55.3384C46.6012 55.4307 46.6385 55.521 46.6719 55.6114C46.8271 55.9786 47.0412 56.3124 47.3162 56.5913C47.5224 56.7994 47.7581 56.9762 48.0193 57.1176C48.1941 57.2158 48.3768 57.2943 48.5673 57.3552C48.6596 57.3847 48.7558 57.4082 48.858 57.4298C49.0563 57.4711 49.2626 57.4946 49.4688 57.4946H56.7831C56.9933 57.4946 57.1956 57.4711 57.3939 57.4338C57.8869 57.3277 58.3328 57.1097 58.7059 56.8034C58.8533 56.6777 58.9947 56.5383 59.1184 56.391C59.3011 56.1632 59.4543 55.9157 59.5721 55.6428C59.7233 55.2814 59.8058 54.8887 59.8058 54.4704V47.1553C59.8058 46.4287 59.5485 45.759 59.1184 45.2328Z" fill="#FAFAFA"/>
<path d="M78.1178 58.6261H67.2407C64.7718 58.6261 62.7449 60.6547 62.7449 63.1251V73.9986C62.7449 74.6152 62.8745 75.2044 63.0984 75.7424C63.2143 76.0115 63.3537 76.2668 63.5168 76.5024C63.7623 76.8638 64.053 77.1819 64.3869 77.4588C64.7227 77.7337 65.0939 77.9654 65.4966 78.1324C66.0347 78.3621 66.624 78.4858 67.2407 78.4858H78.1178C78.7326 78.4858 79.3218 78.3621 79.86 78.1324C80.2626 77.9654 80.6338 77.7337 80.9677 77.4588C81.3036 77.1819 81.5943 76.8598 81.8359 76.5024C81.9989 76.2668 82.1383 76.0075 82.2542 75.7424C82.4821 75.2044 82.6097 74.6152 82.6097 73.9986V63.1251C82.6097 60.6547 80.5828 58.6261 78.1178 58.6261Z" fill="#FAFAFA"/>
<path d="M28.467 39.8877C28.4474 39.6698 28.4002 39.4616 28.3453 39.2574C28.2922 39.0512 28.2294 38.8528 28.1469 38.6604C27.7757 37.8081 27.1295 37.1051 26.3262 36.6553C25.7252 36.3274 25.0338 36.133 24.3031 36.133H14.1723C11.8724 36.133 9.979 38.0182 9.979 40.3198V50.4431C9.979 51.4564 10.3463 52.3853 10.9434 53.104C11.1103 53.3161 11.3067 53.5066 11.5149 53.6735C12.2377 54.2725 13.1648 54.6318 14.1723 54.6318H24.3031C25.3127 54.6318 26.2397 54.2725 26.9606 53.6735C27.1688 53.5066 27.3593 53.3161 27.5302 53.104C28.1272 52.3853 28.4906 51.4564 28.4906 50.4431V40.3198C28.4906 40.1725 28.4808 40.0232 28.467 39.8877Z" fill="#FAFAFA"/>
<path d="M42.5156 60.686C42.5078 60.5878 42.4882 60.4935 42.4744 60.3992C42.4332 60.2068 42.3762 60.0242 42.3016 59.8396C42.1562 59.4841 41.9303 59.1444 41.6573 58.8714C41.1153 58.3117 40.3492 57.9622 39.5106 57.9622H32.2022C30.9314 57.9622 29.8433 58.7556 29.3975 59.8651C29.368 59.9397 29.3405 60.0124 29.3169 60.085C29.2855 60.1832 29.2619 60.2814 29.2423 60.3796C29.203 60.576 29.1794 60.7763 29.1794 60.9805V68.2917C29.1794 69.2265 29.6115 70.063 30.2813 70.6227C30.354 70.6836 30.4345 70.7425 30.517 70.7955C30.6761 70.9055 30.847 70.9998 31.0296 71.0744C31.391 71.2276 31.7858 71.314 32.2022 71.314H39.5106C39.925 71.314 40.3218 71.2276 40.6871 71.0744C40.8658 70.9998 41.0406 70.9055 41.2017 70.7955C41.2783 70.7425 41.3588 70.6836 41.4275 70.6227C42.1052 70.063 42.5314 69.2265 42.5314 68.2917V60.9805C42.5314 60.8863 42.5274 60.7822 42.5156 60.686Z" fill="#FAFAFA"/>
</svg>
