<svg width="213" height="30" viewBox="0 0 213 30" fill="none" xmlns="http://www.w3.org/2000/svg">
<g clip-path="url(#clip0_12_658)">
<path d="M80.8887 0.633789H76.455V4.85914H80.949C80.9189 3.38027 81.0697 1.99194 80.8586 0.633789M66.7431 0.633789H62.3396V4.85914H66.8035C66.8035 3.35009 66.9241 1.99194 66.7431 0.633789ZM44.0017 2.71628C44.0017 2.02212 44.1223 1.29777 43.9112 0.633789H39.5378V4.85914H44.0318C44.0318 4.07443 44.0318 3.41045 44.0318 2.74647M39.6585 27.8873H44.0318C44.0318 27.4346 44.0318 27.0724 44.0318 26.6801C44.0318 20.01 44.0318 13.3098 43.9715 6.63982C43.9715 6.60964 43.9413 6.54928 43.9112 6.5191C43.881 6.48892 43.8509 6.45874 43.8509 6.45874H39.568C39.3267 9.41648 39.4172 26.8612 39.6585 27.8873ZM50.9387 8.93359C50.9387 10.2314 50.9387 11.5292 50.9387 12.8269V20.342C50.9387 21.6398 50.9387 22.9376 50.9387 24.2354C50.9387 25.4728 50.8181 26.7102 51.0594 27.9779C51.8134 27.9779 52.4769 27.9779 53.1405 27.9779C53.8342 27.9477 54.558 28.1288 55.3121 27.8269C55.3121 24.0241 55.3121 20.2213 55.3121 16.4185C55.3121 12.6459 55.2518 8.87323 55.3724 4.97987C57.2122 4.88932 58.9314 4.97987 60.5601 4.9195V0.633789H45.8113V4.94968H50.9086C50.9086 6.42856 50.9086 7.69616 50.9086 8.93359M62.3396 6.48892H66.8638V7.93761C66.8638 11.6801 66.8638 15.4527 66.8638 19.1952C66.8638 20.4326 67.286 21.4587 68.0401 22.3642C69.3068 23.9034 71.2975 24.4768 73.1071 23.8732C74.7057 23.33 76.3947 21.8511 76.4249 19.4366C76.455 15.6338 76.4249 11.831 76.4249 8.02816V6.54928C77.2091 6.27765 77.9932 6.42856 78.7473 6.39838C79.4711 6.39838 80.1648 6.39838 81.0094 6.39838V7.6358C81.0094 11.3783 81.0094 15.1509 81.0094 18.8933C81.0094 22.4547 79.5315 25.2012 76.5757 27.1328C73.2278 29.336 68.7639 28.9436 65.7177 26.4084C63.4254 24.507 62.3396 22.0624 62.3396 19.0744C62.3396 15.1207 62.3396 11.167 62.3396 7.24345C62.3396 7.06236 62.3396 6.85109 62.3698 6.48892" fill="#FAFAFA"/>
<path d="M145.072 2.71634C145.041 2.02218 145.222 1.29783 144.951 0.66403H140.517C140.608 2.11272 140.427 3.47087 140.638 4.82902H145.072C145.072 4.04431 145.072 3.38033 145.072 2.71634ZM140.759 27.9477C142.176 27.8874 143.594 28.0383 145.011 27.8572C145.283 23.33 145.162 7.66604 144.861 6.63988C143.473 6.63988 142.086 6.63988 140.638 6.63988C140.367 10.322 140.487 26.8914 140.789 27.9477M151.194 27.8874V26.2878C151.194 20.8854 151.194 15.5131 151.194 10.1107C151.194 7.51514 152.944 5.46282 155.055 5.04029C155.719 4.91956 156.382 4.91956 157.046 4.88938C158.222 4.82902 159.428 5.01011 160.574 4.79884V0.633849C158.704 0.633849 156.895 0.603667 155.085 0.633849C154.482 0.633849 153.849 0.814935 153.275 1.0262C149.505 2.41453 146.73 5.61373 146.821 9.92962C146.942 15.5131 146.821 21.0966 146.821 26.6801V27.8572H151.164L151.194 27.8874ZM94.2501 23.6318C93.5263 23.6318 92.8326 23.5111 92.1087 23.4507C89.7561 23.2697 87.9465 21.0061 87.9163 18.7123C87.856 15.7848 87.856 12.827 87.9163 9.89944C87.9163 8.63184 88.3687 7.48496 89.2434 6.51916C90.299 5.37228 91.5658 4.88938 93.0739 4.88938C94.793 4.88938 96.5424 4.88938 98.2616 4.88938C98.6235 4.88938 98.9854 4.82902 99.3474 4.79884V0.603667C96.7837 0.603667 94.2803 0.3924 91.8373 0.66403C88.8513 0.996022 86.4083 2.47489 84.7494 5.07047C83.7541 6.6097 83.3921 8.33003 83.362 10.1107C83.3318 12.5252 83.3318 14.9095 83.362 17.324C83.362 18.4105 83.3921 19.5574 83.6334 20.6137C84.0557 22.5151 84.9605 24.1751 86.5289 25.4729C87.8861 26.5896 89.4244 27.2837 91.1134 27.8572C91.1435 28.5815 91.1737 29.2757 91.2039 30H95.5471C95.8487 29.3059 95.4264 28.5815 95.9693 27.8572H99.6188V23.6318C97.7488 23.6318 95.9995 23.6318 94.22 23.6318M118.017 23.662C115.936 23.662 113.885 23.662 111.804 23.662C111.14 23.662 110.477 23.5413 109.813 23.4809C107.431 23.2998 105.832 20.9759 105.832 18.9236C105.832 17.6862 105.832 16.4186 105.832 15.1811C105.832 14.8491 105.892 14.5473 105.953 14.1248H115.242V9.77872H105.983C105.922 9.53727 105.832 9.38636 105.862 9.26564C106.224 6.79079 108.426 4.8592 110.809 4.88938C112.98 4.91956 115.152 4.88938 117.293 4.88938C117.595 4.88938 117.927 4.79884 118.168 4.76866V0.603667C115.725 0.603667 113.372 0.603667 111.02 0.603667C109.15 0.603667 107.4 1.08656 105.832 2.05236C103.087 3.77268 101.549 6.27771 101.519 9.53727C101.489 12.7968 101.489 16.0866 101.519 19.3763C101.519 21.821 102.665 23.7827 104.414 25.4125C106.375 27.2234 108.758 27.9477 111.412 27.9477C113.372 27.9477 115.363 27.9477 117.323 27.9477C117.685 27.9477 118.077 27.8874 118.439 27.8874V23.7224C118.198 23.6922 118.077 23.662 117.987 23.662M183.979 0.573486C182.11 0.573486 180.39 1.08656 178.822 2.11272C176.047 3.92359 174.539 6.42862 174.569 9.8089C174.569 13.0383 174.569 16.2677 174.569 19.4668C174.569 21.4286 175.384 23.0584 176.65 24.5373C178.762 26.9216 181.416 27.9779 184.553 27.9477C186.483 27.9477 188.413 27.9477 190.313 27.9477H191.55C191.55 27.163 191.55 26.4689 191.55 25.8351C191.52 25.1409 191.701 24.4165 191.399 23.662C189.258 23.662 187.146 23.662 185.035 23.662C184.281 23.662 183.527 23.5413 182.743 23.4809C180.933 23.3602 179.425 21.7606 179.093 20.1006C178.852 18.8934 178.762 15.6942 179.063 14.1248H182.17C183.165 14.1248 184.191 14.1248 185.186 14.1248C186.211 14.0946 187.267 14.2757 188.262 14.0041V9.83908H186.784C184.613 9.83908 182.441 9.83908 180.3 9.83908C179.847 9.83908 179.305 10.0202 179.003 9.50709C179.274 6.42862 181.838 4.73848 184.251 4.91956C185.457 5.01011 186.664 4.91956 187.87 4.91956H191.369V0.603667C188.775 0.603667 186.362 0.603667 183.979 0.603667M168.235 19.3461C168.175 21.2173 166.426 23.1188 164.556 23.4206C163.53 23.5715 162.444 23.6017 161.419 23.6318C160.605 23.662 159.82 23.6318 158.946 23.6318C158.614 21.4588 158.644 19.4367 159.006 17.4145C159.308 15.8149 161.117 14.3059 162.776 14.0946C163.108 14.0644 163.44 14.0946 163.772 14.0946C165.219 14.0946 166.637 14.0946 168.235 14.0946C168.235 15.996 168.296 17.656 168.235 19.3461ZM154.934 27.9477C157.739 27.9477 160.514 27.9779 163.319 27.9477C164.164 27.9477 165.068 27.827 165.883 27.5856C169.864 26.3481 172.82 23.2395 172.82 18.4407C172.82 12.9176 172.82 7.36423 172.82 1.84109V0.603667C171.975 0.603667 171.251 0.603667 170.558 0.603667C169.804 0.633849 169.05 0.452762 168.296 0.754573C168.296 2.29381 168.296 3.80286 168.296 5.28174C168.296 6.76061 168.416 8.23948 168.175 9.8089C166.607 9.8089 165.129 9.77872 163.651 9.8089C162.746 9.83908 161.841 9.92962 160.967 10.1409C157.287 11.0765 154.572 14.6982 154.452 18.0785C154.361 21.3079 154.452 24.5373 154.452 27.8572C154.723 27.9176 154.874 27.9477 154.995 27.9477M124.622 24.3864V21.0664C124.622 19.9196 124.622 18.7425 124.622 17.5956C124.622 16.4487 124.622 15.332 124.653 14.0946C126.643 14.0946 128.453 14.0644 130.263 14.0946C130.805 14.0946 131.378 14.3662 131.861 14.6379C133.61 15.6338 134.334 17.2334 134.364 19.1952C134.395 21.7002 134.364 24.2053 134.364 26.7103C134.364 27.0725 134.395 27.4347 134.425 27.9477C135.872 27.8572 137.26 28.0383 138.677 27.827C138.677 24.7184 138.708 21.7002 138.677 18.6821C138.677 16.6902 137.984 14.9397 136.536 13.491C135.993 12.9477 135.511 12.3743 134.968 11.7707C135.118 11.6499 135.269 11.5594 135.42 11.4387C137.2 10.1107 138.406 8.39039 138.617 6.18717C138.798 4.3763 138.647 2.56544 138.647 0.694211H134.364C134.364 2.11272 134.364 3.44069 134.364 4.79884C134.304 7.36423 132.494 9.77872 129.328 9.83908C128.091 9.83908 126.824 9.83908 125.588 9.83908C125.316 9.83908 125.045 9.74854 124.683 9.68817C124.532 8.14894 124.622 6.67007 124.622 5.19119C124.622 3.68214 124.622 2.17308 124.622 0.694211H120.43C120.189 2.53526 120.249 26.8914 120.49 27.9175H124.622V24.4467V24.3864ZM193.48 0.633849H197.884V9.65799C198.306 9.71836 198.638 9.77872 198.939 9.77872C200.146 9.77872 201.352 9.8089 202.559 9.77872C205.695 9.65799 207.596 7.24351 207.535 4.7083C207.505 3.38033 207.535 2.05236 207.535 0.633849H211.728C211.969 1.26765 211.818 1.93164 211.848 2.59562C211.848 3.2596 211.848 3.95377 211.848 4.61775C211.999 7.5755 210.763 9.8089 208.38 11.499C208.289 11.5594 208.229 11.6198 208.169 11.6801C208.139 11.7103 208.108 11.7707 208.018 11.9216C208.41 12.3139 208.862 12.7365 209.285 13.1288C210.401 14.155 211.215 15.3924 211.607 16.8713C211.698 17.2938 211.818 17.7163 211.818 18.1389C211.818 21.2173 211.818 24.2958 211.818 27.3743C211.818 27.495 211.758 27.6459 211.728 27.8572H207.626C207.596 27.5554 207.535 27.2536 207.535 26.9518C207.535 24.3562 207.535 21.7606 207.535 19.1349C207.535 16.0564 205.545 14.0946 202.498 14.0644C201.111 14.0644 199.693 14.0644 198.306 14.0644C198.216 14.0644 198.155 14.155 197.944 14.2455V27.7365C196.406 27.9477 194.988 27.827 193.51 27.8572V0.633849H193.48Z" fill="#FAFAFA"/>
<path d="M27.5639 18.1387C25.9653 23.9938 20.7173 28.0079 14.6247 28.0079H0.328369V24.5672L12.6039 21.6699C12.6039 21.6699 12.6039 21.6699 12.6039 21.7C12.6039 22.4546 13.2072 23.028 13.931 23.028C14.6549 23.028 15.2581 22.4244 15.2581 21.7C15.2581 20.9757 15.228 21.3077 15.1375 21.0662L17.671 20.4626C17.7313 20.523 17.7615 20.5833 17.8218 20.6437C18.3346 21.1568 19.1791 21.1568 19.722 20.6437C19.9331 20.4324 20.0537 20.1608 20.0839 19.8892L27.5337 18.1387H27.5639Z" fill="#FAFAFA"/>
<path d="M19.9029 9.29547C20.2347 9.80854 20.1744 10.5027 19.722 10.9554C19.2092 11.4685 17.2186 12.2532 16.8868 11.9212C16.5551 11.5892 16.7963 11.2271 17.0075 10.6536L9.13542 14.2452C9.49735 14.4564 9.7688 14.6979 9.7688 14.879C9.7688 15.392 7.80833 16.2069 7.08446 16.2069C6.36059 16.2069 6.27011 15.9957 6.02882 15.6637L0.328369 18.2592V23.9635L12.7246 21.0359C12.9659 20.1607 13.5691 19.044 13.931 19.044C14.293 19.044 14.6851 19.7683 14.9565 20.5228L17.3694 19.9494C16.9773 19.1647 16.6455 18.0782 16.8868 17.8367C17.2488 17.4745 19.2092 18.2592 19.722 18.8025C20.2347 19.3458 19.9934 19.1345 20.0537 19.3458L27.7147 17.5349C27.9258 16.5691 28.0163 15.6033 28.0163 14.6375V5.64355L19.9029 9.35583V9.29547ZM10.0403 20.6436C9.52751 21.1566 8.683 21.1566 8.1401 20.6436C7.62736 20.1305 7.62736 19.2854 8.1401 18.7421C8.65284 18.2291 10.6435 17.4444 10.9752 17.7764C11.3372 18.1385 10.553 20.1003 10.0101 20.6134L10.0403 20.6436ZM20.7776 16.2069C20.0537 16.2069 18.0933 15.3619 18.0933 14.879C18.0933 14.3961 20.0537 13.551 20.7776 13.551C21.5015 13.551 22.1047 14.1546 22.1047 14.879C22.1047 15.6033 21.5015 16.2069 20.7776 16.2069Z" fill="#FAFAFA"/>
<path d="M13.7501 0.301758C6.36059 0.301758 0.328369 6.33798 0.328369 13.7323V17.5955L5.75737 15.1207C5.75737 15.0301 5.75737 14.9698 5.75737 14.8792C5.75737 14.1247 6.36059 13.5513 7.08446 13.5513C7.80833 13.5513 7.92897 13.7022 8.44171 13.9134L17.3694 9.83898C17.5202 9.50699 17.7012 9.23536 17.852 9.08445C18.2742 8.66192 18.9679 8.57137 19.4505 8.87319L28.0464 4.94965V0.301758H13.7501ZM10.9752 11.8913C10.6133 12.2535 8.65284 11.4688 8.1401 10.9255C7.62736 10.4124 7.62736 9.56735 8.1401 9.02409C8.65284 8.51101 9.49735 8.51101 10.0403 9.02409C10.553 9.53717 11.3372 11.5291 11.0054 11.8611L10.9752 11.8913ZM13.931 10.6841C13.4183 10.6841 12.6039 8.72228 12.6039 7.99793C12.6039 7.27359 13.2072 6.66997 13.931 6.66997C14.6549 6.66997 15.2581 7.27359 15.2581 7.99793C15.2581 8.72228 14.4136 10.6841 13.931 10.6841Z" fill="#FAFAFA"/>
</g>
<defs>
<clipPath id="clip0_12_658">
<rect width="212.093" height="30" fill="white" transform="translate(0.0266113)"/>
</clipPath>
</defs>
</svg>
