<svg width="251" height="97" viewBox="0 0 251 97" fill="none" xmlns="http://www.w3.org/2000/svg">
<g clip-path="url(#clip0_12_523)">
<path fill-rule="evenodd" clip-rule="evenodd" d="M50.0533 46.5849V21.0818V16.8463V0.415527L3.95679 46.5849H50.0533Z" fill="#FAFAFA"/>
<path fill-rule="evenodd" clip-rule="evenodd" d="M50.0533 49.4185V74.9215V79.157V95.5878L3.95679 49.4185H50.0533Z" fill="#FAFAFA"/>
<path fill-rule="evenodd" clip-rule="evenodd" d="M97.3168 95.8057H83.7543H77.428H52.8826V78.0351V51.2993L97.3168 95.8057Z" fill="#FAFAFA"/>
<path fill-rule="evenodd" clip-rule="evenodd" d="M52.8826 0.199219V24.7815V28.8648V44.7037L97.3187 0.199219H52.8826Z" fill="#FAFAFA"/>
<path fill-rule="evenodd" clip-rule="evenodd" d="M0.0732422 0V25.7718V30.0524V46.6561L46.6557 0H0.0732422Z" fill="#FAFAFA"/>
<path fill-rule="evenodd" clip-rule="evenodd" d="M0.0732422 96.0745H25.8044H30.0782H46.6557L0.0732422 49.4185V96.0745Z" fill="#FAFAFA"/>
<path d="M95.4146 38.2866H101.336V47.0958L111.337 38.2866H118.868L107.602 48.103L119.356 59.7045H111.624L101.336 49.6288V59.7045H95.4146V38.2866Z" fill="#FAFAFA"/>
<path d="M144.914 48.5071V49.3715C144.914 53.9772 142.068 60.0523 132.067 60.0523H130.802C120.8 60.0523 117.954 53.9791 117.954 49.3715V48.5071C117.954 43.8432 120.8 37.9429 130.802 37.9429H132.067C142.068 37.9429 144.914 43.815 144.914 48.5071ZM131.434 42.836C125.455 42.836 124.104 46.0887 124.104 48.7383V49.1423C124.104 51.7336 125.541 55.1291 131.434 55.1291C137.327 55.1291 138.763 51.7317 138.763 49.1423V48.7383C138.763 46.0906 137.47 42.836 131.434 42.836Z" fill="#FAFAFA"/>
<path d="M147.068 52.9681V52.6524H153.507C153.593 53.6032 153.995 55.7323 158.537 55.7323H158.738C163.193 55.7323 163.768 54.4075 163.768 53.171C163.768 51.9346 162.935 51.0984 159.398 50.9537L156.552 50.8673C149.539 50.6361 147.297 47.8438 147.297 44.6212V44.3618C147.297 41.0227 149.079 38.0293 157.931 38.0293H158.908C168.364 38.0293 169.659 41.4831 169.659 44.3055V44.623H163.306C163.162 43.6722 162.646 42.2629 158.507 42.2629H158.22C154.426 42.2629 153.535 42.9826 153.535 44.1627C153.535 45.2563 154.312 46.0624 157.674 46.2071L160.634 46.3217C168.252 46.6393 170.09 49.1141 170.09 52.5979V52.9437C170.09 56.0818 168.653 60.0824 159.083 60.0824H158.25C148.218 60.0824 147.07 55.5331 147.07 52.9719" fill="#FAFAFA"/>
<path d="M172.319 49.3131V48.5351C172.319 43.9858 175.079 37.999 184.822 37.999H185.799C195.112 37.999 198.073 42.0579 198.073 45.5981V45.6563H191.951C191.722 45.1095 190.887 42.8358 185.341 42.8358C180.081 42.8358 178.473 45.801 178.473 48.6798V49.0537C178.473 51.8461 180.255 55.1852 185.544 55.1852C190.833 55.1852 191.724 52.4793 191.81 51.8461H186.004V48.0165H198.334V59.7045H193.621C193.534 58.9265 193.219 57.4307 192.902 56.7392C192.442 57.3443 190.2 60.0201 185.171 60.0201H184.711C175.283 60.0201 172.323 54.1179 172.323 49.3112" fill="#FAFAFA"/>
<path d="M221.843 42.9505H208.104V46.4344H221.412V51.2693H208.104V54.9843H222.016V59.7045H202.27V38.2866H221.843V42.9505Z" fill="#FAFAFA"/>
<path d="M241.364 38.2866C247.486 38.2866 249.01 40.9643 249.01 43.3527V43.6683C249.01 46.3742 246.681 47.6689 245.072 47.9001C247.486 48.3041 250.073 49.7416 250.073 53.1972V53.5148C250.073 56.4218 248.319 59.7045 241.451 59.7045H225.757V38.2866H241.364ZM231.678 46.5772H240.501C242.312 46.5772 242.83 45.7128 242.83 44.7056V44.6474C242.83 43.6101 242.256 42.7476 240.501 42.7476H231.678V46.5772ZM231.678 55.0124H240.961C243.03 55.0124 243.634 53.9188 243.634 52.8534V52.7387C243.634 51.6733 243.03 50.7807 240.961 50.7807H231.678V55.0124Z" fill="#FAFAFA"/>
</g>
<defs>
<clipPath id="clip0_12_523">
<rect width="250" height="96.0744" fill="white" transform="translate(0.0732422)"/>
</clipPath>
</defs>
</svg>
