<svg width="209" height="82" viewBox="0 0 209 82" fill="none" xmlns="http://www.w3.org/2000/svg">
<g clipPath="url(#clip0_194_3569)">
<path fill-rule="evenodd" clip-rule="evenodd" d="M176.478 45.2308V61.7156H186.59C188.109 61.7156 189.662 61.4377 190.969 60.6527C192.161 59.9476 193.045 59.0168 193.662 57.7872C194.331 56.4291 194.609 54.939 194.609 53.4315C194.609 51.9241 194.331 50.4826 193.645 49.1593C193.007 47.947 192.123 46.9988 190.948 46.3111C189.61 45.5434 188.105 45.2447 186.587 45.2308H176.475H176.478ZM176.478 34.4772H185.529C186.836 34.4598 188.126 34.1993 189.239 33.4942C190.237 32.8725 191.003 32.0389 191.509 30.9725C192.081 29.809 192.31 28.5342 192.31 27.2421C192.31 25.95 192.099 24.7204 191.527 23.5916C191.021 22.56 190.251 21.7576 189.256 21.1845C188.081 20.5141 186.708 20.2849 185.367 20.2849H176.478V34.4772ZM169.943 73.1118H163.36V8.88867H185.446C188.157 8.88867 190.872 9.20128 193.451 10.0036C195.77 10.6914 197.961 11.7542 199.854 13.2617C201.684 14.717 203.088 16.5024 204.1 18.6142C205.161 20.8719 205.601 23.345 205.619 25.8319C205.588 28.0271 205.258 30.2362 204.444 32.282C203.726 34.0013 202.759 35.6373 201.469 36.9954C200.7 37.8151 199.868 38.5515 198.939 39.1732C200.083 39.6491 201.161 40.2708 202.156 41.0384C203.497 42.07 204.607 43.3135 205.473 44.7376C206.357 46.1305 207.009 47.6344 207.435 49.2391C207.858 50.8439 208.073 52.4798 208.073 54.1505C208.073 57.0647 207.567 59.9789 206.26 62.6291C205.081 64.9875 203.449 66.9847 201.341 68.5547C199.185 70.1421 196.782 71.2883 194.2 72.0107C191.423 72.7818 188.58 73.1083 185.72 73.1083H169.94L169.943 73.1118Z" fill="#FAFAFA"/>
<path fill-rule="evenodd" clip-rule="evenodd" d="M89.0592 40.566C89.0765 43.4489 89.5341 46.2971 90.5949 48.9959C91.576 51.5003 92.9626 53.7753 94.7792 55.7413C96.5576 57.6412 98.6168 59.1313 100.988 60.1942C103.404 61.2918 105.956 61.7989 108.583 61.8128C111.232 61.7989 113.794 61.2883 116.214 60.1942C118.567 59.1278 120.64 57.6412 122.405 55.7413C124.235 53.7788 125.608 51.5003 126.603 48.9959C127.65 46.2971 128.122 43.4454 128.139 40.566C128.122 37.7838 127.65 35.0641 126.603 32.4973C125.608 30.0729 124.235 27.9124 122.422 26.0298C120.64 24.1959 118.567 22.7544 116.214 21.7402C113.794 20.6912 111.232 20.2015 108.601 20.1841C105.952 20.2015 103.404 20.6912 100.971 21.7402C98.6168 22.7544 96.5576 24.1959 94.7792 26.0298C92.9661 27.9124 91.576 30.0729 90.5949 32.4973C89.5341 35.0676 89.0765 37.7838 89.0592 40.566ZM75.501 40.566C75.501 36.9988 76.0245 33.4942 77.1338 30.1041C78.1808 26.8773 79.7165 23.852 81.7237 21.1011C83.6997 18.4022 86.0848 16.0264 88.7957 14.0605C91.5898 12.0459 94.644 10.5246 97.913 9.4756C101.376 8.34675 104.954 7.83963 108.597 7.82227C112.223 7.83963 115.818 8.34675 119.264 9.4756C122.533 10.5211 125.601 12.0459 128.382 14.0605C131.11 16.023 133.478 18.3988 135.471 21.1011C137.482 23.852 139 26.8808 140.061 30.1041C141.174 33.4942 141.676 36.9953 141.694 40.566C141.676 44.2165 141.17 47.8185 140.061 51.3057C139.014 54.6124 137.478 57.7072 135.471 60.538C133.495 63.3063 131.124 65.7447 128.382 67.7731C125.622 69.819 122.551 71.4063 119.282 72.4865C115.818 73.6328 112.223 74.1572 108.597 74.1746C104.954 74.1572 101.376 73.6328 97.913 72.4865C94.6301 71.4063 91.5725 69.819 88.7957 67.7731C86.0501 65.7447 83.6824 63.3063 81.7064 60.538C79.6957 57.7072 78.1773 54.6124 77.1304 51.3057C76.0037 47.8185 75.4976 44.2165 75.4976 40.566" fill="#FAFAFA"/>
<path d="M206.538 0H0.693848V1.91732H206.538V0Z" fill="#FAFAFA"/>
<path d="M206.538 80.0859H0.693848V81.9998H206.538V80.0859Z" fill="#FAFAFA"/>
<path d="M7.50578 18.1381C7.50578 18.5792 7.48844 18.989 7.47458 19.3503C7.47458 19.7428 7.43991 20.0866 7.37751 20.4131C7.32898 20.7396 7.23191 21.0522 7.08284 21.3475C6.95111 21.6427 6.75698 21.9032 6.49351 22.1672C6.13298 22.5111 5.74124 22.7889 5.30098 22.9869C4.87458 23.1675 4.36844 23.2648 3.78258 23.2648C3.19671 23.2648 2.70444 23.1675 2.26418 22.9869C1.82391 22.7889 1.43218 22.5111 1.07164 22.1672C0.811642 21.9067 0.614042 21.6427 0.482309 21.3475C0.350576 21.0522 0.253509 20.7396 0.187642 20.4131C0.121776 20.0866 0.104442 19.7428 0.0905755 19.3503C0.0732422 18.989 0.0732422 18.5827 0.0732422 18.1381C0.0732422 17.6935 0.0732422 17.3045 0.0905755 16.9259C0.107909 16.5507 0.125242 16.1895 0.187642 15.863C0.253509 15.5365 0.350576 15.2239 0.482309 14.946C0.614042 14.6508 0.808176 14.3729 1.07164 14.1263C1.43218 13.7651 1.82391 13.4872 2.26418 13.3066C2.70444 13.1086 3.21058 13.0113 3.78258 13.0113C4.35458 13.0113 4.87804 13.1086 5.30098 13.3066C5.74124 13.4872 6.13298 13.7651 6.49351 14.1263C6.75351 14.3729 6.95111 14.6508 7.08284 14.946C7.22844 15.2239 7.32898 15.5365 7.37751 15.863C7.44338 16.193 7.47458 16.5507 7.47458 16.9259C7.49191 17.301 7.50578 17.7108 7.50578 18.1381ZM5.54711 18.1381C5.54711 17.6622 5.52978 17.2524 5.51244 16.9432C5.49511 16.6341 5.48124 16.3701 5.42924 16.1582C5.39804 15.9637 5.34604 15.7831 5.28364 15.6685C5.21778 15.5365 5.13804 15.4219 5.03751 15.3246C4.90578 15.1614 4.72551 15.0294 4.51404 14.9321C4.30258 14.8349 4.05644 14.7862 3.77911 14.7862C3.51911 14.7862 3.27298 14.8349 3.04418 14.9321C2.83271 15.0294 2.65244 15.1614 2.50338 15.3246C2.42018 15.4219 2.34044 15.5365 2.27458 15.6685C2.22604 15.7831 2.17751 15.9637 2.12898 16.1582C2.09778 16.3701 2.06311 16.6341 2.06311 16.9432C2.02844 17.2558 2.02844 17.6622 2.02844 18.1381C2.02844 18.6139 2.02844 19.0203 2.06311 19.3329C2.06311 19.642 2.09431 19.906 2.12898 20.1179C2.17751 20.3298 2.22604 20.493 2.27458 20.625C2.34044 20.757 2.42018 20.8716 2.50338 20.9689C2.64898 21.1321 2.82924 21.2641 3.04418 21.3614C3.27298 21.4586 3.51911 21.5073 3.77911 21.5073C4.05644 21.5073 4.30258 21.4586 4.51404 21.3614C4.72551 21.2641 4.90578 21.1321 5.03751 20.9689C5.13458 20.8716 5.21778 20.757 5.28364 20.625C5.34951 20.493 5.39804 20.3298 5.42924 20.1179C5.47778 19.906 5.49511 19.642 5.51244 19.3329C5.52978 19.0203 5.54711 18.6278 5.54711 18.1381ZM15.9679 14.8661H13.3367V23.1814H11.3746V14.8661H8.74338V13.1155H15.9644V14.8661H15.9679ZM24.645 18.1381C24.645 18.5792 24.645 18.989 24.6276 19.3503C24.6276 19.7428 24.593 20.0866 24.5306 20.4131C24.4647 20.7396 24.3676 21.0522 24.2359 21.3475C24.0903 21.6427 23.8927 21.9032 23.6466 22.1672C23.286 22.5111 22.8943 22.7889 22.454 22.9869C22.0138 23.1675 21.5076 23.2648 20.9356 23.2648C20.3636 23.2648 19.8575 23.1675 19.4172 22.9869C18.977 22.7889 18.5679 22.5111 18.2074 22.1672C17.9612 21.9067 17.7671 21.6427 17.618 21.3475C17.4863 21.0522 17.3892 20.7396 17.3407 20.4131C17.2748 20.0866 17.2436 19.7428 17.2436 19.3503C17.2263 18.989 17.2263 18.5827 17.2263 18.1381C17.2263 17.6935 17.2263 17.3045 17.2436 16.9259C17.2436 16.5507 17.2748 16.1895 17.3407 15.863C17.3892 15.5365 17.4863 15.2239 17.618 14.946C17.7671 14.6508 17.9612 14.3729 18.2074 14.1263C18.5679 13.7651 18.9735 13.4872 19.4172 13.3066C19.8575 13.1086 20.3636 13.0113 20.9356 13.0113C21.5076 13.0113 22.0138 13.1086 22.454 13.3066C22.8943 13.4872 23.286 13.7651 23.6466 14.1263C23.8927 14.3729 24.0868 14.6508 24.2359 14.946C24.3676 15.2239 24.4647 15.5365 24.5306 15.863C24.5964 16.193 24.6276 16.5507 24.6276 16.9259C24.645 17.301 24.645 17.7108 24.645 18.1381ZM22.6828 18.1381C22.6828 17.6622 22.6828 17.2524 22.6655 16.9432C22.6482 16.6341 22.617 16.3701 22.5823 16.1582C22.5511 15.9637 22.4991 15.7831 22.4367 15.6685C22.3535 15.5365 22.2911 15.4219 22.1906 15.3246C22.045 15.1614 21.8647 15.0294 21.6671 14.9321C21.4383 14.8349 21.2095 14.7862 20.9322 14.7862C20.6548 14.7862 20.4087 14.8349 20.1972 14.9321C19.9858 15.0294 19.8055 15.1614 19.6599 15.3246C19.5767 15.4219 19.497 15.5365 19.4311 15.6685C19.3652 15.7831 19.3167 15.9637 19.2855 16.1582C19.2543 16.3701 19.2196 16.6341 19.2023 16.9432C19.185 17.2558 19.185 17.6622 19.185 18.1381C19.185 18.6139 19.185 19.0203 19.2023 19.3329C19.2196 19.642 19.2508 19.906 19.2855 20.1179C19.3202 20.3298 19.3687 20.493 19.4311 20.625C19.497 20.757 19.5802 20.8716 19.6599 20.9689C19.8055 21.1321 19.9858 21.2641 20.1972 21.3614C20.4087 21.4586 20.6548 21.5073 20.9322 21.5073C21.2095 21.5073 21.4383 21.4586 21.6671 21.3614C21.8647 21.2641 22.0415 21.1321 22.1906 20.9689C22.2876 20.8716 22.3535 20.757 22.4367 20.625C22.5026 20.493 22.5511 20.3298 22.5823 20.1179C22.617 19.906 22.6482 19.642 22.6655 19.3329C22.6828 19.0203 22.6828 18.6278 22.6828 18.1381ZM35.7522 23.1814H33.79V17.3045L31.8799 21.1182H30.5556L28.6108 17.3045V23.1814H26.6487V13.1121H28.5762L31.2074 18.5479L33.8212 13.1121H35.7487V23.1814H35.7522ZM45.178 18.1381C45.178 18.5792 45.178 18.989 45.1607 19.3503C45.1607 19.7428 45.126 20.0866 45.0636 20.4131C44.9978 20.7396 44.9007 21.0522 44.769 21.3475C44.6199 21.6427 44.4258 21.9032 44.1796 22.1672C43.8191 22.5111 43.4274 22.7889 42.9871 22.9869C42.5468 23.1675 42.0407 23.2648 41.4687 23.2648C40.8967 23.2648 40.3906 23.1675 39.9503 22.9869C39.51 22.7889 39.101 22.5111 38.7404 22.1672C38.4943 21.9067 38.3002 21.6427 38.1511 21.3475C38.0194 21.0522 37.9223 20.7396 37.8738 20.4131C37.8079 20.0866 37.7767 19.7428 37.7767 19.3503C37.7594 18.989 37.7594 18.5827 37.7594 18.1381C37.7594 17.6935 37.7594 17.3045 37.7767 16.9259C37.7767 16.5507 37.8114 16.1895 37.8738 15.863C37.9223 15.5365 38.0194 15.2239 38.1511 14.946C38.2967 14.6508 38.4943 14.3729 38.7404 14.1263C39.101 13.7651 39.5066 13.4872 39.9503 13.3066C40.3906 13.1086 40.8967 13.0113 41.4687 13.0113C42.0407 13.0113 42.5468 13.1086 42.9871 13.3066C43.4274 13.4872 43.8191 13.7651 44.1796 14.1263C44.4258 14.3729 44.6199 14.6508 44.769 14.946C44.9007 15.2239 44.9978 15.5365 45.0636 15.863C45.1295 16.193 45.1607 16.5507 45.1607 16.9259C45.178 17.301 45.178 17.7108 45.178 18.1381ZM43.2194 18.1381C43.2194 17.6622 43.2194 17.2524 43.202 16.9432C43.1847 16.6341 43.1535 16.3701 43.1188 16.1582C43.0876 15.9637 43.0356 15.7831 42.9732 15.6685C42.9074 15.5365 42.8276 15.4219 42.7271 15.3246C42.5815 15.1614 42.4012 15.0294 42.1898 14.9321C41.9922 14.8349 41.7495 14.7862 41.4722 14.7862C41.1948 14.7862 40.9487 14.8349 40.7372 14.9321C40.5258 15.0294 40.3455 15.1614 40.1999 15.3246C40.1028 15.4219 40.037 15.5365 39.9711 15.6685C39.9052 15.7831 39.8567 15.9637 39.8255 16.1582C39.7943 16.3701 39.7596 16.6341 39.7423 16.9432C39.725 17.2558 39.725 17.6622 39.725 18.1381C39.725 18.6139 39.725 19.0203 39.7423 19.3329C39.7596 19.642 39.7908 19.906 39.8255 20.1179C39.8567 20.3298 39.9087 20.493 39.9711 20.625C40.037 20.757 40.1028 20.8716 40.1999 20.9689C40.3455 21.1321 40.5258 21.2641 40.7372 21.3614C40.9487 21.4586 41.1948 21.5073 41.4722 21.5073C41.7495 21.5073 41.9956 21.4586 42.1898 21.3614C42.4012 21.2641 42.5815 21.1321 42.7271 20.9689C42.8242 20.8716 42.9074 20.757 42.9732 20.625C43.0391 20.493 43.0876 20.3298 43.1188 20.1179C43.1535 19.906 43.1847 19.642 43.202 19.3329C43.2194 19.0203 43.2194 18.6278 43.2194 18.1381ZM53.6575 14.8661H51.0263V23.1814H49.0642V14.8661H46.433V13.1155H53.654V14.8661H53.6575ZM57.2039 23.1814H55.2418V13.1121H57.2039V23.1814ZM57.2351 12.0631H55.2764V10.3125H57.2351V12.0631ZM66.5327 13.1121L63.2151 23.1814H61.7452L58.4276 13.1121H60.4522L62.4628 19.6594L64.4874 13.1121H66.5292H66.5327Z" fill="#FAFAFA"/>
<path d="M5.69272 36.9154H0.36792V28.3222H5.69272V29.1419H1.26579V32.1707H5.04099V32.9904H1.26579V36.0991H5.69272V36.9189V36.9154ZM13.9434 36.9154H13.0767L8.51805 30.0242V36.9154H7.60285V28.3222H8.46952L13.0282 35.1995V28.3222H13.9434V36.9154ZM22.3882 32.5285V33.4628C22.3709 33.7893 22.357 34.1158 22.305 34.4458C22.2565 34.7584 22.1594 35.0675 22.045 35.3454C21.9306 35.6406 21.7677 35.9011 21.5389 36.1165C21.2789 36.3805 20.9669 36.575 20.5925 36.7209C20.2319 36.8529 19.8263 36.9189 19.3653 36.9189H16.4255V28.3257H19.3653C19.8229 28.3257 20.2319 28.3917 20.5925 28.5236C20.9669 28.6695 21.2789 28.8675 21.5389 29.1141C21.7677 29.3434 21.9306 29.59 22.045 29.8679C22.1594 30.1284 22.2565 30.4062 22.305 30.7015C22.3535 30.9967 22.3709 31.3058 22.3882 31.6184V32.5354V32.5285ZM21.473 32.5285C21.473 32.2506 21.4557 31.9866 21.4557 31.7261C21.4557 31.4656 21.4383 31.219 21.4071 30.9724C21.3759 30.7431 21.3239 30.5139 21.2442 30.302C21.161 30.104 21.0466 29.9269 20.901 29.7637C20.6722 29.5344 20.4261 29.3712 20.1314 29.2739C19.8541 29.1905 19.5421 29.1419 19.2162 29.1419H17.3373V36.0991H19.2162C19.5421 36.0991 19.8541 36.0505 20.1314 35.9671C20.4261 35.8699 20.6722 35.7066 20.901 35.4774C21.0466 35.3141 21.161 35.1335 21.2442 34.9043C21.3274 34.675 21.3759 34.4284 21.4071 34.1679C21.4418 33.9074 21.4557 33.6261 21.4557 33.3482C21.4557 33.0703 21.473 32.7925 21.473 32.5285ZM30.4101 34.0846C30.4101 34.5083 30.3442 34.9008 30.1986 35.262C30.053 35.6233 29.8381 35.915 29.5781 36.179C29.3007 36.4395 28.9749 36.6375 28.6143 36.7834C28.2399 36.9154 27.8482 36.9953 27.4218 36.9953C26.9954 36.9953 26.5898 36.9119 26.2119 36.7834C25.8514 36.6375 25.5255 36.4395 25.2655 36.179C25.0055 35.9185 24.8079 35.6233 24.645 35.262C24.4994 34.9008 24.4335 34.5083 24.4335 34.0846V28.3222H25.3487V34.0012C25.3487 34.3277 25.3973 34.6229 25.4943 34.9008C25.5914 35.1613 25.7405 35.394 25.9207 35.5712C26.101 35.7692 26.3125 35.915 26.5759 36.0123C26.8221 36.1095 27.0994 36.1755 27.4253 36.1755C27.7511 36.1755 28.0146 36.1095 28.2746 36.0123C28.5346 35.915 28.7495 35.7657 28.9263 35.5712C29.1066 35.3906 29.2522 35.1613 29.3527 34.9008C29.4498 34.6229 29.5157 34.3277 29.5157 34.0012V28.3222H30.4135V34.0846H30.4101ZM29.1205 27.3878H28.2538V26.3076H29.1205V27.3878ZM26.5725 27.3878H25.7058V26.3076H26.5725V27.3878ZM37.9431 34.5569C37.9431 34.9321 37.8773 35.262 37.7317 35.5712C37.5999 35.8838 37.4058 36.1269 37.1285 36.3388C36.8685 36.5507 36.5565 36.7 36.1994 36.8146C35.8389 36.9293 35.4333 36.9953 34.9895 36.9953C34.3378 36.9953 33.7797 36.898 33.3394 36.7348C32.8645 36.5541 32.4415 36.2589 32.0325 35.849L32.6703 35.2273C33.0309 35.5885 33.3741 35.8317 33.7485 35.9637C34.109 36.0957 34.5319 36.1755 35.0069 36.1755C35.6447 36.1755 36.1335 36.0297 36.4941 35.7518C36.8546 35.4739 37.0349 35.0814 37.0349 34.5743C37.0349 34.3451 37.0037 34.1471 36.9378 33.9699C36.8719 33.7754 36.7575 33.6261 36.6258 33.4941C36.4941 33.3795 36.3485 33.2961 36.2029 33.2475C36.0538 33.1815 35.8285 33.1328 35.4991 33.0842L34.5007 32.9383C33.8143 32.8237 33.2909 32.5945 32.9165 32.2819C32.4901 31.8894 32.2613 31.351 32.2613 30.6772C32.2613 30.302 32.3271 29.9721 32.4589 29.6768C32.5906 29.3677 32.7709 29.1211 33.0135 28.9057C33.2423 28.6938 33.537 28.5306 33.8802 28.416C34.2061 28.3013 34.5978 28.2354 35.0242 28.2354C35.565 28.2354 36.0365 28.3187 36.4282 28.4646C36.8199 28.6105 37.2117 28.8571 37.5895 29.1836L36.9863 29.7706C36.7263 29.524 36.4455 29.3468 36.137 29.2149C35.8285 29.1002 35.4506 29.0342 34.993 29.0342C34.4037 29.0342 33.9634 29.1836 33.6549 29.4754C33.3429 29.7532 33.1799 30.1457 33.1799 30.6216C33.1799 31.0627 33.3117 31.3892 33.5717 31.6184C33.7034 31.7331 33.8663 31.8303 34.0778 31.9137C34.2719 31.997 34.5007 32.0457 34.7157 32.0943L35.6621 32.2402C36.0711 32.2888 36.3797 32.3722 36.6085 32.4521C36.8546 32.5493 37.0487 32.6813 37.229 32.8272C37.7178 33.237 37.9501 33.8102 37.9501 34.5465M44.8695 29.1384H42.3874V36.9154H41.4722V29.1384H38.9901V28.3187H44.8695V29.1384ZM51.4042 36.9154L49.4594 33.1016H47.4002V36.9154H46.4711V28.3222H49.7714C50.1458 28.3222 50.489 28.3708 50.801 28.4854C51.113 28.5827 51.373 28.7459 51.6018 28.9439C51.8306 29.1558 52.0108 29.4024 52.1252 29.715C52.257 30.0103 52.3228 30.3368 52.3228 30.7119C52.3228 31.3336 52.1426 31.8581 51.7994 32.2506C51.4562 32.6431 50.9986 32.9071 50.4439 33.0217L52.4858 36.9189H51.4076L51.4042 36.9154ZM51.4042 30.7258C51.4042 30.1839 51.2412 29.7914 50.9119 29.5309C50.5999 29.2704 50.1943 29.1384 49.6847 29.1384H47.3967V32.2819H49.6847C50.1908 32.2819 50.5999 32.1672 50.9119 31.9067C51.2378 31.6462 51.4042 31.2537 51.4042 30.7293M55.3077 36.9154H54.3925V28.3222H55.3077V36.9154ZM54.3925 26.3389H55.2418V27.4191H54.3925V26.3389ZM62.969 34.5569C62.969 34.9321 62.8858 35.262 62.7575 35.5712C62.6085 35.8838 62.4143 36.1269 62.1543 36.3388C61.8943 36.5507 61.5823 36.7 61.2218 36.8146C60.8613 36.9293 60.4383 36.9953 59.9981 36.9953C59.3602 36.9953 58.8055 36.898 58.3479 36.7348C57.8903 36.5541 57.4501 36.2589 57.0583 35.849L57.6962 35.2273C58.0394 35.5885 58.3999 35.8317 58.757 35.9637C59.1175 36.0957 59.5405 36.1755 60.0154 36.1755C60.6533 36.1755 61.142 36.0297 61.5026 35.7518C61.8631 35.4739 62.0573 35.0814 62.0573 34.5743C62.0573 34.3451 62.0087 34.1471 61.9429 33.9699C61.877 33.7754 61.7799 33.6261 61.6309 33.4941C61.4991 33.3795 61.3535 33.2961 61.2079 33.2475C61.0589 33.1815 60.8335 33.1328 60.5215 33.0842L59.5266 32.9383C58.8402 32.8237 58.2994 32.5945 57.9423 32.2819C57.502 31.8894 57.2871 31.351 57.2871 30.6772C57.2871 30.302 57.353 29.9721 57.4847 29.6768C57.6165 29.3677 57.7967 29.1211 58.0221 28.9057C58.2682 28.6938 58.5455 28.5306 58.8887 28.416C59.2319 28.3013 59.6063 28.2354 60.0327 28.2354C60.5874 28.2354 61.0623 28.3187 61.454 28.4646C61.8458 28.6105 62.2237 28.8571 62.598 29.1836L62.0087 29.7706C61.7314 29.524 61.4541 29.3468 61.1421 29.2149C60.8474 29.1002 60.4557 29.0342 59.9981 29.0342C59.4087 29.0342 58.9685 29.1836 58.6599 29.4754C58.3479 29.7532 58.185 30.1457 58.185 30.6216C58.185 31.0627 58.3167 31.3892 58.5767 31.6184C58.7085 31.7331 58.8887 31.8303 59.0829 31.9137C59.2943 31.997 59.5093 32.0457 59.7381 32.0943L60.6844 32.2402C61.0762 32.2888 61.3847 32.3722 61.6309 32.4521C61.8597 32.5493 62.0711 32.6813 62.2341 32.8272C62.7229 33.237 62.969 33.8102 62.969 34.5465M65.7978 36.9154H64.8826V28.3222H65.7978V36.9154ZM64.8826 26.3389H65.7493V27.4191H64.8826V26.3389Z" fill="#FAFAFA"/>
<path d="M0.939817 48.4573H0.21875V41.6633H0.93635V48.4573H0.939817ZM0.21875 40.0898H0.887817V40.9408H0.21875V40.0898ZM7.58888 48.4573H6.85395V45.3625H3.63688V48.4573H2.91928V41.6633H3.63688V44.7095H6.85395V41.6633H7.58888V48.4573ZM13.4372 48.4573L11.9014 45.4458H10.2686V48.4573H9.55102V41.6633H12.1476C12.4596 41.6633 12.7196 41.6946 12.9657 41.7779C13.2118 41.8752 13.4233 41.9898 13.6035 42.1565C13.7838 42.3198 13.9156 42.5143 14.0126 42.7609C14.127 42.9901 14.1582 43.2506 14.1582 43.5459C14.1582 44.053 14.0265 44.4455 13.7492 44.772C13.4892 45.0811 13.1286 45.2791 12.6884 45.3764L14.29 48.4538H13.4406L13.4372 48.4573ZM13.4372 43.5632C13.4372 43.136 13.3054 42.8269 13.0628 42.6115C12.8166 42.417 12.4908 42.2989 12.0817 42.2989H10.2686V44.8032H12.0817C12.4908 44.8032 12.8166 44.6886 13.0628 44.4906C13.3089 44.2961 13.4372 43.9662 13.4372 43.5598M20.5438 48.4573H19.7604L19.223 46.9185H16.2486L15.7113 48.4573H14.9452L17.4446 41.6633H18.0478L20.5473 48.4573H20.5438ZM19.0081 46.2968L17.7497 42.6949L16.474 46.2968H19.0081ZM26.0974 46.4913C26.0489 46.8178 25.9518 47.0957 25.8028 47.3423C25.671 47.6028 25.5081 47.8182 25.2966 47.9814C25.0852 48.162 24.8564 48.294 24.5929 48.3739C24.3329 48.4712 24.0555 48.5198 23.7435 48.5198C23.4177 48.5198 23.0884 48.4538 22.7972 48.3392C22.5025 48.2072 22.2425 48.0439 22.0137 47.8147C21.8507 47.6514 21.7364 47.4882 21.6393 47.3076C21.5561 47.1443 21.4902 46.9463 21.459 46.7345C21.4105 46.5191 21.3932 46.276 21.3932 45.9981C21.3758 45.7376 21.3758 45.4111 21.3758 45.0499C21.3758 44.6886 21.3758 44.3795 21.3932 44.0981C21.3932 43.8376 21.4105 43.591 21.459 43.3792C21.4902 43.1673 21.5561 42.9693 21.6393 42.806C21.7364 42.6254 21.8507 42.4622 22.0137 42.2989C22.2425 42.0697 22.5025 41.9064 22.7972 41.7744C23.0918 41.6598 23.4177 41.5938 23.7435 41.5938C24.0694 41.5938 24.3329 41.6425 24.5929 41.7258C24.8564 41.8231 25.0817 41.9551 25.2966 42.1357C25.5081 42.2989 25.671 42.5108 25.8028 42.7748C25.9484 43.0214 26.0489 43.2993 26.0974 43.6258H25.3625C25.2654 43.202 25.0851 42.872 24.8078 42.6289C24.5305 42.3684 24.1873 42.2503 23.747 42.2503C23.5356 42.2503 23.3067 42.285 23.1091 42.3649C22.8977 42.4622 22.7174 42.5768 22.5857 42.7262C22.4713 42.8408 22.3742 42.9554 22.3257 43.07C22.2598 43.202 22.2113 43.3479 22.1801 43.5285C22.1454 43.6918 22.1316 43.9071 22.1142 44.1502C22.0969 44.3969 22.0969 44.706 22.0969 45.0499C22.0969 45.3937 22.0969 45.7202 22.1142 45.9668C22.1316 46.21 22.1454 46.408 22.1801 46.5886C22.2113 46.7692 22.2633 46.9151 22.3257 47.0297C22.3742 47.1617 22.4748 47.2763 22.5857 47.3909C22.7174 47.5368 22.8977 47.6688 23.1091 47.7522C23.3067 47.8182 23.5356 47.8668 23.747 47.8668C24.1873 47.8668 24.5305 47.7522 24.8252 47.4917C25.1025 47.245 25.3001 46.9185 25.3798 46.4948H26.0974V46.4913ZM32.438 48.4573H31.6718L31.131 46.9185H28.1566L27.6158 48.4573H26.8324L29.3318 41.6633H29.9524L32.4345 48.4573H32.438ZM30.9161 46.2968L29.6404 42.6949L28.3646 46.2968H30.9126H30.9161ZM37.4993 42.3024H35.5233V48.4573H34.8057V42.3024H32.8297V41.6633H37.5028V42.3024H37.4993ZM43.2366 46.4913C43.1395 47.0644 42.9246 47.5055 42.5849 47.8494C42.2417 48.1933 41.8187 48.4052 41.3092 48.4885V49.5028H40.6401V48.5024C40.3628 48.4712 40.0854 48.4052 39.8393 48.2905C39.5793 48.1759 39.3505 48.0127 39.1529 47.8147C38.99 47.6514 38.8582 47.4882 38.7785 47.3076C38.6953 47.1443 38.6294 46.9463 38.5809 46.7345C38.5462 46.5191 38.515 46.276 38.515 45.9981C38.515 45.7376 38.4977 45.4111 38.4977 45.0499C38.4977 44.6886 38.515 44.3795 38.515 44.0981C38.515 43.8376 38.5462 43.591 38.5809 43.3792C38.6294 43.1673 38.6953 42.9693 38.7785 42.806C38.8617 42.6254 38.99 42.4622 39.1529 42.2989C39.3817 42.0697 39.6417 41.9064 39.9363 41.7744C40.231 41.6598 40.5396 41.5938 40.8828 41.5938C41.1948 41.5938 41.4721 41.6425 41.7321 41.7258C41.9955 41.8231 42.2209 41.9551 42.4358 42.1357C42.6334 42.2989 42.8137 42.5108 42.942 42.7748C43.0876 43.0214 43.1881 43.2993 43.2366 43.6258H42.5017C42.4046 43.202 42.2243 42.872 41.947 42.6289C41.6697 42.3684 41.3092 42.2503 40.8862 42.2503C40.6574 42.2503 40.4459 42.285 40.2483 42.3649C40.0369 42.4622 39.8566 42.5768 39.7076 42.7262C39.5932 42.8408 39.51 42.9554 39.4476 43.07C39.3817 43.202 39.3505 43.3479 39.3158 43.5285C39.2812 43.6918 39.25 43.9071 39.25 44.1502C39.2326 44.3969 39.2326 44.706 39.2326 45.0499C39.2326 45.3937 39.2326 45.7202 39.25 45.9668C39.25 46.21 39.2812 46.408 39.3158 46.5886C39.347 46.7692 39.3817 46.9151 39.4476 47.0297C39.5134 47.1617 39.5932 47.2763 39.7076 47.3909C39.8531 47.5368 40.0334 47.6688 40.2483 47.7522C40.4459 47.8182 40.6574 47.8668 40.8862 47.8668C41.3126 47.8668 41.6697 47.7522 41.947 47.4917C42.2417 47.245 42.422 46.9185 42.519 46.4948H43.2366V46.4913ZM45.5697 48.4573H44.8347V41.6633H45.5697V48.4573ZM51.7299 48.4573H47.5318V41.6633H48.2529V47.8182H51.7334V48.4573H51.7299ZM57.7273 48.4573H56.9612L56.4203 46.9185H53.446L52.9086 48.4573H52.1251L54.6246 41.6633H55.2451L57.7273 48.4573ZM56.2054 46.2968L54.9297 42.6949L53.6574 46.2968H56.2054ZM62.7262 48.4573L61.1731 45.4458H59.5577V48.4573H58.8228V41.6633H61.4366C61.7313 41.6633 62.0086 41.6946 62.2374 41.7779C62.4836 41.8752 62.695 41.9898 62.8753 42.1565C63.0555 42.3198 63.1838 42.5143 63.2982 42.7609C63.3953 42.9901 63.4438 43.2506 63.4438 43.5459C63.4438 44.053 63.2982 44.4455 63.0347 44.772C62.7574 45.0811 62.3969 45.2791 61.9566 45.3764L63.5755 48.4538H62.7262V48.4573ZM62.7089 43.5632C62.7089 43.136 62.5945 42.8269 62.3345 42.6115C62.0884 42.417 61.7625 42.2989 61.3534 42.2989H59.5577V44.8032H61.3534C61.7625 44.8032 62.0884 44.6886 62.3345 44.4906C62.5945 44.2961 62.7089 43.9662 62.7089 43.5598M65.7977 48.4573H65.0801V41.6633H65.7977V48.4573Z" fill="#FAFAFA"/>
<path d="M11.2324 64.7929C11.2324 65.4632 11.1354 66.0537 10.9204 66.5608C10.6916 67.068 10.397 67.4952 10.0052 67.8391C9.63082 68.1829 9.15589 68.4434 8.63242 68.624C8.09162 68.8047 7.50576 68.9019 6.86789 68.9019H0.891357V54.6089H6.62522C8.02922 54.6089 9.10736 54.9701 9.87696 55.6891C10.6431 56.4116 11.0383 57.3911 11.0383 58.6207C11.0383 59.0305 10.9724 59.3883 10.8754 59.7009C10.7436 60.0274 10.598 60.3087 10.4178 60.5692C10.2375 60.8158 10.0572 61.0103 9.84576 61.191C9.64816 61.3716 9.45402 61.5036 9.27376 61.5661C9.48522 61.6633 9.71402 61.7953 9.94282 61.976C10.1716 62.1566 10.3831 62.3685 10.5807 62.6151C10.761 62.8756 10.9239 63.1708 11.0383 63.532C11.17 63.8933 11.2359 64.3031 11.2359 64.7929M8.24069 58.7353C8.24069 58.2455 8.09162 57.853 7.78309 57.5578C7.45722 57.2452 6.99962 57.0993 6.41029 57.0993H3.68202V60.3921H6.41029C6.99962 60.3921 7.45722 60.2427 7.78309 59.951C8.09162 59.6418 8.24069 59.2459 8.24069 58.7387M8.45562 64.647C8.45562 64.1711 8.31002 63.7648 7.99802 63.4209C7.70336 63.077 7.23189 62.8964 6.59402 62.8964H3.68549V66.415H6.59402C7.23189 66.415 7.70336 66.2343 7.99802 65.8905C8.31002 65.5466 8.45562 65.1367 8.45562 64.647ZM16.8692 68.9054H14.0751V54.6123H16.8692V68.9054ZM16.9004 53.1535H14.1236V50.6318H16.9004V53.1535ZM27.765 68.9054L24.9708 63.209H22.9775V68.9054H20.1834V54.6123H25.7716C26.4892 54.6123 27.1444 54.727 27.7164 54.9736C28.2884 55.2028 28.7772 55.512 29.1863 55.9079C29.578 56.3004 29.89 56.7589 30.1015 57.2973C30.2991 57.8218 30.3962 58.3775 30.3962 58.9819C30.3962 59.489 30.3303 59.9301 30.1986 60.34C30.053 60.7498 29.8727 61.1076 29.6266 61.4202C29.3804 61.7293 29.1031 62.0107 28.7946 62.2226C28.4826 62.4518 28.1394 62.6151 27.7962 62.747L30.982 68.9019H27.765V68.9054ZM27.6159 58.9819C27.6159 58.4261 27.4356 57.9677 27.0612 57.6238C26.7007 57.2799 26.2119 57.0993 25.5914 57.0993H22.9775V60.8818H25.5914C26.2119 60.8818 26.7007 60.7012 27.0612 60.3574C27.4356 59.9961 27.6159 59.555 27.6159 58.9819ZM42.5503 68.9054H33.2874V54.6123H36.0815V66.415H42.5503V68.9054ZM47.5978 68.9054H44.8036V54.6123H47.5978V68.9054ZM47.629 53.1535H44.8522V50.6318H47.629V53.1535ZM61.0762 63.0423C61.0762 64.0739 60.9791 64.9249 60.7815 65.5952C60.57 66.283 60.2268 66.8734 59.7207 67.3945C59.1487 67.9988 58.5108 68.4261 57.8418 68.6553C57.1727 68.9019 56.4551 69.0165 55.6855 69.0165C54.9159 69.0165 54.1844 68.8845 53.5604 68.624C52.9226 68.3635 52.3506 67.9676 51.8444 67.4605C51.4839 67.0992 51.2066 66.7067 51.0124 66.2969C50.8148 65.887 50.6866 65.4632 50.6034 64.9874C50.5201 64.5115 50.4716 64.0218 50.4578 63.4834C50.4404 62.9416 50.4404 62.3685 50.4404 61.7467C50.4404 61.125 50.4404 60.5692 50.4578 60.0274C50.4751 59.4855 50.5236 58.9958 50.6034 58.5199C50.6831 58.0441 50.8148 57.6203 51.0124 57.2105C51.21 56.8006 51.4874 56.4081 51.8444 56.0469C52.3506 55.5397 52.9052 55.1473 53.5431 54.8833C54.1636 54.6228 54.8812 54.4908 55.682 54.4908C56.4828 54.4908 57.2351 54.6054 57.8695 54.852C58.49 55.0986 59.0308 55.4425 59.4711 55.8662C59.9114 56.2761 60.2546 56.7659 60.518 57.3216C60.778 57.8773 60.9583 58.4505 61.0554 59.0583H58.2474C58.0844 58.3706 57.8071 57.8635 57.3807 57.5022C56.9716 57.141 56.417 56.9777 55.682 56.9777C55.3076 56.9777 54.9471 57.0437 54.6524 57.1896C54.3578 57.3216 54.1151 57.5022 53.9002 57.7315C53.7684 57.8808 53.6575 58.0441 53.5743 58.2386C53.4772 58.4018 53.4114 58.6484 53.3628 58.9437C53.3143 59.2389 53.2658 59.6002 53.2484 60.0586C53.2311 60.4998 53.2172 61.0729 53.2172 61.7467C53.2172 62.4206 53.2346 63.0076 53.2484 63.466C53.2658 63.9072 53.3143 64.2858 53.3628 64.581C53.4114 64.8936 53.4772 65.1194 53.5743 65.3C53.6575 65.4806 53.7719 65.6439 53.9002 65.7932C54.1116 66.0225 54.3578 66.2031 54.6524 66.3351C54.9471 66.4671 55.3042 66.5296 55.682 66.5296C56.1084 66.5296 56.5002 66.4636 56.826 66.3351C57.1519 66.1857 57.4466 65.9912 57.6754 65.7307C57.9042 65.4702 58.0671 65.175 58.1642 64.8624C58.2612 64.5532 58.3098 64.2094 58.3098 63.8308V63.2889H55.6786V60.9652H61.0692V63.0458L61.0762 63.0423ZM59.0343 50.6839C58.9996 51.2084 58.9025 51.6808 58.7223 52.0594C58.542 52.4519 58.2959 52.7645 58.0047 53.0076C57.71 53.2369 57.3668 53.4175 56.9924 53.5321C56.6007 53.6467 56.1916 53.7127 55.7687 53.7127C55.3458 53.7127 54.9367 53.6467 54.545 53.5321C54.1706 53.4175 53.8274 53.2369 53.5154 53.0076C53.2207 52.761 52.978 52.4519 52.7804 52.0594C52.6002 51.6808 52.4858 51.2084 52.4684 50.6839H54.233C54.2815 51.1077 54.4618 51.4203 54.7564 51.6009C55.0511 51.7815 55.377 51.8788 55.7687 51.8788C56.1604 51.8788 56.4863 51.7815 56.781 51.6009C57.0756 51.4203 57.2385 51.1112 57.2871 50.6839H59.0343ZM66.6783 68.9054H63.9015V54.6123H66.6783V68.9054ZM66.7268 53.1535H63.9327V50.6318H66.7268V53.1535Z" fill="#FAFAFA"/>
<path fill-rule="evenodd" clip-rule="evenodd" d="M158.41 45.2308V73.1083H145.275V25.0157H158.41V45.2343V45.2308ZM145.275 8.88867H158.41V20.2814H145.275V8.88867Z" fill="#FAFAFA"/>
</g>
<defs>
<clipPath id="clip0_194_3569">
<rect width="208" height="82" fill="white" transform="translate(0.0732422)"/>
</clipPath>
</defs>
</svg>
