<svg width="251" height="187" viewBox="0 0 251 187" fill="none" xmlns="http://www.w3.org/2000/svg">
<g clip-path="url(#clip0_12_539)">
<path d="M182.396 42.0483C182.396 42.0483 182.396 42.0605 182.408 42.0788C182.408 42.0666 182.402 42.0605 182.396 42.0483Z" fill="#FAFAFA"/>
<path d="M78.6363 52.5805C78.7521 52.3306 78.8435 52.0929 78.9106 51.8857C78.9837 51.6785 79.0264 51.4896 79.063 51.3311C79.13 51.0202 79.1422 50.8374 79.1422 50.8374C79.1422 50.8374 79.0508 50.9959 78.8862 51.2579C78.7216 51.52 78.4779 51.8918 78.167 52.2941C77.8501 52.7024 77.46 53.1474 76.9907 53.5252C76.753 53.7142 76.497 53.8848 76.2227 54.0128C76.0826 54.0738 75.9424 54.1347 75.8022 54.1774C75.7291 54.1957 75.6559 54.2262 75.5889 54.2383C75.5218 54.2505 75.4609 54.2688 75.3634 54.281L75.2354 54.2993H75.2232H75.1927L75.1318 54.3054C75.0525 54.3115 74.9794 54.3176 74.9002 54.3176C74.7478 54.3176 74.5954 54.3176 74.443 54.2993C74.1444 54.2627 73.8579 54.1835 73.5898 54.0677C73.0534 53.8361 72.6146 53.4643 72.2976 53.0803C71.9746 52.7024 71.7796 52.3185 71.6699 52.032C71.615 51.8918 71.5784 51.776 71.5602 51.6968C71.5419 51.6175 71.5297 51.5688 71.5297 51.5688C71.5297 51.5688 71.5236 51.6115 71.5053 51.6968C71.4992 51.7821 71.4809 51.9101 71.4931 52.0686C71.5053 52.227 71.5236 52.4282 71.5845 52.6476C71.6455 52.867 71.7308 53.1108 71.8649 53.3668C71.999 53.6167 72.1757 53.8787 72.4013 54.1225C72.6268 54.3663 72.901 54.5979 73.2302 54.7808C73.5532 54.9697 73.925 55.0977 74.315 55.1709C74.7051 55.2379 75.1074 55.2379 75.4975 55.1831C75.5767 55.177 75.6864 55.1526 75.79 55.1282C75.8997 55.1038 75.9911 55.0733 76.0826 55.0429C76.2715 54.9819 76.4544 54.8966 76.6311 54.8052C76.9785 54.6223 77.2772 54.3846 77.5392 54.1347C78.0573 53.6289 78.3986 53.062 78.6363 52.5623V52.5805Z" fill="#FAFAFA"/>
<path d="M96.2201 39.8727C97.6219 38.4587 99.6272 38.1661 100.694 39.2266C100.816 39.3485 100.919 39.4887 101.011 39.6289C101.212 38.7207 101.035 37.837 100.438 37.2519C99.3712 36.1914 97.366 36.4839 95.9641 37.8979C94.7208 39.1474 94.3673 40.86 95.0377 41.9754C95.1962 41.2501 95.5984 40.5004 96.2201 39.8727Z" fill="#FAFAFA"/>
<path d="M72.5232 48.125C71.7613 50.5873 72.5049 53.0009 74.1871 53.5251C75.8693 54.0431 77.8501 52.4706 78.612 50.0144C79.3738 47.5521 78.6303 45.1385 76.9481 44.6143C75.2659 44.0963 73.2851 45.6688 72.5232 48.125Z" fill="#FAFAFA"/>
<path d="M148.307 28.1336C148.014 27.0609 146.899 25.781 145.302 24.8302C143.017 23.4649 140.609 23.2882 139.926 24.434C139.402 25.3117 140.048 26.7074 141.408 27.9264C141.28 27.4632 141.304 27.0365 141.505 26.6952C142.188 25.5494 144.595 25.7322 146.881 27.0914C147.417 27.4083 147.892 27.7679 148.307 28.1397V28.1336Z" fill="#FAFAFA"/>
<path d="M171.912 35.5636C172.912 36.5632 174.131 36.9655 174.631 36.4596C175.131 35.9598 174.722 34.7469 173.716 33.7474C172.717 32.7478 171.498 32.3455 170.998 32.8514C170.498 33.3512 170.907 34.5641 171.912 35.5636Z" fill="#FAFAFA"/>
<path d="M96.2689 30.3036C96.3238 30.2122 96.3908 30.1147 96.4517 29.9989C96.5858 29.7733 96.7321 29.5113 96.8784 29.2126C96.9576 29.0663 97.0247 28.914 97.0978 28.7555C97.1648 28.597 97.238 28.4386 97.305 28.274C97.4391 27.9449 97.5549 27.6097 97.6524 27.2866C97.6829 27.183 97.7073 27.0855 97.7378 26.988C97.8962 27.0672 98.0669 27.1343 98.2558 27.183C98.6337 27.2744 99.0664 27.2866 99.5297 27.244C99.5479 27.372 99.5601 27.506 99.5723 27.6523C99.5906 27.8717 99.6089 28.1094 99.6272 28.3471C99.6942 29.2979 99.7247 30.2609 99.7247 30.2609C99.7247 30.2609 100.023 29.3467 100.292 28.4142C100.426 27.9449 100.554 27.4756 100.633 27.1038C100.633 27.0794 100.639 27.0611 100.645 27.0367C101.456 26.8173 102.321 26.4455 103.174 25.9458L105.015 27.6828L104.064 25.385C104.662 24.9645 105.198 24.5013 105.655 24.0259C105.698 24.0442 105.734 24.0624 105.783 24.0746C105.874 24.1051 105.966 24.1356 106.063 24.16C106.258 24.2148 106.466 24.2514 106.667 24.2758C106.874 24.3001 107.075 24.3062 107.27 24.3001C107.459 24.294 107.636 24.2697 107.788 24.2331C107.935 24.2026 108.05 24.1478 108.13 24.1112C108.203 24.0624 108.239 24.0381 108.239 24.0381C108.239 24.0381 108.19 24.0502 108.111 24.0563C108.032 24.0563 107.916 24.0563 107.782 24.0259C107.648 24.0015 107.496 23.9466 107.343 23.8857C107.191 23.8186 107.032 23.7333 106.88 23.6419C106.734 23.5444 106.588 23.4469 106.472 23.3371C106.423 23.3006 106.38 23.2579 106.338 23.2152C106.417 23.1055 106.496 22.9958 106.569 22.88C107.045 22.1486 107.27 21.4538 107.246 20.8504C107.355 20.8565 107.465 20.8687 107.575 20.8687C107.861 20.8809 108.16 20.887 108.465 20.8687C109.068 20.8504 109.665 20.759 110.098 20.6432C110.312 20.5884 110.488 20.5274 110.61 20.4786C110.726 20.4299 110.799 20.3994 110.799 20.3994C110.799 20.3994 110.726 20.4055 110.598 20.4177C110.47 20.4299 110.293 20.436 110.074 20.4299C109.641 20.4177 109.08 20.3385 108.532 20.1983C108.258 20.1312 107.989 20.0459 107.739 19.9606C107.49 19.8753 107.264 19.7838 107.069 19.7046C106.978 19.6619 106.886 19.6254 106.813 19.5949C106.734 19.5583 106.667 19.5278 106.606 19.5035C106.606 19.5035 106.6 19.5035 106.594 19.5035C106.344 19.2901 106.033 19.1317 105.667 19.0403C104.302 18.7111 102.248 19.284 100.31 20.5274C97.9511 22.0389 96.5675 24.0015 96.6894 25.4643C96.6894 25.4643 96.7016 25.5496 96.7138 25.702C96.726 25.7812 96.726 25.8543 96.7382 25.9458C96.7504 26.0372 96.7504 26.153 96.7565 26.2749C96.7626 26.5187 96.7687 26.8051 96.7565 27.116C96.7443 27.4268 96.7138 27.7559 96.6651 28.0851C96.6468 28.2496 96.6163 28.4142 96.5858 28.5787C96.5554 28.7433 96.5249 28.9018 96.4883 29.0541C96.4213 29.365 96.342 29.6514 96.2689 29.8952C96.2323 30.0171 96.1958 30.1268 96.1653 30.2305C96.1348 30.328 96.1043 30.4133 96.0739 30.4864C96.0251 30.6266 95.9946 30.7059 95.9946 30.7059C95.9946 30.7059 96.0434 30.6327 96.1287 30.5108C96.1714 30.4499 96.2201 30.3706 96.275 30.2853L96.2689 30.3036ZM102.955 24.6719C100.95 25.9579 99.0177 26.5187 98.6337 25.9275C98.2497 25.3363 99.5662 23.8065 101.571 22.5204C103.577 21.2344 105.509 20.6737 105.893 21.2649C106.277 21.8561 104.96 23.3859 102.955 24.6719Z" fill="#FAFAFA"/>
<path d="M158.303 37.343C158.236 37.3613 158.162 37.3735 158.077 37.3979C157.973 37.4283 157.833 37.4466 157.687 37.4771C157.108 37.5807 156.304 37.666 155.487 37.6599C155.078 37.6599 154.664 37.6417 154.28 37.6051C153.89 37.5746 153.53 37.5259 153.219 37.4771C153.061 37.4527 152.921 37.4222 152.799 37.404C152.671 37.3796 152.561 37.3613 152.476 37.3369C152.293 37.3003 152.189 37.276 152.189 37.276C152.189 37.276 152.281 37.3247 152.445 37.4161C152.525 37.4588 152.622 37.5137 152.738 37.5746C152.854 37.6356 152.982 37.7026 153.128 37.7696C153.415 37.9098 153.756 38.0683 154.134 38.2146C154.512 38.3669 154.92 38.5132 155.334 38.6351C155.816 38.7814 156.303 38.9033 156.767 38.9886C156.596 39.5737 156.578 40.2685 156.712 41.0243C156.371 41.1157 155.968 41.2072 155.566 41.2925C154.414 41.5424 153.244 41.7496 153.244 41.7496C153.244 41.7496 154.396 42.0361 155.566 42.286C156.133 42.4018 156.7 42.5115 157.163 42.5785C157.522 43.4988 158.059 44.4679 158.766 45.4248L157.09 47.8567L159.692 46.5707C160.259 47.2045 160.856 47.7653 161.466 48.2407C161.466 48.2407 161.466 48.2528 161.466 48.2589C161.441 48.3747 161.423 48.4966 161.411 48.6246C161.381 48.8745 161.368 49.1427 161.374 49.3987C161.393 49.9168 161.484 50.4226 161.63 50.7761C161.697 50.9529 161.783 51.087 161.844 51.1723C161.917 51.2576 161.953 51.2942 161.953 51.2942C161.953 51.2942 161.935 51.2332 161.923 51.1357C161.917 51.0321 161.911 50.898 161.935 50.7274C161.984 50.3983 162.136 49.9777 162.344 49.5998C162.453 49.4109 162.563 49.2341 162.685 49.0818C162.685 49.0757 162.697 49.0696 162.703 49.0635C162.837 49.1366 162.971 49.2158 163.099 49.2768C164.014 49.7278 164.855 49.9107 165.586 49.8375C165.586 49.9107 165.592 49.9777 165.604 50.0508C165.635 50.4043 165.684 50.7761 165.751 51.1479C165.879 51.8854 166.086 52.6046 166.305 53.1105C166.409 53.3665 166.512 53.5676 166.592 53.7078C166.671 53.8419 166.72 53.9211 166.72 53.9211C166.72 53.9211 166.701 53.8358 166.677 53.6773C166.653 53.5249 166.622 53.3055 166.61 53.0373C166.579 52.5071 166.628 51.8123 166.75 51.1357C166.811 50.7944 166.884 50.4592 166.97 50.1484C167.049 49.8375 167.14 49.5511 167.219 49.3073C167.293 49.1061 167.354 48.9355 167.396 48.8014C167.939 48.0151 168.054 46.8815 167.701 45.5162C167.329 44.09 166.482 42.5054 165.312 41.0548C164.129 39.592 162.746 38.4218 161.417 37.7636C160.241 37.1784 159.174 37.0383 158.327 37.3247L158.303 37.343ZM165.616 47.9542C164.672 48.7161 162.685 47.8201 161.179 45.9551C159.674 44.09 159.211 41.9568 160.155 41.195C161.1 40.4331 163.087 41.3291 164.593 43.1941C166.098 45.0591 166.561 47.1923 165.616 47.9542Z" fill="#FAFAFA"/>
<path d="M128.157 12.0189C128.218 12.2688 128.371 12.5309 128.486 12.7381C128.663 13.0611 128.895 13.2379 129.175 13.4329C129.425 13.634 129.711 13.762 130.034 13.8108C130.248 13.8291 130.467 13.8413 130.687 13.8474C131.095 13.8169 131.467 13.6889 131.808 13.4695C132.162 13.2379 132.43 12.9331 132.619 12.5553C132.808 12.1774 132.887 11.7751 132.856 11.3546C132.826 10.9462 132.698 10.5744 132.479 10.2331C132.344 10.0624 132.204 9.89788 132.058 9.73941C131.82 9.5139 131.546 9.36153 131.235 9.2823C131.016 9.18478 130.784 9.13602 130.546 9.13602C130.205 9.09336 129.876 9.11774 129.547 9.22744C129.181 9.35544 128.864 9.55657 128.608 9.84912C128.34 10.1539 128.169 10.5013 128.09 10.8974C128.017 11.2814 128.041 11.6532 128.163 12.0189H128.157Z" fill="#FAFAFA"/>
<path d="M107.935 11.9639C107.935 11.9639 107.935 11.9761 107.935 11.9822C107.935 12.0004 107.935 12.0126 107.935 12.0309C107.898 12.293 108.117 12.4515 108.355 12.4027C108.66 12.3357 108.958 12.1467 109.086 11.8481C109.184 11.6226 109.184 11.3788 109.044 11.1715C108.922 10.9826 108.666 10.8302 108.434 10.8668C108.398 10.8607 108.367 10.8485 108.331 10.8485C108.178 10.8363 108.038 10.8607 107.928 10.9826C107.855 11.0679 107.807 11.1959 107.825 11.3178C107.752 11.5311 107.807 11.7932 107.941 11.97L107.935 11.9639Z" fill="#FAFAFA"/>
<path d="M96.537 16.4683C98.4813 17.4313 99.9867 14.4082 98.0363 13.4453C96.0921 12.4823 94.5866 15.5053 96.537 16.4683Z" fill="#FAFAFA"/>
<path d="M121.502 10.0503C121.459 10.3306 121.636 10.5988 121.898 10.6841C122.197 10.7878 122.453 10.6415 122.617 10.3916C122.715 10.2392 122.739 10.0686 122.745 9.89181C122.745 9.67239 122.581 9.46517 122.398 9.37374C122.221 9.28842 122.026 9.29451 121.849 9.37374C121.666 9.40422 121.508 9.57487 121.52 9.75163C121.49 9.84914 121.477 9.95276 121.502 10.0503Z" fill="#FAFAFA"/>
<path d="M84.6886 43.6149C84.8471 43.8039 85.0116 43.9624 85.2371 44.0842C85.5967 44.2854 86.0356 44.2732 86.4195 44.1635C87.3155 43.9014 87.6873 42.8226 87.3033 42.0303C86.9315 41.2623 86.0234 40.9515 85.2554 41.3233C84.8714 41.5122 84.6155 41.8048 84.4753 42.2131C84.3412 42.6032 84.3838 42.9506 84.5118 43.3224C84.4936 43.4626 84.5789 43.5784 84.6947 43.6149H84.6886Z" fill="#FAFAFA"/>
<path d="M161.216 29.4805C161.259 29.4683 161.301 29.45 161.344 29.4378C161.472 29.3952 161.588 29.3281 161.685 29.2428C161.789 29.1879 161.874 29.1209 161.972 29.0295C162.191 28.8162 162.222 28.4748 162.142 28.1945C162.094 28.0116 161.99 27.8836 161.856 27.7739C161.496 27.3168 160.844 27.3107 160.32 27.4936C159.698 27.713 159.406 28.42 159.692 29.0112C159.973 29.5902 160.661 29.7791 161.216 29.4805Z" fill="#FAFAFA"/>
<path d="M80.3309 36.2583C80.4588 35.9718 80.5198 35.6731 80.5076 35.3623C80.4954 34.9844 80.2516 34.3993 79.9286 34.1799C79.8616 34.1311 79.7884 34.0885 79.7214 34.0397C79.4776 33.8203 79.1911 33.6801 78.8681 33.6192C78.5572 33.5582 78.2586 33.5826 77.9599 33.6801C77.515 33.8508 77.1432 34.1433 76.9299 34.5822C76.7288 34.9905 76.6922 35.5147 76.8385 35.9474C76.9421 36.2461 77.1067 36.496 77.3383 36.7093C77.5821 36.9287 77.8685 37.0689 78.1915 37.1298C78.2708 37.1542 78.35 37.1847 78.4293 37.2091C78.5816 37.2212 78.734 37.2273 78.8803 37.2395C79.1119 37.2334 79.3252 37.1725 79.5202 37.0567C79.8555 36.8921 80.1724 36.6239 80.3248 36.2765L80.3309 36.2583Z" fill="#FAFAFA"/>
<path d="M177.916 44.3948C177.111 43.9925 175.99 44.3216 175.612 45.1688C175.234 46.0221 175.527 47.0461 176.386 47.4727C177.191 47.875 178.312 47.5458 178.69 46.6987C178.769 46.5219 178.812 46.3391 178.83 46.1562C178.867 45.8758 178.836 45.5955 178.745 45.3395C178.605 44.9433 178.324 44.602 177.91 44.3948H177.916Z" fill="#FAFAFA"/>
<path d="M190.441 48.759C190.496 48.887 190.557 49.015 190.618 49.1369C186.473 35.3807 178.099 23.0691 166.488 14.1888C166.988 12.9637 167.451 12.147 167.287 11.6107C166.695 10.282 165.038 7.8806 161.143 5.34513C161.112 5.32684 161.088 5.30856 161.058 5.29027C156.803 2.73652 153.713 1.57239 151.495 1.14575C151.495 1.14575 151.495 1.15185 151.495 1.15794C151.166 1.0909 150.836 1.04214 150.513 0.999473C147.819 0.713013 146.722 1.66382 146.503 2.15141C146.332 2.57195 146.107 2.98031 145.857 3.37038C145.839 3.36429 145.82 3.35819 145.802 3.3521C144.967 3.08392 141.469 1.95637 136.233 0.999473C116.565 -2.38928 96.9028 3.01688 81.8972 14.8349C81.3913 15.231 80.8245 15.7857 80.2089 16.2976L80.1114 16.2489C80.0261 16.2062 79.9468 16.1575 79.8981 16.127L79.3373 15.7796C79.124 15.6211 78.9046 15.487 78.6791 15.3712C74.5468 13.3233 69.5794 18.5466 68.1593 20.1923C64.9351 23.9345 62.5276 28.9506 65.3922 31.864L66.0505 32.6563C64.8742 34.5518 63.7771 36.5205 62.7897 38.5135C60.2908 43.5601 58.4319 48.8017 57.2251 54.1895L61.7109 54.9209C62.8141 50.0328 64.5085 45.1996 66.8306 40.5126C67.818 38.5135 68.9029 36.5875 70.067 34.7408C70.0731 34.7712 70.0792 34.7956 70.0853 34.8261C70.1402 35.1186 70.2011 35.4112 70.2316 35.6977C70.2682 35.9841 70.3047 36.2645 70.3169 36.5327C70.3413 36.8008 70.3596 37.0568 70.3657 37.2884C70.3901 37.7577 70.3961 38.1539 70.3961 38.4282C70.3961 38.7024 70.3961 38.8609 70.3961 38.8609C70.3961 38.8609 70.4266 38.7085 70.4754 38.4343C70.5302 38.16 70.6034 37.7699 70.6704 37.3006C70.7131 37.0629 70.7436 36.8069 70.774 36.5327C70.8106 36.2584 70.835 35.9719 70.8533 35.6672C70.8837 35.3624 70.8776 35.0455 70.8837 34.7225C70.8776 34.5579 70.8715 34.3933 70.8594 34.2288C70.8533 34.0642 70.8228 33.8997 70.8106 33.729C70.7984 33.5583 70.7557 33.3938 70.7253 33.2292C70.6948 33.0586 70.6521 32.894 70.6034 32.7355L70.5363 32.4917L70.451 32.254C70.3961 32.0956 70.3413 31.9432 70.2742 31.7969C70.1524 31.4983 70.0183 31.2301 69.8903 30.9741C69.7988 30.7974 69.7135 30.6267 69.6282 30.4682C70.0305 30.3463 70.4571 30.1574 70.8898 29.9136C70.9934 30.0111 71.1032 30.1147 71.2068 30.2184C71.353 30.3646 71.4871 30.5109 71.609 30.6572C71.7309 30.8035 71.8406 30.9497 71.926 31.0777C72.0052 31.2057 72.0783 31.3215 72.1149 31.4008C72.1576 31.4861 72.1759 31.5349 72.1759 31.5349C72.1759 31.5349 72.1819 31.48 72.1941 31.3886C72.2124 31.2911 72.2185 31.157 72.2185 30.9924C72.2185 30.8278 72.2063 30.6328 72.1819 30.4195C72.1576 30.2123 72.1271 29.9867 72.0844 29.7673C72.0479 29.5784 72.0052 29.3955 71.9625 29.2127C73.0291 28.4447 74.1018 27.433 75.0526 26.3542C75.1075 26.3908 75.1563 26.4151 75.2233 26.4517C75.3818 26.5492 75.5585 26.6468 75.7414 26.7443C75.9242 26.8479 76.1131 26.9515 76.3204 27.049C76.7226 27.2562 77.1554 27.4635 77.5881 27.6585C78.4597 28.0547 79.3434 28.396 80.0139 28.6276C80.6843 28.8653 81.1353 28.9933 81.1353 28.9933C81.1353 28.9933 80.7331 28.7495 80.1541 28.3533C79.575 27.9572 78.8254 27.4025 78.1123 26.8174C77.7527 26.5249 77.4053 26.2201 77.0944 25.9336C76.936 25.7935 76.7836 25.6472 76.6434 25.5131C76.5032 25.379 76.3691 25.251 76.2594 25.1291C76.2168 25.0865 76.1863 25.0499 76.1497 25.0133C76.7165 24.2515 77.2285 23.4591 77.6308 22.6851L81.0988 23.3372L78.2342 21.3259C78.3865 20.8932 78.4963 20.4848 78.5572 20.0947C78.6425 20.1191 78.734 20.1435 78.8254 20.1679C78.9595 20.1984 79.0996 20.2288 79.2459 20.2654C79.5324 20.3385 79.8371 20.3751 80.1541 20.43C80.471 20.4665 80.794 20.5153 81.1292 20.5275C81.4584 20.5519 81.7997 20.5519 82.1288 20.5519C82.2934 20.5519 82.464 20.5397 82.6286 20.5275C82.7931 20.5214 82.9577 20.5092 83.1223 20.4909C83.4453 20.4604 83.7622 20.4117 84.0731 20.3629C84.3778 20.3081 84.6704 20.2471 84.9446 20.1801C85.2189 20.1069 85.4749 20.0399 85.7065 19.9607C85.8223 19.9241 85.932 19.8875 86.0417 19.851C86.1453 19.8083 86.2428 19.7717 86.3343 19.7412C86.5171 19.6742 86.6817 19.6133 86.8097 19.5523C87.0657 19.4365 87.2119 19.3756 87.2119 19.3756C87.2119 19.3756 87.0535 19.4121 86.7792 19.4731C86.6451 19.5096 86.4745 19.534 86.2855 19.5706C86.188 19.5889 86.0905 19.6072 85.9808 19.6254C85.8711 19.6376 85.7614 19.6498 85.6395 19.6681C85.4018 19.7047 85.1458 19.7169 84.8776 19.7352C84.6094 19.7473 84.323 19.7534 84.0304 19.7473C83.7683 19.7412 83.494 19.723 83.2259 19.6986C99.3712 6.22888 121.526 1.21279 142.273 7.14921C142.273 7.14921 142.261 7.14921 142.255 7.15531C142.078 7.24064 141.907 7.33206 141.718 7.3991C141.536 7.47224 141.359 7.55147 141.17 7.61242C140.798 7.73432 140.432 7.86841 140.061 7.95983C139.878 8.00859 139.695 8.05735 139.518 8.10611C139.341 8.14877 139.165 8.18534 138.994 8.22801C138.823 8.26458 138.659 8.30724 138.494 8.34381C138.33 8.37428 138.177 8.40476 138.025 8.43523C137.726 8.49009 137.446 8.55104 137.202 8.58761C136.952 8.63027 136.739 8.66074 136.562 8.69122C136.209 8.75217 136.001 8.78264 136.001 8.78264C136.001 8.78264 136.209 8.78264 136.568 8.77655C136.751 8.77655 136.964 8.77655 137.22 8.77045C137.47 8.77045 137.757 8.75217 138.062 8.73998C138.214 8.73388 138.378 8.72779 138.543 8.72169C138.708 8.7095 138.884 8.69731 139.061 8.68512C139.238 8.67293 139.421 8.66074 139.61 8.64246C139.799 8.61808 139.988 8.5998 140.183 8.57542C140.573 8.53885 140.975 8.45961 141.383 8.39257C141.591 8.356 141.792 8.30115 141.999 8.25239C142.206 8.20972 142.413 8.14268 142.621 8.07563C142.828 8.00859 143.035 7.94764 143.236 7.85622C143.437 7.77089 143.644 7.69775 143.833 7.59414C144.223 7.4052 144.595 7.18578 144.937 6.96027C145.101 6.84447 145.272 6.72867 145.43 6.61286C145.583 6.49096 145.735 6.37516 145.881 6.26545C146.162 6.03385 146.43 5.81443 146.668 5.60721C146.722 5.55845 146.771 5.51578 146.826 5.46702C147.137 6.05213 147.618 6.67381 148.277 7.34425C148.13 7.55148 147.972 7.7648 147.807 7.97812C147.649 8.17925 147.478 8.37428 147.314 8.55104C147.228 8.63636 147.143 8.72169 147.064 8.80093C146.978 8.87406 146.899 8.9472 146.826 9.00815C146.674 9.13005 146.54 9.23366 146.442 9.28852C146.345 9.34947 146.284 9.38603 146.284 9.38603C146.284 9.38603 146.351 9.38603 146.466 9.36775C146.588 9.36166 146.753 9.33118 146.96 9.28852C147.064 9.26414 147.167 9.23366 147.283 9.20319C147.399 9.16662 147.515 9.12395 147.643 9.08739C147.887 8.99596 148.149 8.89235 148.405 8.77655C148.722 8.63027 149.032 8.4718 149.313 8.31334C150.702 9.49574 152.482 10.6903 154.463 11.7387C154.481 11.7509 154.499 11.7569 154.518 11.7691C154.469 11.9154 154.414 12.0617 154.359 12.2323C154.28 12.4518 154.207 12.6895 154.134 12.9333C154.055 13.1831 153.981 13.4452 153.908 13.7134C153.835 13.9877 153.762 14.268 153.695 14.5545C153.622 14.841 153.561 15.1335 153.5 15.4261C153.25 16.5902 153.079 17.7665 152.982 18.6442C152.884 19.5218 152.854 20.113 152.854 20.113C152.854 20.113 153 19.5462 153.28 18.7112C153.555 17.8762 153.963 16.7852 154.439 15.7308C154.554 15.4626 154.676 15.2006 154.798 14.9507C154.92 14.6947 155.042 14.4448 155.17 14.2071C155.292 13.9694 155.414 13.7378 155.536 13.5245C155.651 13.3111 155.767 13.1039 155.877 12.9333C155.962 12.7931 156.029 12.6773 156.102 12.5554C157.425 13.1649 158.821 13.7073 160.143 14.073L160.277 18.7783L161.673 14.4204C162.502 14.5667 163.27 14.6094 163.928 14.5362C163.928 14.6398 163.922 14.7434 163.916 14.8592C163.916 15.0238 163.898 15.2006 163.904 15.3773C163.904 15.5541 163.916 15.743 163.916 15.9319C163.916 16.1209 163.934 16.3159 163.953 16.511C163.971 16.706 163.983 16.9132 164.007 17.1143C164.068 17.5227 164.117 17.9433 164.215 18.3577C164.288 18.7783 164.416 19.1988 164.519 19.6133C164.654 20.0277 164.775 20.4361 164.934 20.8322C165.074 21.2284 165.257 21.6063 165.415 21.972C165.598 22.3255 165.757 22.679 165.946 22.9959C166.037 23.1544 166.122 23.3068 166.208 23.4591C166.293 23.6054 166.384 23.7456 166.47 23.8797C166.634 24.1478 166.805 24.3855 166.951 24.5928C167.098 24.8061 167.232 24.9828 167.347 25.123C167.573 25.4095 167.701 25.5741 167.701 25.5741C167.701 25.5741 167.597 25.3912 167.415 25.0743C167.323 24.9158 167.219 24.7208 167.104 24.4953C166.988 24.2697 166.86 24.0138 166.738 23.7273C166.677 23.5871 166.61 23.4408 166.543 23.2824C166.482 23.1239 166.421 22.9654 166.354 22.8009C166.22 22.4718 166.116 22.1122 165.994 21.7465C165.897 21.3747 165.781 20.9968 165.702 20.6006C165.604 20.2106 165.549 19.8083 165.482 19.406C165.482 19.3816 165.476 19.3512 165.476 19.3268C170.115 23.1361 174.125 27.5305 177.453 32.3394L182.475 42.0302V42.0241C183.103 43.1944 183.676 44.3951 184.206 45.614C184.474 46.2235 184.718 46.8391 184.968 47.4608C185.218 48.0764 185.455 48.692 185.681 49.3258C185.906 49.9536 186.126 50.5814 186.321 51.2213C186.522 51.8552 186.711 52.4952 186.882 53.1412C187.046 53.7385 187.199 54.3419 187.339 54.9453L191.922 54.1956C191.514 52.355 191.026 50.5448 190.453 48.7468L190.441 48.759ZM76.3326 21.1065C76.1071 21.7465 75.7536 22.4535 75.3086 23.1605C75.0892 23.514 74.8454 23.8675 74.5772 24.2149C74.3152 24.5684 74.0348 24.9036 73.7422 25.2388C73.4497 25.5619 73.1449 25.891 72.8341 26.1957C72.5233 26.5005 72.2063 26.793 71.8894 27.0612C71.2494 27.5976 70.6034 28.0486 69.9939 28.3594C69.3905 28.6703 68.8176 28.8409 68.4092 28.847C68.202 28.8531 68.0435 28.8226 67.946 28.7861C67.8972 28.7739 67.8607 28.7495 67.8363 28.7434C67.8119 28.7312 67.7997 28.7251 67.7997 28.7251C67.7997 28.7251 67.8546 28.7251 67.9582 28.7129C68.0557 28.7068 68.202 28.6642 68.3666 28.6032C68.7018 28.4691 69.1345 28.1766 69.6038 27.7621C70.0792 27.3538 70.5973 26.8357 71.1458 26.2567C71.4201 25.9702 71.6944 25.6655 71.9747 25.3607C72.2551 25.0499 72.5354 24.7391 72.8158 24.416C73.0962 24.0991 73.3704 23.7761 73.6386 23.4652C73.9068 23.1483 74.1628 22.8314 74.4127 22.5205C74.9064 21.9049 75.3452 21.3137 75.6865 20.7835C76.0339 20.2593 76.2716 19.7961 76.3752 19.4426C76.424 19.2719 76.4545 19.1196 76.4545 19.022C76.4545 18.9184 76.4545 18.8636 76.4545 18.8636C76.4545 18.8636 76.4606 18.8758 76.4727 18.9002C76.4849 18.9245 76.5093 18.955 76.5276 19.0099C76.5703 19.1135 76.6129 19.2658 76.6251 19.467C76.6556 19.8753 76.5642 20.4543 76.3387 21.0943L76.3326 21.1065ZM164.245 11.7813C164.245 11.7813 164.184 11.8362 164.123 11.8727C164.014 11.9459 163.831 12.0373 163.581 12.0922C163.087 12.2141 162.356 12.2141 161.509 12.0922C160.667 11.9703 159.711 11.7265 158.711 11.3913C158.211 11.2206 157.705 11.0377 157.199 10.8244C156.694 10.6172 156.182 10.3856 155.676 10.154C154.67 9.67249 153.689 9.13005 152.805 8.56323C151.921 7.99031 151.135 7.39301 150.513 6.81399C149.892 6.23498 149.435 5.66816 149.203 5.21713C149.081 4.99162 149.026 4.80268 149.002 4.66859C148.978 4.5406 148.984 4.46746 148.984 4.46746C148.984 4.46746 148.99 4.48575 149.002 4.51622C149.014 4.5467 149.038 4.59546 149.069 4.65031C149.13 4.76002 149.24 4.91239 149.404 5.07695C149.727 5.41217 150.27 5.82053 150.952 6.24717C152.317 7.10655 154.25 8.10611 156.206 9.03253C156.7 9.27023 157.187 9.49574 157.675 9.72125C158.162 9.94067 158.638 10.1601 159.107 10.3612C160.04 10.7696 160.911 11.1292 161.673 11.3913C162.435 11.6533 163.087 11.8179 163.55 11.8423C163.782 11.8545 163.965 11.8423 164.093 11.8057C164.154 11.7935 164.203 11.7752 164.233 11.763C164.263 11.7509 164.282 11.7448 164.282 11.7448C164.282 11.7448 164.27 11.7569 164.245 11.7752V11.7813Z" fill="#FAFAFA"/>
<path d="M150.282 69.0856L241.236 55.8231C234.604 64.7704 225.005 70.8165 214.229 72.389C192.69 75.5279 180.585 72.6938 180.585 72.6938C180.585 72.6938 183.901 74.6319 190.221 76.0033L154.268 81.2449L154.286 81.4399C154.31 81.7203 154.335 82.0007 154.353 82.281V82.3359L154.396 83.6463C154.408 84.0059 154.42 84.4081 154.396 84.8653C154.396 85.0237 154.377 85.1822 154.377 85.3407L223.731 75.2231C220.367 79.7577 216.234 83.5427 211.584 86.3829L213.973 87.1204L214.826 88.8025C215.521 88.3393 216.18 87.8274 216.85 87.3276L217.161 85.4869C216.35 86.1208 215.509 86.7669 214.601 87.419C215.533 86.6511 216.387 85.9075 217.21 85.1761L217.27 84.8287L217.74 84.7068C226.181 77.0577 228.717 71.5784 228.717 71.5784L230.417 70.3411C230.417 70.3411 228.04 76.5884 218.319 84.5544L221.013 83.8474C224.462 80.6171 227.528 76.9236 229.948 72.7303L231.545 69.9694H231.539C237.975 65.8797 243.503 60.1749 247.458 53.3303L249.055 50.5693L147.088 65.4409C147.551 65.8431 147.996 66.2759 148.423 66.733C149.117 67.4765 149.733 68.2689 150.294 69.0795L150.282 69.0856ZM247.349 51.6359C247.349 51.6359 244.411 59.4313 231.539 68.7138C242.522 59.6812 245.648 52.8732 245.648 52.8732L189.441 60.1261L247.349 51.6298V51.6359Z" fill="#FAFAFA"/>
<path d="M89.4304 152.287L90.6494 142.547L89.9485 139.872L91.2528 137.72L93.965 116.041L91.9842 114.383L81.2633 116.827L81.0804 117.138L78.484 121.502L74.693 118.326L64.8315 120.575L59.9434 159.643L68.8541 167.097L78.7156 164.848L79.4531 158.936L84.8471 163.453L95.4887 161.027L92.9898 151.482L89.4365 152.293L89.4304 152.287ZM76.3874 155.383L73.0596 141.505L70.7679 145.485L69.3295 156.992L60.5346 158.997L65.2947 120.959L74.0835 118.954L72.3769 132.607L81.5193 117.254L91.0151 115.09L80.4527 132.491L85.871 153.213L76.3752 155.377L76.3874 155.383Z" fill="#FAFAFA"/>
<path d="M137.324 111.774C136.648 111.152 135.697 110.945 134.478 111.152C133.204 111.512 132.125 112.182 131.247 113.158C130.37 114.139 129.632 115.26 129.029 116.534C128.432 117.808 127.962 119.167 127.621 120.618C127.28 122.068 127.03 123.44 126.871 124.726C126.707 126.054 126.609 127.438 126.591 128.882C126.567 130.327 126.701 131.643 126.993 132.832C127.286 134.02 127.761 134.959 128.432 135.654C129.102 136.349 130.065 136.568 131.327 136.312C132.558 135.995 133.618 135.313 134.508 134.264C135.398 133.216 136.148 131.997 136.757 130.601C137.373 129.212 137.854 127.749 138.202 126.231C138.549 124.707 138.805 123.287 138.976 121.965C139.14 120.673 139.226 119.344 139.238 117.967C139.25 116.589 139.104 115.37 138.799 114.303C138.494 113.237 138.001 112.396 137.324 111.768V111.774Z" fill="#FAFAFA"/>
<path d="M38.5745 164.001L43.0482 128.267L40.5859 126.183L16.5415 131.662L14.835 140.018L21.838 145.881L18.9368 169.066L27.8475 176.526L37.8188 174.253L39.117 163.873L38.5745 163.995V164.001ZM32.2968 135.538L28.4327 166.409L19.5341 168.438L23.3983 137.568L15.4749 139.378L16.9682 132.076L40.0312 126.816L39.8362 133.826L32.2907 135.544L32.2968 135.538Z" fill="#FAFAFA"/>
<path d="M60.5344 158.997L61.0891 154.548L60.1626 153.774L61.2171 153.536L62.9297 139.853L61.6193 138.756L63.1065 138.415L64.9167 123.945L61.7229 121.276L42.8471 125.579L37.959 164.647L46.8697 172.107L47.4061 171.985L65.7456 167.804L66.8061 159.345L65.1483 157.955L60.5283 159.009L60.5344 158.997ZM57.9075 144.29L49.2223 146.271L48.1801 154.591L57.2981 152.512L56.3655 159.942L38.5624 164.001L43.3225 125.963L61.1256 121.904L60.2297 129.071L51.1117 131.15L50.0695 139.469L58.7547 137.488L57.9014 144.29H57.9075Z" fill="#FAFAFA"/>
<path d="M171.87 113.255L171.151 112.67L171.937 112.475L173.205 97.1642L170.541 95.0127L151.336 99.7119L151.294 100.236L148.069 139.225L157.248 146.655L166.817 144.314L168.134 128.388L170.669 127.767L171.87 113.249V113.255ZM169.365 102.918L159.729 105.276L159.034 113.687L168.243 111.432L167.677 118.307L158.467 120.562L157.821 128.364L157.151 136.488L148.636 138.573L151.818 100.108L169.968 95.6649L169.371 102.912L169.365 102.918Z" fill="#FAFAFA"/>
<path d="M196.682 128.023C195.859 128.023 195.097 127.95 194.39 127.834C193.683 127.712 193.08 127.541 192.574 127.322L193.007 124.311L191.288 122.922L193.275 122.434L193.811 118.673C194.36 119.649 195.183 120.368 196.28 120.843C196.786 121.063 197.304 121.215 197.816 121.325L198.309 121.203L198.962 113.279L196.755 111.494C195.945 111.274 195.189 110.963 194.506 110.525C193.866 110.116 193.409 109.397 193.056 108.501L192.117 107.739L192.733 107.587C192.544 106.837 192.422 106.026 192.41 105.124C192.391 104.094 192.452 103.077 192.611 102.065C192.763 101.059 192.976 100.102 193.245 99.188C193.513 98.2799 193.793 97.5241 194.086 96.9329C194.604 95.8358 195.256 94.7692 196.03 93.7331L191.514 90.0762L172.894 94.6352L169.627 134.148L178.806 141.578L179.336 141.45L197.426 137.019L198.133 128.462L197.535 127.974C197.255 127.986 196.963 128.029 196.688 128.023H196.682ZM190.746 93.0017L190.337 97.9691L185.839 99.0722L181.341 100.175L180.646 108.586L189.216 106.49L188.838 111.073L188.649 113.365L184.364 114.413L180.08 115.461L179.385 123.872L188.381 121.672L188.082 125.268L187.759 129.187L170.2 133.484L173.381 95.0191L190.941 90.7222L190.752 93.0017H190.746Z" fill="#FAFAFA"/>
<path d="M221.555 121.69L222.037 115.888C221.574 115.126 221.019 114.48 220.318 114.029L211.925 107.233C211.73 107.044 211.517 106.867 211.298 106.715C211.578 106.014 211.956 105.374 212.456 104.807C213.303 103.844 214.382 103.192 215.82 102.839C215.911 102.82 216.003 102.814 216.094 102.802L220.836 106.642L223.311 94.3181L219.855 91.5205L216.314 92.386L216.844 89.0826L214.126 86.8823L213.918 86.7543C213.486 86.4862 212.998 86.285 212.45 86.1387C211.913 85.9986 211.352 85.9132 210.767 85.8706C210.194 85.834 209.622 85.8279 209.061 85.8584C208.488 85.8889 207.976 85.9559 207.5 86.0717C207.226 86.1266 206.928 86.1936 206.641 86.2606C205.264 86.602 203.965 87.0591 202.765 87.632C201.314 88.3268 200.004 89.1496 198.84 90.1065C197.682 91.0573 196.664 92.1117 195.78 93.2698C194.902 94.4156 194.177 95.6041 193.598 96.8292C193.281 97.463 192.989 98.2493 192.714 99.1818C192.44 100.127 192.221 101.108 192.068 102.138C192.001 102.552 191.952 102.973 191.922 103.387C191.873 104.015 191.849 104.643 191.861 105.283C191.879 106.349 192.019 107.325 192.275 108.202C192.562 109.196 192.989 109.976 193.568 110.537L203.295 118.411L203.191 119.459C203.002 119.661 202.789 119.843 202.545 120.008C201.997 120.368 201.43 120.618 200.82 120.77C200.473 120.855 200.113 120.904 199.742 120.922C199.26 120.947 198.779 120.91 198.297 120.825L193.525 116.961L193.269 118.752L191.989 127.706L201.168 135.136L201.406 135.239C201.942 135.477 202.582 135.654 203.313 135.775C204.045 135.897 204.831 135.964 205.678 135.971C206.519 135.977 207.385 135.928 208.275 135.812C209.158 135.702 210.024 135.544 210.871 135.337C211.755 135.123 212.638 134.843 213.534 134.502C214.436 134.154 215.326 133.722 216.186 133.203C217.063 132.679 217.898 132.052 218.691 131.332C219.507 130.595 220.221 129.735 220.818 128.779C221.543 127.645 222.122 126.316 222.555 124.823C222.847 123.799 223.036 122.799 223.116 121.824C223.128 121.641 223.128 121.465 223.134 121.282L221.555 121.666V121.69ZM212.87 117.424C212.456 118.874 211.901 120.13 211.224 121.197C210.658 122.092 209.999 122.891 209.244 123.574C208.488 124.262 207.696 124.853 206.867 125.347C206.038 125.841 205.191 126.255 204.325 126.59C203.46 126.926 202.6 127.194 201.741 127.401C200.918 127.602 200.077 127.755 199.211 127.864C198.346 127.974 197.499 128.023 196.682 128.017C195.859 128.017 195.097 127.944 194.39 127.828C193.683 127.706 193.08 127.535 192.574 127.316L193.811 118.667C194.36 119.642 195.183 120.362 196.28 120.837C197.377 121.312 198.486 121.526 199.608 121.471C200.729 121.422 201.771 121.081 202.734 120.447C203.697 119.813 204.331 118.893 204.642 117.674C204.904 116.607 204.88 115.626 204.569 114.736C204.258 113.846 203.667 113.194 202.789 112.786C201.948 112.402 201.022 112.164 200.016 112.066C199.01 111.969 198.035 111.81 197.09 111.591C196.146 111.372 195.286 111.012 194.506 110.512C193.726 110.012 193.159 109.147 192.806 107.922C192.556 107.081 192.428 106.148 192.41 105.118C192.391 104.088 192.452 103.07 192.611 102.059C192.763 101.053 192.976 100.096 193.245 99.1818C193.513 98.2737 193.793 97.5179 194.086 96.9267C194.64 95.7565 195.335 94.6167 196.176 93.5136C197.017 92.4104 197.992 91.3986 199.102 90.4905C200.205 89.5824 201.46 88.79 202.862 88.1196C204.264 87.4491 205.8 86.9433 207.47 86.602C207.897 86.4983 208.384 86.4313 208.927 86.4008C209.475 86.3703 210.024 86.3764 210.578 86.413C211.133 86.4496 211.669 86.5349 212.181 86.669C212.693 86.8031 213.15 86.9981 213.553 87.2419L211.505 97.4387C210.914 96.1283 210.182 95.3359 209.317 95.0434C208.445 94.7569 207.568 94.7021 206.678 94.8849C205.142 95.2567 203.892 96.0003 202.929 97.0973C201.96 98.2005 201.363 99.5048 201.137 101.01C200.918 102.412 201.095 103.424 201.674 104.039C202.253 104.661 203.143 105.082 204.349 105.301C205.629 105.508 206.818 105.728 207.915 105.959C209.012 106.191 209.963 106.563 210.761 107.075C211.56 107.587 212.2 108.324 212.675 109.275C213.157 110.232 213.413 111.548 213.449 113.231C213.48 114.571 213.285 115.967 212.864 117.418L212.87 117.424Z" fill="#FAFAFA"/>
<path d="M249.964 86.3094V86.2119L249.872 86.2363L240.779 78.7822L217.057 84.5907L215.698 93.0504L222.915 98.8953L220.976 122.342L230.155 129.772L239.992 127.365L242.571 96.1466L250.067 94.312L249.958 86.3094H249.964ZM232.916 88.3207L230.338 119.539L221.555 121.684L224.134 90.4661L216.32 92.3799L217.508 84.9868L240.261 79.4161L240.358 86.4923L232.916 88.3146V88.3207Z" fill="#FAFAFA"/>
<path d="M148.636 138.58L151.05 109.349L145.272 104.515C145.217 104.467 145.162 104.424 145.107 104.375L144.937 104.235H144.924C144.278 103.735 143.571 103.296 142.761 102.967C140.877 102.205 138.446 102.175 135.514 102.839C133.899 103.205 132.405 103.735 131.016 104.406C131.004 104.588 130.979 104.771 130.955 104.948C132.326 104.271 133.819 103.735 135.447 103.363C138.305 102.711 140.627 102.748 142.419 103.479C144.205 104.211 145.57 105.387 146.509 107.02C147.448 108.654 148.014 110.598 148.203 112.859C148.392 115.12 148.344 117.436 148.045 119.807C147.746 122.215 147.198 124.659 146.418 127.139C145.631 129.626 144.546 131.942 143.151 134.088C141.755 136.233 140.018 138.11 137.934 139.725C135.849 141.334 133.362 142.468 130.467 143.126C127.536 143.797 125.177 143.766 123.385 143.041C121.593 142.316 120.24 141.139 119.32 139.524C118.399 137.903 117.839 135.965 117.65 133.704C117.461 131.442 117.491 129.114 117.759 126.713C118.058 124.342 118.607 121.91 119.411 119.423C120.021 117.528 120.868 115.754 121.837 114.048C121.788 113.834 121.739 113.609 121.691 113.383C120.551 115.303 119.588 117.308 118.899 119.442C118.083 121.965 117.528 124.427 117.223 126.835C116.955 129.273 116.918 131.631 117.113 133.923C117.308 136.233 117.881 138.226 118.826 139.89C119.49 141.06 120.392 141.993 121.502 142.718V142.736L129.419 149.428C129.498 149.496 129.577 149.563 129.657 149.63L129.882 149.819H129.907C130.522 150.282 131.193 150.69 131.961 151.001C133.844 151.769 136.312 151.787 139.317 151.105C142.285 150.428 144.882 149.252 147.076 147.557C149.233 145.887 151.044 143.931 152.488 141.706C153.439 140.243 154.201 138.671 154.871 137.062L148.636 138.592V138.58Z" fill="#FAFAFA"/>
<path d="M119.326 139.512C118.405 137.89 117.845 135.952 117.656 133.691C117.467 131.43 117.497 129.102 117.765 126.7C118.064 124.329 118.613 121.898 119.417 119.411C120.027 117.515 120.874 115.742 121.843 114.035C121.581 112.877 121.325 111.548 121.075 110.055L118.783 108.135L109.354 110.287L108.459 117.436L101.937 111.981L93.7211 113.852L88.833 152.92L97.7437 160.375L98.2801 160.253L107.282 158.199L108.209 150.787L114.974 156.449L122.806 154.664L124.232 143.266C123.952 143.193 123.659 143.132 123.403 143.028C121.611 142.303 120.258 141.127 119.338 139.512H119.326ZM113.414 146.813L106.466 148.398L100.224 131.729L97.8961 150.355L89.4303 152.287L94.1904 114.248L101.516 112.578L107.483 129.364L109.824 110.689L118.18 108.781L113.42 146.819L113.414 146.813Z" fill="#FAFAFA"/>
<path d="M131.046 103.132C131.046 103.132 131.046 103.071 131.04 103.04C131.04 102.985 131.034 102.924 131.028 102.87C130.735 99.5539 127.95 96.9575 124.561 96.9575C121.172 96.9575 118.387 99.5539 118.095 102.87C118.095 102.924 118.082 102.985 118.082 103.04C118.082 103.071 118.082 103.101 118.076 103.132C118.07 103.254 118.064 103.375 118.064 103.503C118.064 103.577 118.064 103.656 118.064 103.729C118.052 106.277 119.338 108.422 119.338 108.422C119.338 108.422 119.929 107.971 120.618 107.173C122.245 118.893 124.525 121.843 124.555 121.88C124.586 121.843 126.865 118.893 128.492 107.173C129.181 107.971 129.772 108.422 129.772 108.422C129.772 108.422 131.058 106.277 131.046 103.729C131.046 103.656 131.046 103.577 131.046 103.503C131.046 103.382 131.046 103.254 131.034 103.132H131.046ZM130.504 103.4V103.412C130.504 104.04 130.437 104.668 130.296 105.283C130.156 105.899 129.961 106.502 129.711 107.081L129.62 107.294L129.455 107.124L129.053 106.703L128.956 106.6L128.907 106.545L128.852 106.484L128.663 106.264L128.151 105.685C128.084 106.203 128.023 106.722 127.95 107.246C127.865 107.898 127.749 108.538 127.639 109.184C127.414 110.47 127.164 111.75 126.896 113.03C126.761 113.67 126.621 114.31 126.475 114.944L126.249 115.9C126.17 116.217 126.097 116.534 126.018 116.851C125.853 117.485 125.689 118.119 125.5 118.747C125.408 119.064 125.299 119.375 125.189 119.685C125.067 119.996 124.951 120.307 124.744 120.63L124.555 120.923L124.366 120.63C124.165 120.313 124.043 120.002 123.921 119.685C123.812 119.375 123.702 119.058 123.61 118.747C123.415 118.119 123.251 117.485 123.092 116.851C123.007 116.534 122.934 116.217 122.861 115.9L122.635 114.944C122.489 114.31 122.349 113.67 122.215 113.03C121.946 111.75 121.697 110.47 121.471 109.184C121.361 108.544 121.252 107.892 121.16 107.246C121.087 106.722 121.026 106.203 120.959 105.685L120.447 106.264C120.319 106.411 120.191 106.557 120.057 106.697L119.649 107.124L119.49 107.288L119.399 107.075C118.997 106.13 118.722 105.131 118.631 104.101C118.607 103.845 118.606 103.583 118.606 103.333C118.606 103.071 118.606 102.815 118.643 102.559C118.704 102.047 118.832 101.541 119.021 101.065C119.405 100.109 120.039 99.2614 120.843 98.6275C121.044 98.4751 121.252 98.3167 121.477 98.2009C121.697 98.079 121.916 97.9449 122.142 97.8352C122.593 97.6036 123.074 97.4207 123.574 97.3415C123.074 97.439 122.605 97.6401 122.166 97.8839C121.94 98.0058 121.733 98.1399 121.514 98.274C121.288 98.3959 121.099 98.5544 120.904 98.7128C120.13 99.3528 119.539 100.2 119.192 101.133C119.021 101.602 118.911 102.089 118.869 102.583C118.85 102.827 118.838 103.077 118.85 103.327C118.85 103.589 118.862 103.833 118.887 104.076C118.978 104.991 119.228 105.887 119.588 106.728L119.819 106.478C119.886 106.405 119.947 106.338 120.014 106.264L120.203 106.045L120.959 105.161L121.209 104.869L121.264 105.253C121.355 105.899 121.441 106.545 121.544 107.185C121.593 107.508 121.654 107.825 121.703 108.148L121.873 109.111C122.105 110.391 122.367 111.664 122.635 112.938C122.769 113.572 122.916 114.212 123.062 114.84L123.287 115.791C123.367 116.108 123.44 116.425 123.525 116.735C123.69 117.363 123.86 117.991 124.049 118.607C124.141 118.917 124.25 119.222 124.354 119.521C124.409 119.673 124.476 119.813 124.531 119.96L124.549 120.002L124.567 119.96C124.628 119.813 124.695 119.673 124.744 119.521C124.854 119.216 124.957 118.917 125.049 118.607C125.244 117.991 125.408 117.363 125.573 116.735C125.658 116.425 125.731 116.108 125.811 115.791L126.036 114.84C126.182 114.206 126.329 113.572 126.463 112.938C126.737 111.664 126.993 110.391 127.225 109.111L127.395 108.148C127.444 107.825 127.505 107.508 127.554 107.185C127.657 106.545 127.743 105.899 127.834 105.253L127.889 104.869L128.139 105.161L128.889 106.045L129.078 106.264L129.12 106.313L129.169 106.368L129.266 106.472L129.498 106.722C129.943 105.667 130.223 104.533 130.236 103.388V103.375V103.363C130.26 102.681 130.175 101.986 129.961 101.334C129.748 100.675 129.413 100.06 128.98 99.5174C128.761 99.2492 128.523 98.9932 128.261 98.7677C128.127 98.658 127.993 98.5422 127.852 98.4447C127.718 98.3411 127.554 98.2618 127.408 98.1643C127.109 97.9815 126.81 97.7986 126.493 97.6462C126.176 97.4939 125.841 97.3842 125.5 97.3232C125.847 97.3781 126.189 97.4756 126.512 97.6097C126.835 97.7498 127.139 97.9266 127.45 98.0973C127.603 98.1887 127.761 98.2618 127.907 98.3654C128.054 98.463 128.194 98.5727 128.334 98.6824C128.608 98.9079 128.858 99.1578 129.09 99.426C129.553 99.9623 129.913 100.596 130.15 101.267C130.272 101.602 130.357 101.949 130.412 102.303C130.473 102.656 130.492 103.016 130.485 103.375L130.504 103.4Z" fill="#FAFAFA"/>
<path d="M124.549 40.7871C119.685 40.7871 115.748 44.7305 115.748 49.5881C115.748 54.4457 119.691 58.3891 124.549 58.3891C129.407 58.3891 133.35 54.4457 133.35 49.5881C133.35 44.7305 129.407 40.7871 124.549 40.7871ZM124.549 41.4149C127.523 41.4149 130.102 43.0178 131.534 45.3948C127.322 48.2716 123.464 53.9643 123.464 53.9643C124.025 49.7588 128.608 45.2303 128.748 45.0901C123.958 47.0587 119.868 55.3722 119.551 56.0243C119.314 55.8415 119.076 55.6647 118.863 55.4575C119.801 50.1489 124.415 46.5833 124.561 46.4675C119.807 48.2472 118.04 53.5742 117.839 54.2446C116.918 52.922 116.37 51.3191 116.37 49.5881C116.37 45.0718 120.033 41.4088 124.549 41.4088V41.4149ZM122.934 57.609C123.464 56.4753 125.628 52.2211 129.419 50.3256C129.303 50.4841 125.64 55.4026 125.494 57.676C125.177 57.7126 124.872 57.7736 124.549 57.7736C123.994 57.7736 123.458 57.7126 122.934 57.609Z" fill="#FAFAFA"/>
<path d="M131.875 87.4006H131.832C131.613 86.6388 128.456 86.0293 124.555 86.0293C120.654 86.0293 117.503 86.6388 117.278 87.4006H117.235C117.235 87.4006 117.211 87.6688 117.186 88.065C117.168 88.4612 117.15 88.9975 117.15 89.5278C117.15 90.058 117.168 90.5944 117.186 90.9905C117.205 91.3867 117.235 91.6488 117.235 91.6549C117.235 91.6549 117.223 91.5939 117.278 91.4903C117.327 91.3867 117.455 91.2648 117.637 91.1551C118.003 90.9357 118.582 90.7346 119.289 90.5761C119.996 90.4176 120.831 90.2835 121.733 90.2043C122.635 90.1251 123.598 90.0824 124.561 90.0763C125.524 90.0763 126.487 90.1251 127.389 90.2043C128.291 90.2835 129.126 90.4176 129.833 90.5761C130.54 90.7346 131.119 90.9357 131.485 91.1551C131.668 91.2648 131.79 91.3867 131.845 91.4903C131.893 91.5939 131.881 91.661 131.887 91.6549C131.887 91.6549 131.912 91.3867 131.936 90.9905C131.954 90.5944 131.973 90.058 131.973 89.5278C131.973 88.9975 131.954 88.4612 131.936 88.065C131.918 87.6688 131.887 87.4006 131.887 87.4006H131.875ZM117.552 91.021V87.4006C118.156 87.0654 118.515 87.0472 118.515 87.0472C119.283 89.54 122.66 89.9666 122.66 89.9666C118.978 90.0519 117.552 91.021 117.552 91.021ZM131.595 90.9296C131.595 90.9296 131.735 87.6566 126.414 86.462C126.414 86.462 128.608 86.4559 130.29 86.8826C131.058 87.0776 131.595 87.7724 131.595 88.5648V90.9296Z" fill="#FAFAFA"/>
<path d="M150.391 83.6281C150.379 83.2563 150.367 82.8845 150.361 82.5127C150.343 82.1409 150.3 81.7691 150.269 81.4034C150.233 81.0377 150.215 80.6659 150.154 80.3002C150.099 79.9346 150.05 79.575 149.995 79.2154C149.946 78.8558 149.849 78.5023 149.782 78.1488C149.654 77.4356 149.428 76.7591 149.246 76.0826C148.813 74.7478 148.264 73.4984 147.63 72.3769C146.997 71.2554 146.247 70.2863 145.485 69.4635C144.723 68.6407 143.931 67.9764 143.181 67.4644C142.431 66.9524 141.737 66.5746 141.145 66.3003C140.56 66.0199 140.073 65.8615 139.744 65.7578C139.579 65.7091 139.451 65.6725 139.366 65.6481C139.28 65.6238 139.232 65.6116 139.232 65.6116C139.232 65.6116 139.262 65.6238 139.268 65.6238C139.226 65.6116 139.201 65.6055 139.158 65.5933C139.268 65.1423 139.378 64.7339 139.482 64.2646C140.268 60.7905 141.011 56.9995 141.517 52.9403C141.578 52.4344 141.633 51.9225 141.694 51.4044C141.724 51.1484 141.755 50.8863 141.779 50.6303C141.798 50.3683 141.822 50.1062 141.84 49.8441C141.919 48.7958 142.017 47.7353 142.035 46.6565C142.054 46.1201 142.072 45.5777 142.09 45.0352C142.09 44.4745 142.078 43.9503 142.041 43.3774C141.968 42.2621 141.81 41.1528 141.566 40.0435C141.091 37.8311 140.286 35.6552 139.226 33.589C138.963 33.071 138.683 32.559 138.391 32.0592L138.171 31.6813L137.939 31.3035L137.476 30.5721C137.159 30.0845 136.812 29.5969 136.477 29.1154C136.117 28.6461 135.782 28.1646 135.404 27.7075C133.935 25.8607 132.302 24.1237 130.546 22.5146C129.669 21.7101 128.761 20.93 127.828 20.1864C127.359 19.8146 126.883 19.4489 126.402 19.0954C126.164 18.9187 125.914 18.7419 125.67 18.5712L125.628 18.5408L125.567 18.4981L125.518 18.4676L125.445 18.425C125.341 18.364 125.256 18.3335 125.159 18.297C124.963 18.2299 124.762 18.1995 124.561 18.1934C124.36 18.1934 124.159 18.2299 123.964 18.2909C123.866 18.3214 123.775 18.364 123.684 18.4128C123.598 18.4554 123.495 18.5286 123.446 18.5651C123.202 18.7358 122.964 18.9065 122.721 19.0893C122.233 19.4428 121.764 19.8085 121.294 20.1803C120.356 20.9239 119.454 21.704 118.576 22.5085C116.821 24.1176 115.187 25.8546 113.718 27.7014C112.243 29.542 110.951 31.5107 109.891 33.5829C108.836 35.6491 108.032 37.8189 107.55 40.0374C107.313 41.1406 107.154 42.256 107.075 43.3652C107.032 43.926 107.026 44.4684 107.026 45.0352C107.045 45.5777 107.063 46.114 107.081 46.6443C107.093 47.7109 107.197 48.7775 107.276 49.8258C107.294 50.0879 107.319 50.35 107.337 50.6121C107.361 50.8741 107.398 51.1301 107.422 51.3861C107.483 51.8981 107.538 52.41 107.599 52.922C108.105 56.9812 108.849 60.7783 109.635 64.2463C109.738 64.7095 109.854 65.1179 109.958 65.575C109.921 65.5872 109.897 65.5933 109.854 65.6055C109.86 65.6055 109.891 65.5933 109.891 65.5933C109.891 65.5933 109.848 65.6055 109.757 65.6299C109.671 65.6542 109.543 65.6908 109.379 65.7396C109.05 65.8432 108.562 66.0016 107.977 66.282C107.386 66.5563 106.691 66.9342 105.941 67.4461C105.192 67.9581 104.399 68.6224 103.637 69.4453C102.876 70.2681 102.126 71.2371 101.492 72.3586C100.858 73.4801 100.31 74.7295 99.8769 76.0643C99.6941 76.7408 99.4747 77.4235 99.3406 78.1305C99.2735 78.484 99.176 78.8375 99.1273 79.1971C99.0724 79.5567 99.0237 79.9224 98.9688 80.282C98.9079 80.6477 98.8896 81.0133 98.853 81.3851C98.8225 81.7569 98.786 82.1226 98.7616 82.4944C98.7494 82.8662 98.7372 83.238 98.7311 83.6098C98.7189 83.9816 98.7067 84.3533 98.7189 84.7251C98.7433 86.2184 98.8469 87.7055 99.0176 89.1561C99.176 90.6128 99.4381 92.0268 99.6941 93.3982C99.8465 94.0747 99.9927 94.7451 100.133 95.3973C100.273 96.0494 100.462 96.6772 100.621 97.2989C100.925 98.5361 101.303 99.682 101.626 100.742C101.943 101.809 102.315 102.76 102.607 103.607C102.9 104.46 103.193 105.192 103.43 105.795C103.906 106.996 104.18 107.685 104.18 107.685V107.666C104.18 107.672 104.18 107.678 104.186 107.685C104.186 107.685 104.661 95.2632 111.104 87.541C112.268 86.1452 113.633 84.9019 115.218 83.9084C115.833 85.8527 116.187 86.9498 116.205 87.0046V87.0229V87.0107C116.205 87.0107 116.205 87.0168 116.205 87.0229C116.205 87.3033 116.589 87.5592 117.199 87.7909C117.065 87.6568 116.973 87.5166 116.973 87.3764C116.973 86.3829 120.368 85.5723 124.561 85.5723C128.755 85.5723 132.149 86.3768 132.149 87.3764C132.149 87.5227 132.058 87.6568 131.924 87.7909C132.539 87.5592 132.917 87.2972 132.917 87.0229C132.917 87.0229 132.917 87.0168 132.917 87.0107V87.0229C132.917 87.0229 132.917 87.0107 132.917 87.0046C132.936 86.9498 133.283 85.8466 133.905 83.9084C135.495 84.8958 136.861 86.1391 138.019 87.541C144.461 95.2693 144.936 107.685 144.936 107.685C144.936 107.678 144.936 107.666 144.943 107.66L144.936 107.685C144.936 107.685 145.211 106.996 145.686 105.795C145.918 105.192 146.216 104.46 146.509 103.607C146.801 102.754 147.173 101.803 147.49 100.742C147.819 99.682 148.191 98.5361 148.496 97.2989C148.654 96.6833 148.843 96.0555 148.983 95.3973C149.13 94.7451 149.276 94.0747 149.422 93.3982C149.678 92.0268 149.94 90.6128 150.099 89.1561C150.269 87.7055 150.373 86.2184 150.397 84.7251C150.416 84.3533 150.397 83.9816 150.385 83.6098L150.391 83.6281ZM109.513 67.2938C109.367 67.3974 109.153 67.568 108.885 67.7753C108.629 68.0008 108.306 68.2507 107.971 68.5737C107.617 68.8723 107.27 69.2746 106.874 69.6647C106.508 70.0974 106.094 70.5362 105.716 71.0604C105.618 71.1884 105.521 71.3164 105.417 71.4444C105.307 71.5663 105.216 71.7065 105.125 71.8466C104.942 72.1331 104.741 72.4074 104.54 72.6938C104.326 72.9681 104.168 73.2972 103.967 73.5898C103.869 73.7421 103.772 73.8945 103.668 74.0469C103.619 74.1261 103.564 74.1993 103.516 74.2785L103.388 74.5223C103.217 74.8514 103.04 75.1866 102.863 75.5158C102.784 75.6864 102.681 75.8449 102.614 76.0277L102.4 76.558C102.26 76.9115 102.126 77.2711 101.986 77.6246C101.913 77.8013 101.858 77.9842 101.809 78.167C101.754 78.3499 101.705 78.5327 101.651 78.7156C101.449 79.4409 101.212 80.154 101.102 80.8732C101.029 81.2267 100.962 81.5802 100.895 81.9215C100.834 82.2628 100.742 82.598 100.718 82.9332C100.639 83.5976 100.566 84.2253 100.499 84.8044C100.468 85.0969 100.419 85.3712 100.413 85.6394C100.401 85.9075 100.395 86.1574 100.383 86.3951C100.365 86.8705 100.346 87.285 100.328 87.6263C100.297 88.315 100.279 88.7051 100.279 88.7051H100.115C100.115 88.7051 100.084 88.3211 100.035 87.6324C100.011 87.285 99.9867 86.8705 99.9562 86.389C99.944 86.1513 99.9257 85.8953 99.9074 85.6211C99.8891 85.3529 99.9074 85.0664 99.9074 84.7678C99.9196 84.1705 99.9257 83.5305 99.9379 82.8479C99.9318 82.5066 99.9867 82.1592 100.023 81.7996C100.06 81.44 100.102 81.0743 100.145 80.7025C100.2 79.9528 100.371 79.1971 100.535 78.423C100.578 78.228 100.614 78.0329 100.657 77.8379C100.694 77.6429 100.736 77.4478 100.803 77.2589C100.919 76.8749 101.041 76.4909 101.157 76.1009C101.352 75.3146 101.718 74.5832 101.998 73.8275L102.108 73.5471C102.15 73.4557 102.199 73.3704 102.242 73.2789C102.333 73.1022 102.425 72.9254 102.516 72.7487C102.607 72.5719 102.699 72.4013 102.796 72.2306C102.894 72.06 102.979 71.8893 103.095 71.7308C103.546 71.1031 103.979 70.4936 104.497 69.9999C104.747 69.7439 104.972 69.4879 105.24 69.2807C105.496 69.0674 105.746 68.8662 105.99 68.6712C106.24 68.4884 106.49 68.3299 106.728 68.1775C106.959 68.0191 107.191 67.8911 107.416 67.7813C107.642 67.6716 107.843 67.5558 108.044 67.4766C108.245 67.3974 108.428 67.3242 108.599 67.2572C108.94 67.1475 109.208 67.0682 109.403 67.0317C109.592 66.989 109.69 66.9829 109.69 66.9829L109.751 67.1414C109.751 67.1414 109.659 67.1962 109.519 67.3059L109.513 67.2938ZM124.567 20.0279C124.567 20.0279 117.004 27.1833 123.842 28.5547C123.842 28.5547 120.13 28.1646 114.535 29.8285C114.535 29.8285 119.149 23.0144 124.567 20.0279ZM113.036 31.8886C117.802 30.2856 124.226 30.5111 124.226 30.5111C103.4 36.2586 116.729 85.2188 116.729 85.2188C101.632 41.4271 113.042 31.8886 113.042 31.8886H113.036ZM132.771 55.9512C129.266 60.4797 122.727 61.3086 118.198 57.804C117.796 57.4932 117.43 57.158 117.083 56.8045C117.308 57.0239 117.552 57.225 117.796 57.4261C113.645 53.8484 112.944 47.6073 116.339 43.2311C119.85 38.7027 126.384 37.8737 130.912 41.3783C131.327 41.6952 131.674 42.067 132.021 42.4327C131.936 42.3352 131.869 42.2255 131.778 42.128C131.899 42.2499 131.991 42.3901 132.113 42.518C132.32 42.7436 132.521 42.9691 132.704 43.2129C132.93 43.4993 133.131 43.7919 133.32 44.0966C133.478 44.3526 133.63 44.6025 133.765 44.8646C133.929 45.1815 134.063 45.5106 134.191 45.8398C134.295 46.114 134.398 46.3822 134.484 46.6565C134.587 47.0039 134.654 47.3513 134.721 47.7048C134.776 47.9852 134.831 48.2594 134.862 48.5459C134.898 48.9116 134.898 49.2773 134.898 49.6491C134.898 49.9233 134.91 50.1976 134.886 50.4719C134.855 50.8619 134.776 51.2398 134.697 51.6238C134.648 51.8798 134.618 52.1358 134.545 52.3857C134.429 52.8062 134.258 53.2085 134.081 53.6168C133.996 53.818 133.935 54.0313 133.838 54.2324C133.539 54.8297 133.185 55.4087 132.759 55.9573L132.771 55.9512ZM149.166 86.389C149.136 86.8705 149.105 87.285 149.087 87.6324C149.038 88.3211 149.008 88.7112 149.008 88.7112H148.843C148.843 88.7112 148.825 88.3089 148.794 87.6263C148.782 87.285 148.764 86.8705 148.74 86.3951C148.727 86.1574 148.721 85.9075 148.709 85.6394C148.703 85.3712 148.648 85.0969 148.624 84.8044C148.557 84.2253 148.484 83.5976 148.404 82.9332C148.38 82.598 148.289 82.2689 148.228 81.9215C148.161 81.5802 148.094 81.2267 148.02 80.8732C147.911 80.154 147.673 79.447 147.472 78.7156C147.423 78.5327 147.368 78.3499 147.32 78.167C147.271 77.9842 147.216 77.8013 147.143 77.6246C147.003 77.2711 146.868 76.9115 146.728 76.558L146.515 76.0277C146.448 75.851 146.344 75.6864 146.265 75.5158C146.088 75.1805 145.918 74.8514 145.741 74.5223L145.613 74.2785C145.564 74.1993 145.509 74.1261 145.461 74.0469C145.363 73.8945 145.259 73.7421 145.162 73.5898C144.955 73.2911 144.796 72.9681 144.583 72.6938C144.382 72.4074 144.181 72.1331 143.998 71.8466C143.906 71.7065 143.815 71.5663 143.705 71.4444C143.602 71.3164 143.504 71.1884 143.407 71.0604C143.029 70.5362 142.614 70.0974 142.249 69.6647C141.846 69.2746 141.505 68.8723 141.152 68.5737C140.816 68.2446 140.499 68.0008 140.237 67.7753C139.969 67.5741 139.756 67.3974 139.609 67.2938C139.463 67.1841 139.378 67.1292 139.378 67.1292L139.433 66.9707C139.433 66.9707 139.53 66.9829 139.719 67.0195C139.914 67.0561 140.176 67.1353 140.524 67.245C140.688 67.312 140.877 67.3852 141.078 67.4644C141.279 67.5436 141.481 67.6595 141.706 67.7692C141.932 67.8789 142.163 68.013 142.395 68.1653C142.626 68.3177 142.882 68.4762 143.132 68.659C143.37 68.854 143.62 69.0613 143.882 69.2685C144.144 69.4757 144.376 69.7317 144.626 69.9877C145.144 70.4814 145.576 71.0909 146.027 71.7186C146.143 71.871 146.235 72.0478 146.326 72.2184C146.424 72.3891 146.515 72.5658 146.606 72.7365C146.698 72.9132 146.789 73.09 146.881 73.2667C146.923 73.3582 146.972 73.4435 147.015 73.5349L147.124 73.8153C147.405 74.5711 147.771 75.3024 147.966 76.0887C148.087 76.4727 148.203 76.8627 148.319 77.2467C148.386 77.4356 148.429 77.6307 148.465 77.8257C148.508 78.0208 148.545 78.2158 148.587 78.4108C148.752 79.1849 148.922 79.9406 148.977 80.6903C149.02 81.0621 149.057 81.4278 149.099 81.7874C149.136 82.147 149.191 82.4944 149.185 82.8357C149.197 83.5183 149.209 84.1644 149.215 84.7556C149.215 85.0543 149.233 85.3346 149.215 85.6089C149.197 85.8771 149.185 86.133 149.166 86.3768V86.389Z" fill="#FAFAFA"/>
<path d="M131.454 91.1977C131.089 90.9966 130.504 90.8503 129.803 90.7162C129.096 90.5822 128.267 90.4907 127.371 90.4237C126.475 90.3566 125.518 90.3262 124.561 90.3262C123.604 90.3262 122.647 90.3506 121.751 90.4237C120.855 90.4907 120.027 90.5822 119.32 90.7162C118.619 90.8503 118.034 91.0027 117.668 91.1977C117.485 91.2953 117.357 91.3989 117.296 91.4964C117.241 91.5939 117.247 91.661 117.241 91.6549C117.241 91.9535 117.711 92.2278 118.485 92.4594C118.472 92.6118 118.466 92.8007 118.466 92.9957C118.466 93.2091 118.472 93.4224 118.491 93.5808C118.503 93.7393 118.521 93.849 118.521 93.849C118.521 93.849 118.515 93.7942 118.558 93.7149C118.6 93.6296 118.704 93.5321 118.856 93.4407C119.155 93.2578 119.636 93.0993 120.216 92.9713C120.801 92.8434 121.489 92.7337 122.233 92.6727C122.976 92.6057 123.769 92.5752 124.567 92.5691C125.36 92.5691 126.158 92.6057 126.902 92.6727C127.645 92.7398 128.334 92.8434 128.919 92.9713C129.504 93.0993 129.98 93.2639 130.278 93.4407C130.431 93.5321 130.534 93.6296 130.577 93.7149C130.619 93.8003 130.607 93.8551 130.613 93.849C130.613 93.849 130.626 93.7454 130.644 93.5808C130.656 93.4224 130.662 93.2091 130.668 92.9957C130.668 92.8007 130.662 92.6118 130.65 92.4594C131.43 92.2278 131.893 91.9535 131.893 91.6549C131.893 91.6549 131.893 91.5878 131.838 91.4964C131.784 91.3989 131.65 91.2953 131.467 91.1977H131.454ZM118.68 93.4041V92.3375C118.68 92.1485 118.771 91.9718 118.923 91.8682C119.259 91.6488 119.509 91.6061 119.509 91.6061C120.453 92.6666 123.001 92.4777 123.001 92.4777C119.612 92.6727 118.674 93.3919 118.674 93.3919L118.68 93.4041ZM130.418 93.3492C130.418 93.3492 130.266 91.6244 126.115 91.344C126.115 91.344 127.962 91.2526 129.955 91.9596C130.229 92.0571 130.418 92.3192 130.418 92.6118V93.3492ZM130.632 92.4289C130.632 92.4289 130.632 92.4167 130.632 92.4106C130.619 92.2522 130.601 92.1424 130.601 92.1424C130.601 92.0815 130.552 92.0266 130.516 91.9718C130.528 91.984 130.552 91.9962 130.559 92.0084C130.607 92.0876 130.595 92.1424 130.601 92.1424C130.601 92.1424 130.607 92.0876 130.565 92.0084C130.552 91.9901 130.516 91.9718 130.504 91.9535C130.473 91.9169 130.431 91.8804 130.388 91.8499C130.345 91.8133 130.327 91.7768 130.272 91.7402C129.973 91.5573 129.492 91.3989 128.913 91.2709C128.328 91.1429 127.639 91.0332 126.896 90.9722C126.152 90.9052 125.36 90.8747 124.561 90.8686C123.769 90.8686 122.97 90.9052 122.227 90.9722C121.483 91.0393 120.795 91.1429 120.209 91.2709C119.624 91.3989 119.149 91.5634 118.85 91.7402C118.789 91.7768 118.777 91.8133 118.734 91.8499C118.692 91.8865 118.649 91.9169 118.619 91.9535C118.606 91.9718 118.564 91.9962 118.558 92.0084C118.515 92.0937 118.527 92.1485 118.521 92.1424C118.521 92.1424 118.521 92.0876 118.564 92.0084C118.57 91.9962 118.6 91.984 118.606 91.9718C118.564 92.0266 118.521 92.0815 118.521 92.1424C118.521 92.1424 118.509 92.2461 118.491 92.4106C118.491 92.4106 118.491 92.4228 118.491 92.4289C118.32 92.307 118.204 92.1851 118.204 92.0571C118.204 91.3074 121.051 90.7041 124.561 90.7041C128.072 90.7041 130.918 91.3135 130.918 92.0571C130.918 92.1851 130.796 92.3131 130.632 92.4289Z" fill="#FAFAFA"/>
<path d="M130.254 93.4652C129.949 93.3007 129.468 93.1727 128.889 93.0629C128.31 92.9532 127.621 92.874 126.877 92.8131C126.14 92.7521 125.347 92.7277 124.555 92.7338C123.763 92.7338 122.97 92.7582 122.233 92.8131C121.495 92.874 120.807 92.9471 120.222 93.0629C119.643 93.1727 119.161 93.3007 118.856 93.4652C118.704 93.5444 118.6 93.6359 118.552 93.7151C118.503 93.7943 118.515 93.8492 118.509 93.8492C118.509 93.904 118.552 93.9528 118.588 94.0077C118.588 94.0016 118.564 93.9894 118.558 93.9833C118.509 93.904 118.515 93.8492 118.509 93.8492C118.509 93.8492 118.497 93.8979 118.539 93.9894C118.552 94.0138 118.6 94.0381 118.619 94.0686C118.637 94.0869 118.649 94.1052 118.673 94.1174C118.722 94.1722 118.753 94.221 118.838 94.2758C119.137 94.4648 119.612 94.6415 120.197 94.7756C120.782 94.9097 121.471 95.0316 122.215 95.1047C122.958 95.1779 123.757 95.2144 124.555 95.2205C125.353 95.2205 126.152 95.184 126.895 95.1108C127.639 95.0377 128.328 94.9158 128.913 94.7817C129.498 94.6476 129.973 94.4648 130.272 94.2819C130.357 94.2332 130.382 94.1783 130.437 94.1235C130.455 94.1052 130.473 94.093 130.485 94.0747C130.504 94.0503 130.552 94.0198 130.565 93.9955C130.607 93.9101 130.595 93.8553 130.595 93.8553C130.595 93.8553 130.595 93.9101 130.546 93.9833C130.546 93.9894 130.522 94.0016 130.516 94.0077C130.552 93.9589 130.595 93.904 130.595 93.8492C130.595 93.8492 130.595 93.7943 130.552 93.7151C130.504 93.6359 130.4 93.5444 130.248 93.4652H130.254ZM129.711 93.9955C129.626 94.1174 129.437 94.2332 129.157 94.3368C128.279 94.6598 126.548 94.8853 124.555 94.8853C122.562 94.8853 120.837 94.6598 119.96 94.3368C119.679 94.2332 119.49 94.1235 119.405 93.9955C119.368 93.9467 119.35 93.8979 119.35 93.8492C119.35 93.5505 119.972 93.2885 120.971 93.0995C121.721 92.9593 122.684 92.8618 123.757 92.8252C123.757 92.8252 123.763 92.8252 123.769 92.8252C124.025 92.8131 124.293 92.8131 124.561 92.8131C124.866 92.8131 125.165 92.8191 125.457 92.8313C126.518 92.8679 127.468 92.9654 128.206 93.1117C129.175 93.3006 129.772 93.5627 129.772 93.8492C129.772 93.8979 129.754 93.9467 129.717 93.9955H129.711Z" fill="#FAFAFA"/>
<path d="M91.6794 114.699L92.1426 115.035C92.7338 114.925 93.2884 114.809 93.837 114.687L93.9284 114.047L101.547 112.28H101.559C102.742 111.774 103.382 111.414 103.382 111.414C103.382 111.414 91.2771 114.255 69.7378 111.11C58.962 109.537 49.3687 103.491 42.7374 94.5437L98.0241 102.607C97.951 102.382 97.8779 102.168 97.8047 101.925L97.6219 101.327C97.3415 100.431 97.0246 99.4074 96.7503 98.3042L76.5884 95.3665C82.7869 94.0013 86.0416 92.0996 86.0416 92.0996C86.0416 92.0996 73.9372 94.9399 52.3978 91.7949C41.6221 90.2224 32.0287 84.1763 25.3975 75.229L94.7512 85.3465C94.7512 85.188 94.7329 85.0296 94.7329 84.8711C94.7146 84.4201 94.7329 84.0117 94.7329 83.6521L94.7695 82.3417V82.2869C94.7878 82.0065 94.8121 81.7262 94.8365 81.4458L94.8548 81.2507L58.9011 76.0091C65.2215 74.6378 68.5371 72.6996 68.5371 72.6996C68.5371 72.6996 56.4326 75.5398 34.8933 72.3949C24.1176 70.8224 14.5242 64.7763 7.89298 55.829L98.847 69.0915C99.4016 68.2747 100.023 67.4885 100.718 66.7449C101.145 66.2878 101.596 65.8551 102.053 65.4528L0.0732422 50.5752L1.6701 53.3362C5.62568 60.1807 11.1537 65.8855 17.5899 69.9752H17.5838L19.1807 72.7362C23.1058 79.532 28.5912 85.2063 34.9665 89.2899H34.9238L36.5207 92.0448C43.7126 104.497 56.1096 113.225 69.7378 115.211C76.3995 116.181 82.1348 116.193 86.8949 115.754L91.6794 114.699ZM1.76762 51.6357L59.6751 60.132L3.46809 52.873C3.46809 52.873 6.59477 59.681 17.5778 68.7136C4.70535 59.4372 1.76762 51.6357 1.76762 51.6357ZM18.7053 70.347L20.4058 71.5843C20.4058 71.5843 23.5325 78.3923 34.5154 87.4249C21.643 78.1424 18.7053 70.347 18.7053 70.347ZM35.9295 89.5703L37.6299 90.8075C37.6299 90.8075 40.7566 97.6155 51.7396 106.648C38.8672 97.3656 35.9295 89.5703 35.9295 89.5703Z" fill="#FAFAFA"/>
<path d="M237.731 57.7549L201.345 62.899C201.345 62.899 225.06 68.5306 237.731 57.7549Z" fill="#FAFAFA"/>
<path d="M220.16 77.3257L191.855 81.3239C191.855 81.3239 210.304 85.7062 220.16 77.3257Z" fill="#FAFAFA"/>
<path d="M11.3855 57.7549L47.772 62.899C47.772 62.899 24.0568 68.5306 11.3855 57.7549Z" fill="#FAFAFA"/>
<path d="M28.9631 77.3257L57.2678 81.3239C57.2678 81.3239 38.8186 85.7062 28.9631 77.3257Z" fill="#FAFAFA"/>
<path d="M46.4067 96.7256L71.2861 100.242C71.2861 100.242 55.0676 104.094 46.4067 96.7256Z" fill="#FAFAFA"/>
<path d="M237.731 57.7549L201.345 62.899C201.345 62.899 225.06 68.5306 237.731 57.7549Z" fill="#FAFAFA"/>
<path d="M220.16 77.3257L191.855 81.3239C191.855 81.3239 210.304 85.7062 220.16 77.3257Z" fill="#FAFAFA"/>
<path d="M11.3855 57.7549L47.772 62.899C47.772 62.899 24.0568 68.5306 11.3855 57.7549Z" fill="#FAFAFA"/>
<path d="M28.9631 77.3257L57.2678 81.3239C57.2678 81.3239 38.8186 85.7062 28.9631 77.3257Z" fill="#FAFAFA"/>
<path d="M46.4067 96.7256L71.2861 100.242C71.2861 100.242 55.0676 104.094 46.4067 96.7256Z" fill="#FAFAFA"/>
<path d="M171.516 112.109H170.779V113.274H171.516V112.109Z" fill="#FAFAFA"/>
<path d="M201.052 114.565L203.673 118.576L203.204 119.472C203.204 119.472 201.491 122.245 197.365 120.636C196.597 118.161 197.895 114.328 197.895 114.328L201.046 114.565H201.052Z" fill="#FAFAFA"/>
<path d="M192.739 121.142L193.123 122.087L192.215 126.201C192.215 126.201 190.959 125.713 190.935 125.622C190.91 125.53 190.441 121.684 190.441 121.684L192.739 121.136V121.142Z" fill="#FAFAFA"/>
<path d="M62.0035 136.946L62.8934 137.147L62.6191 140.371L61.3636 141.029L60.8699 140.731L62.0035 136.946Z" fill="#FAFAFA"/>
<path d="M89.9301 134.849L91.1856 136.684L90.3628 142.541L88.8269 141.986L89.9301 134.849Z" fill="#FAFAFA"/>
<path d="M60.2359 153.079L61.0343 152.915L60.6381 155.413L59.3826 154.92L60.2359 153.079Z" fill="#FAFAFA"/>
<path d="M215.32 87.8456L216.972 86.8887L216.472 89.7472L215.131 89.1255L215.32 87.8456Z" fill="#FAFAFA"/>
<path d="M223.067 96.0674L223.195 99.2794L221.708 115.419L218.203 114.681L211.358 107.203L208.988 104.606L213.035 100.553L223.067 96.0674Z" fill="#FAFAFA"/>
<path d="M48.9176 185.79L49.204 181.938L48.0216 182.2L47.7352 186.052L45.8884 186.461L46.5832 177.154L48.43 176.745L48.1557 180.439L49.3381 180.177L49.6124 176.489L51.4592 176.081L50.7643 185.388L48.9176 185.796V185.79Z" fill="#FAFAFA"/>
<path d="M55.0186 182.645L53.629 182.956L53.2084 184.839L51.252 185.272L53.7448 175.569L55.9999 175.069L57.1091 183.974L55.1649 184.407L55.0125 182.651L55.0186 182.645ZM54.3238 179.659L54.0251 181.189L54.8845 181L54.8175 179.555L54.7565 177.715L54.6773 177.733L54.3299 179.665L54.3238 179.659Z" fill="#FAFAFA"/>
<path d="M61.2232 173.905L63.2345 173.46L60.7295 183.17L58.3891 183.688L57.292 174.783L59.3155 174.332L59.6081 177.922L59.7543 180.482L59.8336 180.463L60.3699 177.782L61.2232 173.911V173.905Z" fill="#FAFAFA"/>
<path d="M65.5201 180.311L64.1365 180.622L63.716 182.505L61.7595 182.938L64.2523 173.235L66.5074 172.735L67.6167 181.64L65.6724 182.073L65.5201 180.317V180.311ZM64.8192 177.325L64.5144 178.849L65.3738 178.66L65.3067 177.215L65.2458 175.374L65.1666 175.393L64.8192 177.325Z" fill="#FAFAFA"/>
<path d="M71.2127 171.602C72.0355 171.419 72.6328 171.48 72.9985 171.79C73.3642 172.101 73.5227 172.571 73.4739 173.205C73.4739 173.247 73.4678 173.29 73.4617 173.333C73.4617 173.375 73.4495 173.418 73.4373 173.461L71.6332 174.161C71.6454 173.887 71.6028 173.674 71.5053 173.515C71.4077 173.357 71.2615 173.302 71.0725 173.345C70.9445 173.375 70.847 173.418 70.7617 173.485C70.6764 173.552 70.6154 173.625 70.5666 173.704C70.5179 173.784 70.4813 173.869 70.4569 173.96C70.4326 174.052 70.4204 174.125 70.4143 174.186L70.0608 178.934C70.0486 179.062 70.073 179.171 70.1278 179.275C70.1827 179.379 70.3289 179.403 70.5605 179.348C70.7434 179.306 70.8958 179.196 71.0177 179.007C71.1396 178.818 71.2188 178.568 71.2554 178.245L73.0655 178.08C72.9985 178.824 72.7486 179.464 72.3037 180.006C71.8588 180.549 71.2554 180.902 70.4874 181.073C69.6341 181.262 69.0307 181.207 68.6711 180.902C68.3115 180.598 68.1592 180.049 68.2201 179.269L68.5675 174.6C68.6224 173.863 68.8662 173.223 69.305 172.686C69.7438 172.15 70.3777 171.791 71.2127 171.608V171.602Z" fill="#FAFAFA"/>
<path d="M73.6628 180.287L74.3577 170.98L76.2044 170.571L75.5096 179.878L73.6628 180.287Z" fill="#FAFAFA"/>
<path d="M76.625 179.628L77.3198 170.321L79.1727 169.913L78.6058 177.483L81.0925 176.928L80.9646 178.665L76.625 179.628Z" fill="#FAFAFA"/>
<path d="M81.4949 178.55L82.1897 169.243L84.0364 168.834L83.3416 178.141L81.4949 178.55Z" fill="#FAFAFA"/>
<path d="M86.8887 171.028L88.3941 167.865L90.3688 167.426L88.1076 171.717L89.8752 176.69L87.9553 177.117L86.9069 173.838L86.5169 174.752L86.3157 177.483L84.469 177.891L85.1638 168.584L87.0106 168.176L86.7972 171.053L86.8948 171.034L86.8887 171.028Z" fill="#FAFAFA"/>
<path d="M91.0515 178.44L90.0154 178.671L90.6127 176.581L90.2165 176.666L90.3689 174.606L92.2156 174.198L92.0633 176.215L91.0393 178.44H91.0515Z" fill="#FAFAFA"/>
<path d="M99.8281 165.336L99.3039 172.357C99.243 173.162 98.9931 173.796 98.5604 174.271C98.1215 174.746 97.506 175.069 96.7075 175.246C95.1046 175.606 94.361 174.996 94.4768 173.43L95.001 166.409L96.8477 166L96.3174 173.058C96.2992 173.271 96.3418 173.412 96.4454 173.467C96.549 173.527 96.677 173.54 96.8294 173.509C96.9818 173.473 97.1159 173.406 97.2256 173.296C97.3353 173.186 97.3962 173.028 97.4145 172.814L97.9448 165.756L99.822 165.342L99.8281 165.336Z" fill="#FAFAFA"/>
<path d="M99.7551 174.491L99.877 172.833L102.601 166.415L100.401 166.902L100.529 165.165L104.729 164.233L104.607 165.842L101.864 172.315L104.162 171.803L104.034 173.54L99.749 174.491H99.7551Z" fill="#FAFAFA"/>
<path d="M107.916 170.888L106.526 171.199L106.106 173.083L104.149 173.515L106.642 163.812L108.897 163.312L110.007 172.217L108.062 172.65L107.91 170.895L107.916 170.888ZM107.215 167.902L106.916 169.426L107.776 169.237L107.709 167.792L107.648 165.952L107.569 165.97L107.221 167.902H107.215Z" fill="#FAFAFA"/>
<path d="M112.603 165.824L113.06 164.184L113.603 162.264L115.559 161.832L113.31 167.762L113.024 171.547L111.177 171.955L111.463 168.17L110.025 163.057L111.994 162.618L112.317 164.373L112.536 165.836L112.603 165.818V165.824Z" fill="#FAFAFA"/>
<path d="M121.392 160.527L123.403 160.082L120.898 169.791L118.558 170.309L117.461 161.405L119.484 160.954L119.777 164.543L119.923 167.103L120.002 167.085L120.539 164.403L121.392 160.533V160.527Z" fill="#FAFAFA"/>
<path d="M123.172 169.286L123.866 159.979L128.206 159.016L128.078 160.753L125.591 161.307L125.445 163.288L127.621 162.807L127.493 164.544L125.317 165.025L125.159 167.14L127.645 166.585L127.517 168.323L123.178 169.286H123.172Z" fill="#FAFAFA"/>
<path d="M133.271 159.601L132.704 167.171L130.857 167.579L131.424 160.009L129.967 160.332L130.095 158.595L134.855 157.535L134.727 159.272L133.271 159.595V159.601Z" fill="#FAFAFA"/>
<path d="M134.636 166.738L135.331 157.431L139.67 156.468L139.542 158.205L137.056 158.759L136.909 160.74L139.085 160.259L138.957 161.996L136.781 162.477L136.623 164.592L139.11 164.038L138.982 165.775L134.642 166.738H134.636Z" fill="#FAFAFA"/>
<path d="M142.121 158.753L143.626 155.59L145.601 155.151L143.34 159.442L145.107 164.416L143.187 164.842L142.139 161.563L141.749 162.477L141.542 165.208L139.689 165.616L140.384 156.309L142.236 155.901L142.023 158.778L142.121 158.753Z" fill="#FAFAFA"/>
<path d="M149.227 158.668L149.556 154.267L151.367 153.865L150.672 163.172L149.099 163.52L148.191 161.051L147.673 159.43L147.606 159.442L147.271 163.922L145.424 164.33L146.119 155.023L147.734 154.664L148.648 157.12L149.16 158.674L149.227 158.656V158.668Z" fill="#FAFAFA"/>
<path d="M156.614 159.619C156.553 160.423 156.303 161.057 155.871 161.533C155.432 162.008 154.816 162.331 154.018 162.508C152.415 162.867 151.671 162.258 151.787 160.692L152.147 155.919C152.208 155.115 152.464 154.481 152.921 154.005C153.378 153.53 153.975 153.213 154.731 153.043C155.554 152.86 156.151 152.915 156.517 153.207C156.882 153.5 157.035 154.042 156.974 154.847L156.614 159.619ZM155.103 155.194C155.121 154.987 155.078 154.853 154.981 154.786C154.883 154.719 154.755 154.706 154.603 154.737C154.451 154.767 154.316 154.847 154.201 154.956C154.085 155.072 154.018 155.231 154.006 155.432L153.64 160.35C153.622 160.564 153.664 160.704 153.768 160.765C153.872 160.826 154 160.838 154.152 160.807C154.304 160.777 154.438 160.704 154.548 160.594C154.658 160.484 154.725 160.326 154.737 160.113L155.103 155.194Z" fill="#FAFAFA"/>
<path d="M157.449 161.667L158.144 152.36L159.997 151.952L159.43 159.522L161.917 158.967L161.789 160.704L157.449 161.667Z" fill="#FAFAFA"/>
<path d="M167.207 157.266C167.146 158.071 166.896 158.705 166.463 159.18C166.031 159.656 165.409 159.979 164.611 160.155C163.008 160.515 162.264 159.905 162.38 158.339L162.739 153.567C162.8 152.762 163.056 152.128 163.514 151.653C163.971 151.178 164.568 150.861 165.324 150.69C166.147 150.507 166.744 150.562 167.11 150.855C167.475 151.147 167.628 151.69 167.567 152.494L167.207 157.266ZM165.695 152.841C165.714 152.634 165.671 152.5 165.574 152.433C165.476 152.366 165.348 152.354 165.196 152.384C165.043 152.421 164.909 152.494 164.793 152.604C164.678 152.72 164.611 152.878 164.598 153.079L164.233 157.998C164.214 158.211 164.257 158.351 164.361 158.412C164.464 158.473 164.592 158.485 164.745 158.455C164.897 158.418 165.031 158.351 165.141 158.242C165.251 158.132 165.318 157.973 165.33 157.76L165.695 152.841Z" fill="#FAFAFA"/>
<path d="M172.546 149.16L172.016 156.206C171.961 156.937 171.705 157.559 171.248 158.065C170.791 158.571 170.182 158.912 169.42 159.083C168.993 159.18 168.603 159.162 168.243 159.04C167.89 158.918 167.591 158.687 167.36 158.339L168.81 156.992C168.914 157.139 169.036 157.236 169.176 157.291C169.316 157.346 169.432 157.364 169.535 157.346C169.743 157.297 169.901 157.193 169.999 157.029C170.102 156.864 170.157 156.724 170.163 156.596L170.687 149.563L172.534 149.154L172.546 149.16Z" fill="#FAFAFA"/>
<path d="M172.955 158.223L173.649 148.916L175.496 148.508L174.801 157.815L172.955 158.223ZM173.802 148.471L173.93 146.734L175.533 146.375L175.405 148.112L173.802 148.471Z" fill="#FAFAFA"/>
<path d="M179.866 149.239L179.72 151.22L181.896 150.739L181.768 152.476L179.592 152.957L179.305 156.809L177.459 157.218L178.154 147.911L182.493 146.948L182.365 148.685L179.878 149.239H179.866Z" fill="#FAFAFA"/>
<path d="M182.511 156.096L183.206 146.789L187.546 145.826L187.418 147.563L184.931 148.118L184.785 150.099L186.961 149.617L186.833 151.354L184.657 151.836L184.498 153.951L186.985 153.396L186.857 155.133L182.518 156.096H182.511Z" fill="#FAFAFA"/>
<path d="M192.477 151.184C192.446 151.61 192.379 152.006 192.275 152.372C192.172 152.738 192.019 153.061 191.812 153.347C191.605 153.634 191.343 153.878 191.014 154.085C190.685 154.286 190.282 154.444 189.801 154.554C189.368 154.652 188.996 154.67 188.692 154.615C188.387 154.56 188.149 154.444 187.966 154.268C187.79 154.091 187.662 153.865 187.595 153.597C187.528 153.323 187.503 153.024 187.528 152.695L189.417 151.933C189.411 152.269 189.441 152.512 189.514 152.659C189.588 152.811 189.74 152.86 189.972 152.805C190.106 152.774 190.215 152.72 190.295 152.64C190.374 152.561 190.441 152.47 190.49 152.36C190.538 152.25 190.575 152.134 190.599 151.994C190.624 151.86 190.642 151.72 190.648 151.586C190.66 151.397 190.66 151.245 190.648 151.129C190.63 151.013 190.593 150.915 190.526 150.842C190.465 150.769 190.38 150.708 190.264 150.672C190.148 150.629 190.014 150.592 189.844 150.562C189.393 150.477 189.039 150.367 188.771 150.227C188.503 150.087 188.308 149.922 188.174 149.727C188.04 149.532 187.96 149.313 187.936 149.069C187.912 148.825 187.905 148.551 187.936 148.252C187.966 147.868 188.033 147.502 188.149 147.161C188.265 146.82 188.43 146.509 188.643 146.229C188.856 145.954 189.124 145.717 189.447 145.509C189.77 145.302 190.154 145.156 190.599 145.058C191.069 144.955 191.453 144.942 191.751 145.022C192.05 145.101 192.275 145.235 192.434 145.424C192.592 145.613 192.702 145.838 192.751 146.094C192.8 146.356 192.818 146.612 192.8 146.875L190.947 147.667C190.959 147.533 190.959 147.411 190.953 147.295C190.953 147.185 190.929 147.082 190.886 147.003C190.849 146.917 190.794 146.856 190.721 146.82C190.648 146.783 190.545 146.777 190.41 146.808C190.282 146.838 190.185 146.887 190.112 146.96C190.039 147.033 189.972 147.118 189.929 147.21C189.88 147.301 189.85 147.405 189.825 147.515C189.801 147.624 189.789 147.728 189.783 147.825C189.77 147.953 189.77 148.057 189.783 148.154C189.795 148.252 189.831 148.331 189.898 148.404C189.966 148.478 190.063 148.545 190.197 148.593C190.331 148.648 190.52 148.697 190.764 148.74C191.184 148.813 191.514 148.916 191.751 149.044C191.989 149.178 192.166 149.337 192.282 149.532C192.397 149.727 192.464 149.959 192.483 150.227C192.501 150.501 192.501 150.812 192.471 151.171L192.477 151.184Z" fill="#FAFAFA"/>
<path d="M196.31 145.589L195.743 153.158L193.891 153.567L194.457 145.997L193.001 146.32L193.129 144.583L197.889 143.522L197.761 145.26L196.304 145.583L196.31 145.589Z" fill="#FAFAFA"/>
<path d="M197.7 152.719L198.395 143.412L200.242 143.004L199.547 152.311L197.7 152.719ZM198.547 142.974L198.675 141.237L200.278 140.877L200.15 142.614L198.547 142.974Z" fill="#FAFAFA"/>
<path d="M204.666 142.023L206.678 141.578L204.173 151.287L201.832 151.805L200.735 142.901L202.759 142.45L203.051 146.04L203.191 148.599L203.271 148.581L203.807 145.899L204.66 142.029L204.666 142.023Z" fill="#FAFAFA"/>
<path d="M208.957 148.429L207.567 148.74L207.147 150.623L205.19 151.056L207.683 141.353L209.938 140.853L211.048 149.758L209.103 150.19L208.957 148.435V148.429ZM208.262 145.442L207.964 146.966L208.823 146.777L208.756 145.333L208.695 143.492L208.616 143.51L208.268 145.442H208.262Z" fill="#FAFAFA"/>
<path d="M211.566 149.636L212.26 140.329L214.107 139.92L213.54 147.49L216.027 146.936L215.899 148.673L211.56 149.636H211.566Z" fill="#FAFAFA"/>
<path d="M216.436 148.557L217.13 139.25L218.977 138.841L218.282 148.148L216.436 148.557ZM217.289 138.811L217.417 137.074L219.02 136.714L218.892 138.451L217.289 138.811Z" fill="#FAFAFA"/>
</g>
<defs>
<clipPath id="clip0_12_539">
<rect width="250" height="186.467" fill="white" transform="translate(0.0732422)"/>
</clipPath>
</defs>
</svg>
