<svg width="166" height="40" viewBox="0 0 166 40" fill="none" xmlns="http://www.w3.org/2000/svg">
<g clip-path="url(#clip0_194_3608)">
<path d="M40.9451 0L0.0732422 20.0172L40.968 40L20.9274 20.0057L40.9451 0Z" fill="#FAFAFA"/>
<path d="M40.9453 0L81.8401 19.9828L40.9682 40L60.9859 19.9943L40.9453 0Z" fill="#FAFAFA"/>
<path d="M140.918 19.2961C140.953 20.5406 140.615 21.7669 139.947 22.8185C139.28 23.8701 138.314 24.6991 137.173 25.1997C136.032 25.7003 134.767 25.8497 133.541 25.6288C132.314 25.4079 131.182 24.8268 130.287 23.9596C129.393 23.0925 128.778 21.9787 128.52 20.7606C128.263 19.5426 128.375 18.2755 128.842 17.1214C129.309 15.9672 130.11 14.9784 131.143 14.2812C132.176 13.584 133.393 13.2102 134.639 13.2074C136.277 13.195 137.853 13.8267 139.028 14.9661C140.203 16.1054 140.882 17.6608 140.918 19.2961ZM140.85 11.1016V13.2875C139.188 11.6349 136.938 10.7087 134.593 10.7124C133.475 10.7124 132.368 10.9324 131.335 11.3597C130.302 11.7871 129.364 12.4134 128.573 13.2031C127.783 13.9927 127.156 14.9301 126.728 15.9618C126.3 16.9935 126.08 18.0993 126.08 19.216C126.08 20.3327 126.3 21.4385 126.728 22.4702C127.156 23.5019 127.783 24.4393 128.573 25.229C129.364 26.0186 130.302 26.645 131.335 27.0723C132.368 27.4996 133.475 27.7196 134.593 27.7196C135.753 27.733 136.903 27.5174 137.979 27.0853C139.054 26.6532 140.034 26.0131 140.861 25.2017C140.861 26.6323 140.861 31.6566 134.708 31.6566C132.571 31.6675 130.487 30.9936 128.761 29.7339L128.624 32.6066C130.49 33.6227 132.582 34.154 134.708 34.1516C135.869 34.2092 137.029 34.0365 138.123 33.6436C139.216 33.2507 140.221 32.6454 141.079 31.8627C141.856 31.0269 142.459 30.0449 142.852 28.974C143.246 27.9031 143.422 26.7647 143.37 25.6252V11.1016H140.85Z" fill="#FAFAFA"/>
<path d="M162.632 19.2846C162.668 20.5294 162.332 21.7569 161.667 22.8099C161.001 23.863 160.036 24.6938 158.895 25.1961C157.754 25.6985 156.489 25.8496 155.262 25.63C154.035 25.4105 152.901 24.8303 152.005 23.9636C151.11 23.097 150.494 21.9833 150.235 20.7649C149.977 19.5466 150.088 18.279 150.555 17.1241C151.022 15.9693 151.823 14.9798 152.856 14.282C153.888 13.5843 155.106 13.2101 156.353 13.2073C157.989 13.1919 159.566 13.8211 160.741 14.9586C161.917 16.0961 162.596 17.6503 162.632 19.2846ZM162.563 11.09V13.276C161.74 12.4593 160.764 11.8125 159.69 11.3726C158.617 10.9327 157.467 10.7084 156.307 10.7123C155.163 10.6704 154.023 10.8592 152.954 11.2674C151.886 11.6755 150.91 12.2947 150.086 13.088C149.262 13.8812 148.607 14.8322 148.159 15.8841C147.712 16.936 147.481 18.0672 147.481 19.2102C147.481 20.3532 147.712 21.4844 148.159 22.5363C148.607 23.5882 149.262 24.5392 150.086 25.3324C150.91 26.1256 151.886 26.7448 152.954 27.153C154.023 27.5612 155.163 27.75 156.307 27.7081C157.466 27.7109 158.615 27.4849 159.687 27.0429C160.758 26.601 161.732 25.9519 162.552 25.1329C162.552 26.5636 162.552 31.5879 156.399 31.5879C154.26 31.6102 152.172 30.9352 150.452 29.6651L150.314 32.5492C152.184 33.555 154.275 34.082 156.399 34.0829C157.559 34.1404 158.72 33.9677 159.813 33.5748C160.907 33.182 161.912 32.5767 162.77 31.7939C163.547 30.9585 164.151 29.9766 164.544 28.9056C164.938 27.8346 165.113 26.696 165.061 25.5564V11.09H162.563Z" fill="#FAFAFA"/>
<path d="M86.3779 5.13867V7.59933H94.5706V28.8297H97.1029L97.0914 7.59933L105.272 7.58788V5.13867H86.3779Z" fill="#FAFAFA"/>
<path d="M113.614 26.7924C112.269 26.8172 110.946 26.4424 109.814 25.7154C108.682 24.9885 107.792 23.9422 107.256 22.7092C106.72 21.4762 106.563 20.112 106.804 18.7896C107.045 17.4672 107.674 16.2461 108.611 15.2813C109.548 14.3164 110.751 13.6512 112.067 13.37C113.383 13.0888 114.753 13.2042 116.003 13.7017C117.253 14.1992 118.328 15.0562 119.09 16.1643C119.851 17.2723 120.267 18.5813 120.283 19.9254C120.319 20.8193 120.172 21.7112 119.852 22.5469C119.533 23.3826 119.046 24.1446 118.422 24.7868C117.799 25.429 117.051 25.9379 116.224 26.2827C115.398 26.6274 114.51 26.8008 113.614 26.7924ZM113.614 10.7695C111.771 10.7582 109.966 11.2946 108.429 12.3107C106.892 13.3267 105.692 14.7765 104.982 16.4755C104.272 18.1745 104.083 20.0461 104.441 21.8522C104.799 23.6583 105.686 25.3174 106.99 26.6184C108.294 27.9195 109.957 28.8038 111.765 29.1588C113.574 29.5138 115.447 29.3235 117.148 28.6121C118.848 27.9008 120.298 26.7005 121.313 25.1638C122.328 23.6272 122.863 21.8237 122.85 19.9826C122.876 18.7645 122.655 17.5536 122.201 16.423C121.746 15.2924 121.066 14.2656 120.203 13.4046C119.34 12.5436 118.311 11.8661 117.179 11.4132C116.046 10.9603 114.834 10.7413 113.614 10.7695Z" fill="#FAFAFA"/>
</g>
<defs>
<clipPath id="clip0_194_3608">
<rect width="165" height="40" fill="white" transform="translate(0.0732422)"/>
</clipPath>
</defs>
</svg>
