<svg width="251" height="85" viewBox="0 0 251 85" fill="none" xmlns="http://www.w3.org/2000/svg">
<g clip-path="url(#clip0_12_199)">
<path fill-rule="evenodd" clip-rule="evenodd" d="M160.046 49.9263C163.696 48.2541 165.577 45.1347 165.384 41.131C165.103 35.5676 160.85 31.4995 153.823 31.395H147.198V69.3179H155.19C160.44 69.3179 165.899 64.7434 165.899 58.9227C165.899 51.5664 160.046 49.9183 160.046 49.9183V49.9263ZM153.839 37.6096C156.557 37.5132 158.88 38.6307 158.88 42.4254C158.88 46.2201 156.557 47.4823 153.839 47.3537V37.6177V37.6096ZM153.839 63.2801V53.1663C156.669 52.9734 159.137 55.1843 159.258 58.0142C159.387 60.9567 156.782 63.4892 153.839 63.2801Z" fill="#FAFAFA"/>
<path fill-rule="evenodd" clip-rule="evenodd" d="M98.9285 31.4028H103.535H110.176H114.968V37.6818H110.176V69.3257H103.535V37.6818H98.9285V31.4028Z" fill="#FAFAFA"/>
<path d="M129.374 22.3262H123.707V28.0825H129.374V22.3262Z" fill="#FAFAFA"/>
<path fill-rule="evenodd" clip-rule="evenodd" d="M121.608 31.4028H128.249V60.9163C128.249 62.484 129.519 63.7543 131.087 63.7543C132.655 63.7543 133.925 62.484 133.925 60.9163V31.4028H140.566V60.4982C140.566 65.732 136.321 69.9769 131.087 69.9769C125.853 69.9769 121.608 65.732 121.608 60.4982V31.4028Z" fill="#FAFAFA"/>
<path d="M138.499 22.3262H132.832V28.0825H138.499V22.3262Z" fill="#FAFAFA"/>
<path fill-rule="evenodd" clip-rule="evenodd" d="M185.821 31.4028H190.428H197.068H201.86V37.6818H197.068V69.3257H190.428V37.6818H185.821V31.4028Z" fill="#FAFAFA"/>
<path d="M179.18 22.3262H172.539V28.0825H179.18V22.3262Z" fill="#FAFAFA"/>
<path d="M179.18 31.4028H172.539V69.3257H179.18V31.4028Z" fill="#FAFAFA"/>
<path fill-rule="evenodd" clip-rule="evenodd" d="M242.613 31.4031L250.073 31.395L243.577 47.3376L243.457 47.4984L250.041 69.3259H242.54L238.456 55.3611L237.057 59.1156V69.3259H230.408V31.4031H237.057V46.9919L242.613 31.4031Z" fill="#FAFAFA"/>
<path fill-rule="evenodd" clip-rule="evenodd" d="M217.706 31.4028H211.499L203.862 69.3257H210.157L211.467 61.881H217.738L219.048 69.3257H225.343L217.706 31.4028ZM212.528 55.8674L214.603 44.0813L216.677 55.8674H212.528Z" fill="#FAFAFA"/>
<path d="M56.2541 32.882C53.5367 37.8907 48.2305 41.2915 42.1285 41.2915C36.0264 41.2915 30.7202 37.8907 28.0028 32.882C29.9565 29.2803 33.2527 26.5066 37.2162 25.2364H26.0733C26.0733 16.3687 33.2608 9.17321 42.1285 9.17321C50.9962 9.17321 58.1836 16.3606 58.1836 25.2283H47.0407C51.0042 26.5066 54.3004 29.2723 56.2541 32.874V32.882ZM42.1285 45.8741C35.7209 45.8741 29.9967 42.9557 26.21 38.3811C26.3467 37.3762 26.5718 36.3954 26.8853 35.4547C30.1816 40.3589 35.7772 43.5828 42.1285 43.5828C48.4798 43.5828 54.0753 40.3589 57.3716 35.4547C57.6851 36.3954 57.9102 37.3682 58.0469 38.3811C54.2602 42.9557 48.536 45.8741 42.1285 45.8741ZM21.4827 25.2364C21.4827 13.8362 30.7283 4.59062 42.1285 4.59062C53.5286 4.59062 62.7742 13.8362 62.7742 25.2364H60.4829C60.4829 15.0984 52.2664 6.88191 42.1285 6.88191C31.9905 6.88191 23.774 15.0984 23.774 25.2364H21.4827ZM57.4761 45.2631C53.2231 48.5271 47.9009 50.4647 42.1285 50.4647C36.356 50.4647 31.0338 48.5271 26.7808 45.2631C26.5396 44.4752 26.3547 43.6551 26.2341 42.819C30.4388 46.6217 36.0103 48.9372 42.1285 48.9372C48.2466 48.9372 53.8181 46.6217 58.0228 42.819C57.9022 43.6551 57.7173 44.4752 57.4761 45.2631ZM16.8921 25.2364C16.8921 11.2957 28.1958 0 42.1285 0C56.0611 0 67.3648 11.2957 67.3648 25.2364H65.8373C65.8373 12.1479 55.225 1.53557 42.1365 1.53557C29.048 1.53557 18.4357 12.1479 18.4357 25.2364H16.9082H16.8921Z" fill="#FAFAFA"/>
<path fill-rule="evenodd" clip-rule="evenodd" d="M84.1837 25.2366L42.1285 84.1107L0.0732422 25.2366H16.8921C16.8921 33.3968 20.7672 40.6485 26.7809 45.2632C28.7988 51.8236 34.9089 56.583 42.1285 56.583C49.3481 56.583 55.4582 51.8155 57.4761 45.2632C63.4898 40.6485 67.3649 33.3968 67.3649 25.2366H84.1837ZM18.4197 25.2366H21.4827C21.4827 30.2292 23.2595 34.8117 26.21 38.3813C26.1136 39.0808 26.0653 39.7963 26.0653 40.5279C26.0653 41.3078 26.1216 42.0715 26.2261 42.8192C21.4265 38.4778 18.4197 32.2069 18.4197 25.2366ZM23.774 25.2366H26.0653C26.0653 28.0022 26.7648 30.607 28.0029 32.8822C27.5607 33.7023 27.1828 34.5625 26.8854 35.463C24.9237 32.5446 23.774 29.0232 23.774 25.2366ZM58.0228 42.8192C58.1273 42.0715 58.1836 41.3078 58.1836 40.5279C58.1836 39.7963 58.1354 39.0808 58.0389 38.3813C60.9894 34.8117 62.7662 30.2292 62.7662 25.2366H65.8213C65.8213 32.2149 62.8064 38.4858 58.0148 42.8192H58.0228ZM57.3716 35.4549C57.0741 34.5545 56.6963 33.6942 56.2541 32.8742C57.4842 30.599 58.1917 27.9941 58.1917 25.2285H60.4829C60.4829 29.0152 59.3333 32.5285 57.3716 35.4549Z" fill="#FAFAFA"/>
</g>
<defs>
<clipPath id="clip0_12_199">
<rect width="250" height="84.1105" fill="white" transform="translate(0.0732422)"/>
</clipPath>
</defs>
</svg>
