<svg width="137" height="48" viewBox="0 0 137 48" fill="none" xmlns="http://www.w3.org/2000/svg">
<path d="M38.0732 0C39.1089 0 39.9602 0.787224 40.0625 1.7959L40.0732 2V46C40.0732 47.1046 39.1778 48 38.0732 48C36.9687 48 36.0732 47.1046 36.0732 46V2L36.084 1.7959C36.1862 0.787224 37.0376 0 38.0732 0ZM110.073 0C111.109 0 111.96 0.787224 112.062 1.7959L112.073 2V46C112.073 47.1046 111.178 48 110.073 48C108.969 48 108.073 47.1046 108.073 46V2L108.084 1.7959C108.186 0.787224 109.038 0 110.073 0ZM14.0732 5.26074C15.1777 5.26074 16.073 6.15636 16.0732 7.26074V40.7402C16.073 41.8446 15.1776 42.7402 14.0732 42.7402C12.9688 42.7402 12.0735 41.8446 12.0732 40.7402V7.26074C12.0735 6.15636 12.9688 5.26074 14.0732 5.26074ZM86.0732 5.26074C87.1777 5.26074 88.073 6.15636 88.0732 7.26074V40.7402C88.073 41.8446 87.1777 42.7402 86.0732 42.7402C84.9688 42.7402 84.0735 41.8446 84.0732 40.7402V7.26074C84.0735 6.15636 84.9688 5.26074 86.0732 5.26074ZM26.0732 10.5215C27.1778 10.5215 28.0732 11.4169 28.0732 12.5215V35.4795C28.073 36.5838 27.1776 37.4795 26.0732 37.4795C24.9688 37.4795 24.0735 36.5838 24.0732 35.4795V12.5215C24.0732 11.4169 24.9687 10.5215 26.0732 10.5215ZM98.0732 10.5215C99.1778 10.5215 100.073 11.4169 100.073 12.5215V35.4795C100.073 36.5838 99.1777 37.4795 98.0732 37.4795C96.9688 37.4795 96.0735 36.5838 96.0732 35.4795V12.5215C96.0732 11.4169 96.9687 10.5215 98.0732 10.5215ZM2.07324 13.1514C3.17781 13.1514 4.07324 14.0468 4.07324 15.1514V32.8486C4.07324 33.9532 3.17781 34.8486 2.07324 34.8486C0.968673 34.8486 0.0732422 33.9532 0.0732422 32.8486V15.1514C0.0732422 14.0468 0.968673 13.1514 2.07324 13.1514ZM50.0732 13.1514C51.1778 13.1514 52.0732 14.0468 52.0732 15.1514V32.8486C52.0732 33.9532 51.1778 34.8486 50.0732 34.8486C48.9687 34.8486 48.0732 33.9532 48.0732 32.8486V15.1514C48.0732 14.0468 48.9687 13.1514 50.0732 13.1514ZM74.0732 13.1514C75.1778 13.1514 76.0732 14.0468 76.0732 15.1514V32.8486C76.0732 33.9532 75.1778 34.8486 74.0732 34.8486C72.9687 34.8486 72.0732 33.9532 72.0732 32.8486V15.1514C72.0732 14.0468 72.9687 13.1514 74.0732 13.1514ZM122.073 13.1514C123.178 13.1514 124.073 14.0468 124.073 15.1514V32.8486C124.073 33.9532 123.178 34.8486 122.073 34.8486C120.969 34.8486 120.073 33.9532 120.073 32.8486V15.1514C120.073 14.0468 120.969 13.1514 122.073 13.1514ZM62.0732 18.4121C63.1778 18.4121 64.0732 19.3075 64.0732 20.4121V27.5889C64.073 28.6932 63.1777 29.5889 62.0732 29.5889C60.9688 29.5889 60.0735 28.6932 60.0732 27.5889V20.4121C60.0732 19.3075 60.9687 18.4121 62.0732 18.4121ZM134.073 18.4121C135.178 18.4121 136.073 19.3075 136.073 20.4121V27.5889C136.073 28.6932 135.178 29.5889 134.073 29.5889C132.969 29.5889 132.074 28.6932 132.073 27.5889V20.4121C132.073 19.3075 132.969 18.4121 134.073 18.4121Z" fill="url(#paint0_linear_460_2252)"/>
<defs>
<linearGradient id="paint0_linear_460_2252" x1="8.89293" y1="48" x2="129.829" y2="40.266" gradientUnits="userSpaceOnUse">
<stop offset="0.139423" stop-color="#FAFAFA"/>
<stop offset="0.355769" stop-color="#CDCDCD"/>
<stop offset="0.524038" stop-color="#999999"/>
<stop offset="0.692308" stop-color="#E2E2E2"/>
<stop offset="0.889423" stop-color="#FAFAFA"/>
</linearGradient>
</defs>
</svg>
