<svg width="32" height="33" viewBox="0 0 32 33" fill="none" xmlns="http://www.w3.org/2000/svg">
<path d="M19.273 8.9739C19.273 7.16642 17.8077 5.70117 16.0003 5.70117C14.1928 5.70117 12.7275 7.16642 12.7275 8.9739V15.5194C12.7275 17.3268 14.1928 18.7921 16.0003 18.7921C17.8077 18.7921 19.273 17.3268 19.273 15.5194V8.9739Z" stroke="#FAFAFA" stroke-width="2"/>
<path d="M8.36364 6.79208V8.9739M4 5.70117V10.0648M23.6364 6.79208V8.9739M28 5.70117V10.0648" stroke="#FAFAFA" stroke-width="2" stroke-linecap="round" stroke-linejoin="round"/>
<path d="M8.36328 14.4282V15.5191C8.36328 19.7366 11.7822 23.1555 15.9996 23.1555C20.2171 23.1555 23.636 19.7366 23.636 15.5191V14.4282" stroke="#FAFAFA" stroke-width="2" stroke-linecap="round" stroke-linejoin="round"/>
<path d="M16.0003 23.1558V27.5194M16.0003 27.5194H12.7275M16.0003 27.5194H19.273" stroke="#FAFAFA" stroke-width="2" stroke-linecap="round" stroke-linejoin="round"/>
</svg>
