<svg width="32" height="33" viewBox="0 0 32 33" fill="none" xmlns="http://www.w3.org/2000/svg">
<path d="M10.2 20.2012H5.8C4.80589 20.2012 4 21.0071 4 22.0012V26.4012C4 27.3953 4.80589 28.2012 5.8 28.2012H10.2C11.1941 28.2012 12 27.3953 12 26.4012V22.0012C12 21.0071 11.1941 20.2012 10.2 20.2012Z" stroke="#FAFAFA" strokeWidth="2"/>
<path d="M26.2 20.2012H21.8C20.8059 20.2012 20 21.0071 20 22.0012V26.4012C20 27.3953 20.8059 28.2012 21.8 28.2012H26.2C27.1941 28.2012 28 27.3953 28 26.4012V22.0012C28 21.0071 27.1941 20.2012 26.2 20.2012Z" stroke="#FAFAFA" strokeWidth="2"/>
<path d="M18.2 4.20117H13.8C12.8059 4.20117 12 5.00706 12 6.00117V10.4012C12 11.3953 12.8059 12.2012 13.8 12.2012H18.2C19.1941 12.2012 20 11.3953 20 10.4012V6.00117C20 5.00706 19.1941 4.20117 18.2 4.20117Z" stroke="#FAFAFA" strokeWidth="2"/>
<path d="M24 20.2012V18.0012C24 17.0071 23.1941 16.2012 22.2 16.2012H9.8C8.80589 16.2012 8 17.0071 8 18.0012V20.2012" stroke="#FAFAFA" strokeWidth="2"/>
<path d="M16 16.2012V12.2012" stroke="#FAFAFA" strokeWidth="2"/>
</svg>
