<svg width="500" height="143" viewBox="0 0 500 143" fill="none" xmlns="http://www.w3.org/2000/svg">
<path d="M107.4 27.0998C107.3 26.3998 106.7 25.9998 106.2 25.9998C105.7 25.9998 95.8 25.7998 95.8 25.7998C95.8 25.7998 87.5 17.7998 86.7 16.8998C85.9 16.0998 84.3 16.2998 83.7 16.4998C83.7 16.4998 82.1 16.9998 79.5 17.7998C79.1 16.3998 78.4 14.6998 77.5 12.8998C74.6 7.29982 70.2 4.29982 65 4.29982C64.6 4.29982 64.3 4.29982 63.9 4.39982C63.7 4.19982 63.6 3.99982 63.4 3.89982C61.1 1.49982 58.2 0.299818 54.7 0.399818C48 0.599818 41.3 5.49982 35.8 14.0998C32 20.1998 29.1 27.7998 28.2 33.6998C20.5 36.0998 15.1 37.7998 14.9 37.7998C11 38.9998 10.9 39.0998 10.4 42.7998C10.2 45.5998 0 124.5 0 124.5L85.6 139.3L122.7 130.1C122.6 130.1 107.5 27.7998 107.4 27.0998ZM75.2 19.1998C73.2 19.7998 71 20.4998 68.6 21.2998C68.6 17.8998 68.1 13.0998 66.6 9.09982C71.7 9.89982 74.2 15.6998 75.2 19.1998ZM64.1 22.5998C59.6 23.9998 54.7 25.4998 49.8 26.9998C51.2 21.6998 53.8 16.4998 57 12.9998C58.2 11.6998 59.9 10.2998 61.8 9.49982C63.8 13.3998 64.2 18.8998 64.1 22.5998ZM54.9 4.89982C56.5 4.89982 57.8 5.19982 58.9 5.99982C57.1 6.89982 55.3 8.29982 53.7 10.0998C49.4 14.6998 46.1 21.7998 44.8 28.6998C40.7 29.9998 36.7 31.1998 33.1 32.2998C35.5 21.3998 44.6 5.19982 54.9 4.89982Z" fill="#95BF47"/>
<path d="M106.2 25.9999C105.7 25.9999 95.8001 25.7999 95.8001 25.7999C95.8001 25.7999 87.5001 17.7999 86.7001 16.8999C86.4001 16.5999 86.0001 16.3999 85.6001 16.3999V139.3L122.7 130.1C122.7 130.1 107.6 27.7999 107.5 27.0999C107.3 26.3999 106.7 25.9999 106.2 25.9999Z" fill="#5E8E3E"/>
<path d="M65 45.1L60.7001 61.2C60.7001 61.2 55.9001 59 50.2001 59.4C41.8001 59.9 41.8 65.2 41.8 66.5C42.3 73.7 61.2001 75.3 62.3 92.2C63.1 105.5 55.3 114.6 43.9001 115.3C30.3001 116 22.8 108 22.8 108L25.7001 95.7C25.7001 95.7 33.3 101.4 39.3 101C43.2 100.8 44.7001 97.5 44.5 95.3C43.9 85.9 28.5 86.5 27.5 71C26.7 58 35.2001 44.9 54 43.7C61.3 43.2 65 45.1 65 45.1Z" fill="white"/>
<path d="M172.9 79.3998C168.6 77.0998 166.4 75.0998 166.4 72.3998C166.4 68.9998 169.5 66.7998 174.3 66.7998C179.9 66.7998 184.9 69.0998 184.9 69.0998L188.8 57.0998C188.8 57.0998 185.2 54.2998 174.6 54.2998C159.8 54.2998 149.5 62.7998 149.5 74.6998C149.5 81.4998 154.3 86.5998 160.7 90.2998C165.9 93.1998 167.7 95.2998 167.7 98.3998C167.7 101.6 165.1 104.2 160.3 104.2C153.2 104.2 146.4 100.5 146.4 100.5L142.2 112.5C142.2 112.5 148.4 116.7 158.9 116.7C174.1 116.7 185.1 109.2 185.1 95.6998C185 88.3998 179.5 83.1998 172.9 79.3998Z" fill="white"/>
<path d="M233.5 54.1C226 54.1 220.1 57.7 215.6 63.1L215.4 63L221.9 29H205L188.5 115.6H205.4L211 86C213.2 74.8 219 67.9 224.4 67.9C228.2 67.9 229.7 70.5 229.7 74.2C229.7 76.5 229.5 79.4 229 81.7L222.6 115.6H239.5L246.1 80.6C246.8 76.9 247.3 72.5 247.3 69.5C247.4 59.9 242.4 54.1 233.5 54.1Z" fill="white"/>
<path d="M285.7 54.0996C265.3 54.0996 251.8 72.4996 251.8 92.9996C251.8 106.1 259.9 116.7 275.1 116.7C295.1 116.7 308.6 98.7996 308.6 77.7996C308.7 65.6996 301.6 54.0996 285.7 54.0996ZM277.4 103.8C271.6 103.8 269.2 98.8996 269.2 92.6996C269.2 82.9996 274.2 67.1996 283.4 67.1996C289.4 67.1996 291.4 72.3996 291.4 77.3996C291.4 87.7996 286.3 103.8 277.4 103.8Z" fill="white"/>
<path d="M352 54.0996C340.6 54.0996 334.1 64.1996 334.1 64.1996H333.9L334.9 55.0996H319.9C319.2 61.1996 317.8 70.5996 316.5 77.5996L304.7 139.6H321.6L326.3 114.5H326.7C326.7 114.5 330.2 116.7 336.6 116.7C356.5 116.7 369.5 96.2996 369.5 75.6996C369.5 64.2996 364.4 54.0996 352 54.0996ZM335.8 104C331.4 104 328.8 101.5 328.8 101.5L331.6 85.6996C333.6 75.0996 339.1 68.0996 345 68.0996C350.2 68.0996 351.8 72.8996 351.8 77.3996C351.8 88.3996 345.3 104 335.8 104Z" fill="white"/>
<path d="M393.7 29.7998C388.3 29.7998 384 34.0998 384 39.5998C384 44.5998 387.2 48.0998 392 48.0998H392.2C397.5 48.0998 402 44.4998 402.1 38.2998C402.1 33.3998 398.8 29.7998 393.7 29.7998Z" fill="white"/>
<path d="M370 115.5H386.9L398.4 55.5H381.4L370 115.5Z" fill="white"/>
<path d="M441.5 55.3998H429.7L430.3 52.5998C431.3 46.7998 434.7 41.6998 440.4 41.6998C443.4 41.6998 445.8 42.5998 445.8 42.5998L449.1 29.2998C449.1 29.2998 446.2 27.7998 439.9 27.7998C433.9 27.7998 427.9 29.4998 423.3 33.3998C417.5 38.2998 414.8 45.3998 413.5 52.5998L413 55.3998H405.1L402.6 68.1998H410.5L401.5 115.6H418.4L427.4 68.1998H439.1L441.5 55.3998Z" fill="white"/>
<path d="M482.3 55.5C482.3 55.5 471.7 82.2 467 96.8H466.8C466.5 92.1 462.6 55.5 462.6 55.5H444.8L455 110.6C455.2 111.8 455.1 112.6 454.6 113.4C452.6 117.2 449.3 120.9 445.4 123.6C442.2 125.9 438.6 127.4 435.8 128.4L440.5 142.8C443.9 142.1 451.1 139.2 457.1 133.6C464.8 126.4 472 115.2 479.3 100L500 55.5H482.3Z" fill="white"/>
</svg>
