<svg width="25" height="24" viewBox="0 0 25 24" fill="none" xmlns="http://www.w3.org/2000/svg">
<path d="M20.3903 4.15557C18.8606 3.45369 17.2202 2.93658 15.5051 2.6404C15.4739 2.63469 15.4427 2.64897 15.4266 2.67754C15.2157 3.05276 14.982 3.54225 14.8183 3.927C12.9736 3.65083 11.1384 3.65083 9.33156 3.927C9.16789 3.5337 8.92573 3.05276 8.71382 2.67754C8.69773 2.64992 8.66653 2.63564 8.63529 2.6404C6.92115 2.93563 5.2808 3.45275 3.75018 4.15557C3.73693 4.16129 3.72557 4.17082 3.71803 4.18319C0.606634 8.83155 -0.245708 13.3657 0.172422 17.8436C0.174314 17.8655 0.186612 17.8864 0.20364 17.8997C2.25645 19.4073 4.24495 20.3225 6.19652 20.9291C6.22776 20.9386 6.26085 20.9272 6.28072 20.9015C6.74237 20.2711 7.15388 19.6063 7.50672 18.9073C7.52754 18.8664 7.50766 18.8178 7.46511 18.8016C6.81237 18.554 6.19084 18.2521 5.59297 17.9093C5.54568 17.8816 5.5419 17.814 5.5854 17.7816C5.71121 17.6873 5.83706 17.5893 5.9572 17.4902C5.97893 17.4721 6.00922 17.4683 6.03477 17.4797C9.96253 19.273 14.2148 19.273 18.0962 17.4797C18.1217 17.4674 18.152 17.4712 18.1747 17.4893C18.2949 17.5883 18.4207 17.6873 18.5475 17.7816C18.591 17.814 18.5881 17.8816 18.5408 17.9093C17.943 18.2588 17.3214 18.554 16.6678 18.8006C16.6252 18.8168 16.6063 18.8664 16.6271 18.9073C16.9875 19.6054 17.399 20.2701 17.8521 20.9005C17.8711 20.9272 17.9051 20.9386 17.9363 20.9291C19.8974 20.3225 21.8859 19.4073 23.9387 17.8997C23.9567 17.8864 23.968 17.8664 23.9699 17.8445C24.4703 12.6676 23.1317 8.17064 20.4215 4.18414C20.4148 4.17082 20.4035 4.16129 20.3903 4.15557ZM8.09326 15.117C6.91074 15.117 5.93637 14.0313 5.93637 12.6981C5.93637 11.3648 6.89185 10.2791 8.09326 10.2791C9.30412 10.2791 10.2691 11.3743 10.2501 12.6981C10.2501 14.0313 9.29465 15.117 8.09326 15.117ZM16.068 15.117C14.8855 15.117 13.9111 14.0313 13.9111 12.6981C13.9111 11.3648 14.8666 10.2791 16.068 10.2791C17.2789 10.2791 18.2438 11.3743 18.2249 12.6981C18.2249 14.0313 17.2789 15.117 16.068 15.117Z" fill="#FAFAFA"/>
</svg>
