<svg width="25" height="24" viewBox="0 0 25 24" fill="none" xmlns="http://www.w3.org/2000/svg">
<path d="M12.0732 0C5.44588 0 0.0732422 5.37264 0.0732422 12C0.0732422 17.6275 3.9478 22.3498 9.17452 23.6467V15.6672H6.70012V12H9.17452V10.4198C9.17452 6.33552 11.023 4.4424 15.0329 4.4424C15.7932 4.4424 17.1051 4.59168 17.6417 4.74048V8.06448C17.3585 8.03472 16.8665 8.01984 16.2555 8.01984C14.288 8.01984 13.5276 8.76528 13.5276 10.703V12H17.4473L16.7739 15.6672H13.5276V23.9122C19.4696 23.1946 24.0737 18.1354 24.0737 12C24.0732 5.37264 18.7006 0 12.0732 0Z" fill="#FAFAFA"/>
</svg>
