<svg width="25" height="24" viewBox="0 0 25 24" fill="none" xmlns="http://www.w3.org/2000/svg">
<path d="M12.0732 2.16094C15.2795 2.16094 15.6592 2.175 16.9201 2.23125C18.092 2.28281 18.7248 2.47969 19.1467 2.64375C19.7045 2.85938 20.1076 3.12188 20.5248 3.53906C20.9467 3.96094 21.2045 4.35938 21.4201 4.91719C21.5842 5.33906 21.7811 5.97656 21.8326 7.14375C21.8889 8.40937 21.9029 8.78906 21.9029 11.9906C21.9029 15.1969 21.8889 15.5766 21.8326 16.8375C21.7811 18.0094 21.5842 18.6422 21.4201 19.0641C21.2045 19.6219 20.942 20.025 20.5248 20.4422C20.1029 20.8641 19.7045 21.1219 19.1467 21.3375C18.7248 21.5016 18.0873 21.6984 16.9201 21.75C15.6545 21.8062 15.2748 21.8203 12.0732 21.8203C8.86699 21.8203 8.48731 21.8062 7.22637 21.75C6.05449 21.6984 5.42168 21.5016 4.9998 21.3375C4.44199 21.1219 4.03887 20.8594 3.62168 20.4422C3.1998 20.0203 2.94199 19.6219 2.72637 19.0641C2.5623 18.6422 2.36543 18.0047 2.31387 16.8375C2.25762 15.5719 2.24355 15.1922 2.24355 11.9906C2.24355 8.78438 2.25762 8.40469 2.31387 7.14375C2.36543 5.97187 2.5623 5.33906 2.72637 4.91719C2.94199 4.35938 3.20449 3.95625 3.62168 3.53906C4.04355 3.11719 4.44199 2.85938 4.9998 2.64375C5.42168 2.47969 6.05918 2.28281 7.22637 2.23125C8.48731 2.175 8.86699 2.16094 12.0732 2.16094ZM12.0732 0C8.81543 0 8.40762 0.0140625 7.12793 0.0703125C5.85293 0.126563 4.97637 0.332812 4.21699 0.628125C3.4248 0.9375 2.75449 1.34531 2.08887 2.01562C1.41855 2.68125 1.01074 3.35156 0.701367 4.13906C0.406055 4.90313 0.199805 5.775 0.143555 7.05C0.0873047 8.33437 0.0732422 8.74219 0.0732422 12C0.0732422 15.2578 0.0873047 15.6656 0.143555 16.9453C0.199805 18.2203 0.406055 19.0969 0.701367 19.8563C1.01074 20.6484 1.41855 21.3188 2.08887 21.9844C2.75449 22.65 3.42481 23.0625 4.21231 23.3672C4.97637 23.6625 5.84824 23.8687 7.12324 23.925C8.40293 23.9812 8.81074 23.9953 12.0686 23.9953C15.3264 23.9953 15.7342 23.9812 17.0139 23.925C18.2889 23.8687 19.1654 23.6625 19.9248 23.3672C20.7123 23.0625 21.3826 22.65 22.0482 21.9844C22.7139 21.3188 23.1264 20.6484 23.4311 19.8609C23.7264 19.0969 23.9326 18.225 23.9889 16.95C24.0451 15.6703 24.0592 15.2625 24.0592 12.0047C24.0592 8.74688 24.0451 8.33906 23.9889 7.05938C23.9326 5.78438 23.7264 4.90781 23.4311 4.14844C23.1357 3.35156 22.7279 2.68125 22.0576 2.01562C21.392 1.35 20.7217 0.9375 19.9342 0.632812C19.1701 0.3375 18.2982 0.13125 17.0232 0.075C15.7389 0.0140625 15.3311 0 12.0732 0Z" fill="#FAFAFA"/>
<path d="M12.0732 5.83594C8.67012 5.83594 5.90918 8.59688 5.90918 12C5.90918 15.4031 8.67012 18.1641 12.0732 18.1641C15.4764 18.1641 18.2373 15.4031 18.2373 12C18.2373 8.59688 15.4764 5.83594 12.0732 5.83594ZM12.0732 15.9984C9.86543 15.9984 8.0748 14.2078 8.0748 12C8.0748 9.79219 9.86543 8.00156 12.0732 8.00156C14.2811 8.00156 16.0717 9.79219 16.0717 12C16.0717 14.2078 14.2811 15.9984 12.0732 15.9984Z" fill="#FAFAFA"/>
<path d="M19.9201 5.59238C19.9201 6.38926 19.2732 7.03145 18.4811 7.03145C17.6842 7.03145 17.042 6.38457 17.042 5.59238C17.042 4.79551 17.6889 4.15332 18.4811 4.15332C19.2732 4.15332 19.9201 4.8002 19.9201 5.59238Z" fill="#FAFAFA"/>
</svg>
