<svg width="25" height="24" viewBox="0 0 25 24" fill="none" xmlns="http://www.w3.org/2000/svg">
<path d="M22.2967 0H1.84512C0.86543 0 0.0732422 0.773438 0.0732422 1.72969V22.2656C0.0732422 23.2219 0.86543 24 1.84512 24H22.2967C23.2764 24 24.0732 23.2219 24.0732 22.2703V1.72969C24.0732 0.773438 23.2764 0 22.2967 0ZM7.19355 20.4516H3.63105V8.99531H7.19355V20.4516ZM5.4123 7.43438C4.26855 7.43438 3.34512 6.51094 3.34512 5.37187C3.34512 4.23281 4.26855 3.30937 5.4123 3.30937C6.55137 3.30937 7.4748 4.23281 7.4748 5.37187C7.4748 6.50625 6.55137 7.43438 5.4123 7.43438ZM20.5248 20.4516H16.967V14.8828C16.967 13.5562 16.9436 11.8453 15.1154 11.8453C13.2639 11.8453 12.9826 13.2937 12.9826 14.7891V20.4516H9.42949V8.99531H12.842V10.5609H12.8889C13.3623 9.66094 14.5248 8.70938 16.2545 8.70938C19.8592 8.70938 20.5248 11.0813 20.5248 14.1656V20.4516Z" fill="#FAFAFA"/>
</svg>
