<svg width="25" height="24" viewBox="0 0 25 24" fill="none" xmlns="http://www.w3.org/2000/svg">
<path fill-rule="evenodd" clip-rule="evenodd" d="M24.0732 12C24.0732 18.6274 18.7007 24 12.0732 24C5.44583 24 0.0732422 18.6274 0.0732422 12C0.0732422 5.37258 5.44583 0 12.0732 0C18.7007 0 24.0732 5.37258 24.0732 12ZM12.5033 8.85893C11.3361 9.3444 9.00338 10.3492 5.50514 11.8733C4.93707 12.0992 4.6395 12.3202 4.61241 12.5363C4.56663 12.9015 5.02395 13.0453 5.64671 13.2411C5.73142 13.2678 5.8192 13.2954 5.90918 13.3246C6.52188 13.5238 7.34607 13.7568 7.77453 13.766C8.16319 13.7744 8.59697 13.6142 9.07588 13.2853C12.3444 11.079 14.0316 9.96381 14.1376 9.93977C14.2123 9.92281 14.3158 9.90148 14.386 9.96385C14.4562 10.0262 14.4493 10.1443 14.4418 10.176C14.3965 10.3691 12.6014 12.0381 11.6724 12.9018C11.3827 13.171 11.1773 13.362 11.1353 13.4056C11.0412 13.5033 10.9454 13.5958 10.8532 13.6846C10.284 14.2333 9.85715 14.6448 10.8769 15.3168C11.3669 15.6397 11.759 15.9067 12.1502 16.1731C12.5774 16.4641 13.0035 16.7543 13.5549 17.1157C13.6953 17.2077 13.8295 17.3034 13.9601 17.3965C14.4573 17.751 14.904 18.0694 15.4558 18.0186C15.7765 17.9891 16.1077 17.6876 16.2759 16.7884C16.6735 14.6631 17.4549 10.0585 17.6355 8.16097C17.6513 7.99473 17.6314 7.78197 17.6154 7.68857C17.5994 7.59518 17.566 7.46211 17.4446 7.3636C17.3008 7.24694 17.0789 7.22234 16.9796 7.22408C16.5283 7.23203 15.8358 7.47282 12.5033 8.85893Z" fill="#FAFAFA"/>
</svg>
