<svg width="25" height="24" viewBox="0 0 25 24" fill="none" xmlns="http://www.w3.org/2000/svg">
<path d="M23.8342 7.1998C23.8342 7.1998 23.5998 5.54512 22.8779 4.81855C21.9639 3.8623 20.942 3.85762 20.4732 3.80137C17.117 3.55762 12.0779 3.55762 12.0779 3.55762H12.0686C12.0686 3.55762 7.02949 3.55762 3.67324 3.80137C3.20449 3.85762 2.18262 3.8623 1.26855 4.81855C0.54668 5.54512 0.316992 7.1998 0.316992 7.1998C0.316992 7.1998 0.0732422 9.14512 0.0732422 11.0857V12.9045C0.0732422 14.8451 0.312305 16.7904 0.312305 16.7904C0.312305 16.7904 0.54668 18.4451 1.26387 19.1717C2.17793 20.1279 3.37793 20.0951 3.9123 20.1982C5.83418 20.3811 12.0732 20.4373 12.0732 20.4373C12.0732 20.4373 17.117 20.4279 20.4732 20.1889C20.942 20.1326 21.9639 20.1279 22.8779 19.1717C23.5998 18.4451 23.8342 16.7904 23.8342 16.7904C23.8342 16.7904 24.0732 14.8498 24.0732 12.9045V11.0857C24.0732 9.14512 23.8342 7.1998 23.8342 7.1998ZM9.59356 15.1123V8.36699L16.0764 11.7514L9.59356 15.1123Z" fill="#FAFAFA"/>
</svg>
